WenQuanYiZenHeiMono-02.ufo3
<glyph name="exclam" format="2">
  <advance width="512"/>
  <unicode hex="0021"/>
  <outline>
    <contour>
      <point x="205" y="766" type="line"/>
      <point x="307" y="766" type="line"/>
      <point x="297" y="239" type="line"/>
      <point x="215" y="239" type="line"/>
    </contour>
    <contour>
      <point x="200" y="18" type="line"/>
      <point x="200" y="152" type="line"/>
      <point x="312" y="152" type="line"/>
      <point x="312" y="18" type="line"/>
    </contour>
  </outline>
</glyph>
<glyph name="quotedbl" format="2">
  <advance width="512"/>
  <unicode hex="0022"/>
  <outline>
    <contour>
      <point x="282" y="817" type="line"/>
      <point x="384" y="817" type="line"/>
      <point x="364" y="530" type="line"/>
      <point x="302" y="530" type="line"/>
    </contour>
    <contour>
      <point x="128" y="817" type="line"/>
      <point x="230" y="817" type="line"/>
      <point x="210" y="530" type="line"/>
      <point x="148" y="530" type="line"/>
    </contour>
  </outline>
</glyph>
<glyph name="numbersign" format="2">
  <advance width="512"/>
  <unicode hex="0023"/>
  <outline>
    <contour>
      <point x="41" y="211" type="line"/>
      <point x="41" y="285" type="line"/>
      <point x="120" y="285" type="line"/>
      <point x="150" y="518" type="line"/>
      <point x="77" y="518" type="line"/>
      <point x="77" y="592" type="line"/>
      <point x="159" y="592" type="line"/>
      <point x="180" y="766" type="line"/>
      <point x="264" y="766" type="line"/>
      <point x="243" y="592" type="line"/>
      <point x="321" y="592" type="line"/>
      <point x="342" y="766" type="line"/>
      <point x="426" y="766" type="line"/>
      <point x="404" y="592" type="line"/>
      <point x="471" y="592" type="line"/>
      <point x="471" y="518" type="line"/>
      <point x="395" y="518" type="line"/>
      <point x="366" y="285" type="line"/>
      <point x="435" y="285" type="line"/>
      <point x="435" y="211" type="line"/>
      <point x="356" y="211" type="line"/>
      <point x="333" y="18" type="line"/>
      <point x="249" y="18" type="line"/>
      <point x="272" y="211" type="line"/>
      <point x="195" y="211" type="line"/>
      <point x="171" y="18" type="line"/>
      <point x="87" y="18" type="line"/>
      <point x="111" y="211" type="line"/>
    </contour>
    <contour>
      <point x="204" y="285" type="line"/>
      <point x="282" y="285" type="line"/>
      <point x="311" y="518" type="line"/>
      <point x="233" y="518" type="line"/>
    </contour>
  </outline>
</glyph>
<glyph name="dollar" format="2">
  <advance width="512"/>
  <unicode hex="0024"/>
  <outline>
    <contour>
      <point x="300" y="337" type="qcurve"/>
      <point x="300" y="118" type="line"/>
      <point x="359" y="139"/>
      <point x="359" y="228" type="qcurve" smooth="yes"/>
      <point x="359" y="301"/>
    </contour>
    <contour>
      <point x="300" y="38" type="qcurve"/>
      <point x="300" y="-69" type="line"/>
      <point x="222" y="-69" type="line"/>
      <point x="222" y="35" type="line"/>
      <point x="151" y="41"/>
      <point x="82" y="85" type="qcurve"/>
      <point x="82" y="182" type="line"/>
      <point x="148" y="124"/>
      <point x="222" y="112" type="qcurve"/>
      <point x="222" y="369" type="line"/>
      <point x="143" y="400"/>
      <point x="77" y="492"/>
      <point x="77" y="566" type="qcurve" smooth="yes"/>
      <point x="77" y="644"/>
      <point x="153" y="739"/>
      <point x="222" y="749" type="qcurve"/>
      <point x="222" y="853" type="line"/>
      <point x="300" y="853" type="line"/>
      <point x="300" y="749" type="line"/>
      <point x="371" y="740"/>
      <point x="430" y="710" type="qcurve"/>
      <point x="430" y="617" type="line"/>
      <point x="377" y="656"/>
      <point x="300" y="671" type="qcurve"/>
      <point x="300" y="428" type="line"/>
      <point x="379" y="396"/>
      <point x="445" y="303"/>
      <point x="445" y="228" type="qcurve" smooth="yes"/>
      <point x="445" y="61"/>
    </contour>
    <contour>
      <point x="222" y="458" type="qcurve"/>
      <point x="222" y="670" type="line"/>
      <point x="163" y="651"/>
      <point x="163" y="566" type="qcurve" smooth="yes"/>
      <point x="163" y="492"/>
    </contour>
  </outline>
</glyph>
<glyph name="percent" format="2">
  <advance width="512"/>
  <unicode hex="0025"/>
  <outline>
    <contour>
      <point x="61" y="285" type="line"/>
      <point x="451" y="582" type="line"/>
      <point x="451" y="500" type="line"/>
      <point x="61" y="203" type="line"/>
    </contour>
    <contour>
      <point x="226" y="776"/>
      <point x="297" y="692"/>
      <point x="297" y="612" type="qcurve" smooth="yes"/>
      <point x="297" y="532"/>
      <point x="226" y="449"/>
      <point x="164" y="449" type="qcurve" smooth="yes"/>
      <point x="101" y="449"/>
      <point x="31" y="532"/>
      <point x="31" y="612" type="qcurve" smooth="yes"/>
      <point x="31" y="692"/>
      <point x="101" y="776"/>
      <point x="164" y="776" type="qcurve" smooth="yes"/>
    </contour>
    <contour>
      <point x="411" y="336"/>
      <point x="481" y="252"/>
      <point x="481" y="172" type="qcurve" smooth="yes"/>
      <point x="481" y="92"/>
      <point x="411" y="8"/>
      <point x="349" y="8" type="qcurve" smooth="yes"/>
      <point x="286" y="8"/>
      <point x="215" y="92"/>
      <point x="215" y="172" type="qcurve" smooth="yes"/>
      <point x="215" y="252"/>
      <point x="286" y="336"/>
      <point x="349" y="336" type="qcurve" smooth="yes"/>
    </contour>
    <contour>
      <point x="217" y="518"/>
      <point x="217" y="613" type="qcurve" smooth="yes"/>
      <point x="217" y="707"/>
      <point x="164" y="707" type="qcurve" smooth="yes"/>
      <point x="111" y="707"/>
      <point x="111" y="518"/>
      <point x="111" y="613" type="qcurve" smooth="yes"/>
    </contour>
    <contour>
      <point x="401" y="78"/>
      <point x="401" y="172" type="qcurve" smooth="yes"/>
      <point x="401" y="266"/>
      <point x="348" y="266" type="qcurve" smooth="yes"/>
      <point x="295" y="266"/>
      <point x="295" y="78"/>
      <point x="295" y="172" type="qcurve" smooth="yes"/>
    </contour>
  </outline>
</glyph>
<glyph name="ampersand" format="2">
  <advance width="512"/>
  <unicode hex="0026"/>
  <outline>
    <contour>
      <point x="115" y="195" type="qcurve" smooth="yes"/>
      <point x="115" y="84"/>
      <point x="244" y="84" type="qcurve" smooth="yes"/>
      <point x="297" y="84"/>
      <point x="340" y="99" type="qcurve"/>
      <point x="340" y="351" type="line"/>
      <point x="319" y="360"/>
      <point x="261" y="391" type="qcurve"/>
      <point x="115" y="285"/>
    </contour>
    <contour>
      <point x="74" y="617" type="qcurve" smooth="yes"/>
      <point x="74" y="688"/>
      <point x="170" y="776"/>
      <point x="251" y="776" type="qcurve" smooth="yes"/>
      <point x="311" y="776"/>
      <point x="364" y="766" type="qcurve"/>
      <point x="364" y="689" type="line"/>
      <point x="306" y="705"/>
      <point x="251" y="705" type="qcurve" smooth="yes"/>
      <point x="208" y="705"/>
      <point x="159" y="659"/>
      <point x="159" y="621" type="qcurve" smooth="yes"/>
      <point x="159" y="572"/>
      <point x="232" y="496"/>
      <point x="340" y="442" type="qcurve"/>
      <point x="340" y="571" type="line"/>
      <point x="425" y="571" type="line"/>
      <point x="425" y="404" type="line"/>
      <point x="494" y="375" type="line"/>
      <point x="494" y="283" type="line"/>
      <point x="425" y="312" type="line"/>
      <point x="425" y="35" type="line"/>
      <point x="332" y="8"/>
      <point x="244" y="8" type="qcurve" smooth="yes"/>
      <point x="138" y="8"/>
      <point x="29" y="105"/>
      <point x="29" y="198" type="qcurve" smooth="yes"/>
      <point x="29" y="253"/>
      <point x="104" y="366"/>
      <point x="191" y="434" type="qcurve"/>
      <point x="128" y="479"/>
      <point x="75" y="565"/>
    </contour>
  </outline>
</glyph>
<glyph name="quotesingle" format="2">
  <advance width="512"/>
  <unicode hex="0027"/>
  <outline>
    <contour>
      <point x="200" y="817" type="line"/>
      <point x="312" y="817" type="line"/>
      <point x="287" y="530" type="line"/>
      <point x="225" y="530" type="line"/>
    </contour>
  </outline>
</glyph>
<glyph name="parenleft" format="2">
  <advance width="512"/>
  <unicode hex="0028"/>
  <outline>
    <contour>
      <point x="128" y="623"/>
      <point x="327" y="807" type="qcurve"/>
      <point x="404" y="807" type="line"/>
      <point x="204" y="618"/>
      <point x="204" y="63"/>
      <point x="404" y="-125" type="qcurve"/>
      <point x="327" y="-125" type="line"/>
      <point x="128" y="59"/>
    </contour>
  </outline>
</glyph>
<glyph name="parenright" format="2">
  <advance width="512"/>
  <unicode hex="0029"/>
  <outline>
    <contour>
      <point x="384" y="59"/>
      <point x="185" y="-125" type="qcurve"/>
      <point x="108" y="-125" type="line"/>
      <point x="308" y="63"/>
      <point x="308" y="618"/>
      <point x="108" y="807" type="qcurve"/>
      <point x="185" y="807" type="line"/>
      <point x="384" y="623"/>
    </contour>
  </outline>
</glyph>
<glyph name="asterisk" format="2">
  <advance width="512"/>
  <unicode hex="002A"/>
  <outline>
    <contour>
      <point x="219" y="786" type="line"/>
      <point x="293" y="786" type="line"/>
      <point x="290" y="613" type="line"/>
      <point x="454" y="670" type="line"/>
      <point x="476" y="600" type="line"/>
      <point x="311" y="549" type="line"/>
      <point x="415" y="411" type="line"/>
      <point x="355" y="368" type="line"/>
      <point x="256" y="509" type="line"/>
      <point x="157" y="368" type="line"/>
      <point x="97" y="411" type="line"/>
      <point x="201" y="549" type="line"/>
      <point x="36" y="600" type="line"/>
      <point x="58" y="670" type="line"/>
      <point x="222" y="613" type="line"/>
    </contour>
  </outline>
</glyph>
<glyph name="plus" format="2">
  <advance width="512"/>
  <unicode hex="002B"/>
  <outline>
    <contour>
      <point x="298" y="587" type="line"/>
      <point x="298" y="368" type="line"/>
      <point x="451" y="368" type="line"/>
      <point x="451" y="294" type="line"/>
      <point x="298" y="294" type="line"/>
      <point x="298" y="75" type="line"/>
      <point x="214" y="75" type="line"/>
      <point x="214" y="294" type="line"/>
      <point x="61" y="294" type="line"/>
      <point x="61" y="368" type="line"/>
      <point x="214" y="368" type="line"/>
      <point x="214" y="587" type="line"/>
    </contour>
  </outline>
</glyph>
<glyph name="comma" format="2">
  <advance width="512"/>
  <unicode hex="002C"/>
  <outline>
    <contour>
      <point x="215" y="172" type="line"/>
      <point x="338" y="172" type="line"/>
      <point x="225" y="-115" type="line"/>
      <point x="154" y="-115" type="line"/>
    </contour>
  </outline>
</glyph>
<glyph name="hyphen" format="2">
  <advance width="512"/>
  <unicode hex="002D"/>
  <outline>
    <contour>
      <point x="102" y="294" type="line"/>
      <point x="102" y="368" type="line"/>
      <point x="410" y="368" type="line"/>
      <point x="410" y="294" type="line"/>
    </contour>
  </outline>
</glyph>
<glyph name="period" format="2">
  <advance width="512"/>
  <unicode hex="002E"/>
  <outline>
    <contour>
      <point x="189" y="18" type="line"/>
      <point x="189" y="172" type="line"/>
      <point x="323" y="172" type="line"/>
      <point x="323" y="18" type="line"/>
    </contour>
  </outline>
</glyph>
<glyph name="slash" format="2">
  <advance width="512"/>
  <unicode hex="002F"/>
  <outline>
    <contour>
      <point x="463" y="766" type="line"/>
      <point x="123" y="-23" type="line"/>
      <point x="49" y="-23" type="line"/>
      <point x="389" y="766" type="line"/>
    </contour>
  </outline>
</glyph>
<glyph name="zero" format="2">
  <advance width="512"/>
  <unicode hex="0030"/>
  <outline>
    <contour>
      <point x="305" y="776"/>
      <point x="375" y="739"/>
      <point x="426" y="653"/>
      <point x="451" y="503"/>
      <point x="451" y="393" type="qcurve" smooth="yes"/>
      <point x="451" y="282"/>
      <point x="426" y="131"/>
      <point x="375" y="45"/>
      <point x="305" y="8"/>
      <point x="256" y="8" type="qcurve" smooth="yes"/>
      <point x="207" y="8"/>
      <point x="137" y="45"/>
      <point x="86" y="131"/>
      <point x="61" y="282"/>
      <point x="61" y="393" type="qcurve" smooth="yes"/>
      <point x="61" y="503"/>
      <point x="86" y="653"/>
      <point x="137" y="739"/>
      <point x="207" y="776"/>
      <point x="256" y="776" type="qcurve" smooth="yes"/>
    </contour>
    <contour>
      <point x="145" y="273" type="qcurve"/>
      <point x="346" y="621" type="line"/>
      <point x="319" y="705"/>
      <point x="256" y="705" type="qcurve" smooth="yes"/>
      <point x="219" y="705"/>
      <point x="170" y="651"/>
      <point x="141" y="510"/>
      <point x="141" y="392" type="qcurve" smooth="yes"/>
      <point x="141" y="341"/>
    </contour>
    <contour>
      <point x="162" y="177" type="line"/>
      <point x="188" y="80"/>
      <point x="256" y="80" type="qcurve" smooth="yes"/>
      <point x="293" y="80"/>
      <point x="342" y="133"/>
      <point x="371" y="274"/>
      <point x="371" y="392" type="qcurve" smooth="yes"/>
      <point x="371" y="472"/>
      <point x="365" y="528" type="qcurve"/>
    </contour>
  </outline>
</glyph>
<glyph name="one" format="2">
  <advance width="512"/>
  <unicode hex="0031"/>
  <outline>
    <contour>
      <point x="264" y="18" type="line"/>
      <point x="264" y="679" type="line"/>
      <point x="262" y="680" type="line"/>
      <point x="85" y="577" type="line"/>
      <point x="85" y="658" type="line"/>
      <point x="264" y="766" type="line"/>
      <point x="348" y="766" type="line"/>
      <point x="348" y="18" type="line"/>
    </contour>
  </outline>
</glyph>
<glyph name="two" format="2">
  <advance width="512"/>
  <unicode hex="0032"/>
  <outline>
    <contour>
      <point x="179" y="94" type="qcurve"/>
      <point x="179" y="92" type="line"/>
      <point x="430" y="92" type="line"/>
      <point x="430" y="18" type="line"/>
      <point x="82" y="18" type="line"/>
      <point x="82" y="92" type="line"/>
      <point x="339" y="387"/>
      <point x="339" y="582" type="qcurve" smooth="yes"/>
      <point x="339" y="700"/>
      <point x="244" y="700" type="qcurve" smooth="yes"/>
      <point x="213" y="700"/>
      <point x="119" y="654"/>
      <point x="82" y="621" type="qcurve"/>
      <point x="82" y="710" type="line"/>
      <point x="159" y="776"/>
      <point x="256" y="776" type="qcurve" smooth="yes"/>
      <point x="343" y="776"/>
      <point x="425" y="680"/>
      <point x="425" y="582" type="qcurve" smooth="yes"/>
      <point x="425" y="480"/>
      <point x="314" y="257"/>
    </contour>
  </outline>
</glyph>
<glyph name="three" format="2">
  <advance width="512"/>
  <unicode hex="0033"/>
  <outline>
    <contour>
      <point x="338" y="690" type="line"/>
      <point x="338" y="692" type="line"/>
      <point x="82" y="692" type="line"/>
      <point x="82" y="766" type="line"/>
      <point x="435" y="766" type="line"/>
      <point x="435" y="692" type="line"/>
      <point x="251" y="458" type="line"/>
      <point x="251" y="456" type="line"/>
      <point x="261" y="456" type="line" smooth="yes"/>
      <point x="354" y="456"/>
      <point x="440" y="351"/>
      <point x="440" y="233" type="qcurve" smooth="yes"/>
      <point x="440" y="8"/>
      <point x="241" y="8" type="qcurve" smooth="yes"/>
      <point x="166" y="8"/>
      <point x="92" y="39" type="qcurve"/>
      <point x="92" y="128" type="line"/>
      <point x="171" y="84"/>
      <point x="225" y="84" type="qcurve" smooth="yes"/>
      <point x="291" y="84"/>
      <point x="354" y="155"/>
      <point x="354" y="233" type="qcurve" smooth="yes"/>
      <point x="354" y="325"/>
      <point x="303" y="382"/>
      <point x="225" y="382" type="qcurve" smooth="yes"/>
      <point x="154" y="382" type="line"/>
      <point x="154" y="456" type="line"/>
    </contour>
  </outline>
</glyph>
<glyph name="four" format="2">
  <advance width="512"/>
  <unicode hex="0034"/>
  <outline>
    <contour>
      <point x="300" y="623" type="line"/>
      <point x="298" y="623" type="line"/>
      <point x="119" y="273" type="line"/>
      <point x="119" y="271" type="line"/>
      <point x="300" y="271" type="line"/>
    </contour>
    <contour>
      <point x="300" y="198" type="line"/>
      <point x="41" y="198" type="line"/>
      <point x="41" y="282" type="line"/>
      <point x="290" y="766" type="line"/>
      <point x="384" y="766" type="line"/>
      <point x="384" y="271" type="line"/>
      <point x="471" y="271" type="line"/>
      <point x="471" y="198" type="line"/>
      <point x="384" y="198" type="line"/>
      <point x="384" y="18" type="line"/>
      <point x="300" y="18" type="line"/>
    </contour>
  </outline>
</glyph>
<glyph name="five" format="2">
  <advance width="512"/>
  <unicode hex="0035"/>
  <outline>
    <contour>
      <point x="184" y="459" type="line"/>
      <point x="186" y="459" type="line"/>
      <point x="220" y="489"/>
      <point x="276" y="489" type="qcurve" smooth="yes"/>
      <point x="440" y="489"/>
      <point x="440" y="254" type="qcurve" smooth="yes"/>
      <point x="440" y="126"/>
      <point x="339" y="8"/>
      <point x="241" y="8" type="qcurve" smooth="yes"/>
      <point x="165" y="8"/>
      <point x="92" y="39" type="qcurve"/>
      <point x="92" y="128" type="line"/>
      <point x="169" y="84"/>
      <point x="236" y="84" type="qcurve" smooth="yes"/>
      <point x="354" y="84"/>
      <point x="354" y="254" type="qcurve" smooth="yes"/>
      <point x="354" y="414"/>
      <point x="256" y="414" type="qcurve" smooth="yes"/>
      <point x="209" y="414"/>
      <point x="174" y="372" type="qcurve"/>
      <point x="97" y="372" type="line"/>
      <point x="108" y="766" type="line"/>
      <point x="420" y="766" type="line"/>
      <point x="420" y="692" type="line"/>
      <point x="191" y="692" type="line"/>
    </contour>
  </outline>
</glyph>
<glyph name="six" format="2">
  <advance width="512"/>
  <unicode hex="0036"/>
  <outline>
    <contour>
      <point x="292" y="776" type="qcurve" smooth="yes"/>
      <point x="354" y="776"/>
      <point x="410" y="756" type="qcurve"/>
      <point x="410" y="677" type="line"/>
      <point x="358" y="702"/>
      <point x="302" y="702" type="qcurve" smooth="yes"/>
      <point x="230" y="702"/>
      <point x="167" y="603"/>
      <point x="159" y="464" type="qcurve"/>
      <point x="161" y="464" type="line"/>
      <point x="212" y="515"/>
      <point x="276" y="515" type="qcurve" smooth="yes"/>
      <point x="366" y="515"/>
      <point x="451" y="400"/>
      <point x="451" y="269" type="qcurve" smooth="yes"/>
      <point x="451" y="132"/>
      <point x="355" y="8"/>
      <point x="261" y="8" type="qcurve" smooth="yes"/>
      <point x="195" y="8"/>
      <point x="115" y="67"/>
      <point x="72" y="216"/>
      <point x="72" y="346" type="qcurve" smooth="yes"/>
      <point x="72" y="508"/>
      <point x="124" y="700"/>
      <point x="217" y="776"/>
    </contour>
    <contour>
      <point x="261" y="82" type="qcurve" smooth="yes"/>
      <point x="316" y="82"/>
      <point x="367" y="162"/>
      <point x="367" y="269" type="qcurve" smooth="yes"/>
      <point x="367" y="366"/>
      <point x="318" y="443"/>
      <point x="266" y="443" type="qcurve" smooth="yes"/>
      <point x="158" y="443"/>
      <point x="158" y="280" type="qcurve" smooth="yes"/>
      <point x="158" y="170"/>
      <point x="209" y="82"/>
    </contour>
  </outline>
</glyph>
<glyph name="seven" format="2">
  <advance width="512"/>
  <unicode hex="0037"/>
  <outline>
    <contour>
      <point x="353" y="690" type="qcurve"/>
      <point x="353" y="692" type="line"/>
      <point x="77" y="692" type="line"/>
      <point x="77" y="766" type="line"/>
      <point x="435" y="766" type="line"/>
      <point x="435" y="692" type="line"/>
      <point x="304" y="389"/>
      <point x="220" y="18" type="qcurve"/>
      <point x="130" y="18" type="line"/>
      <point x="216" y="380"/>
    </contour>
  </outline>
</glyph>
<glyph name="eight" format="2">
  <advance width="512"/>
  <unicode hex="0038"/>
  <outline>
    <contour>
      <point x="261" y="705" type="qcurve" smooth="yes"/>
      <point x="207" y="705"/>
      <point x="148" y="648"/>
      <point x="148" y="597" type="qcurve" smooth="yes"/>
      <point x="148" y="542"/>
      <point x="208" y="460"/>
      <point x="256" y="449" type="qcurve"/>
      <point x="309" y="463"/>
      <point x="368" y="540"/>
      <point x="368" y="597" type="qcurve" smooth="yes"/>
      <point x="368" y="645"/>
      <point x="309" y="705"/>
    </contour>
    <contour>
      <point x="158" y="8"/>
      <point x="51" y="113"/>
      <point x="51" y="213" type="qcurve" smooth="yes"/>
      <point x="51" y="283"/>
      <point x="119" y="387"/>
      <point x="179" y="412" type="qcurve"/>
      <point x="179" y="414" type="line"/>
      <point x="130" y="437"/>
      <point x="67" y="541"/>
      <point x="67" y="597" type="qcurve" smooth="yes"/>
      <point x="67" y="681"/>
      <point x="167" y="776"/>
      <point x="345" y="776"/>
      <point x="445" y="680"/>
      <point x="445" y="597" type="qcurve" smooth="yes"/>
      <point x="445" y="540"/>
      <point x="383" y="442"/>
      <point x="333" y="419" type="qcurve"/>
      <point x="333" y="417" type="line"/>
      <point x="393" y="393"/>
      <point x="461" y="287"/>
      <point x="461" y="213" type="qcurve" smooth="yes"/>
      <point x="461" y="113"/>
      <point x="354" y="8"/>
    </contour>
    <contour>
      <point x="261" y="80" type="qcurve" smooth="yes"/>
      <point x="315" y="80"/>
      <point x="379" y="148"/>
      <point x="379" y="213" type="qcurve" smooth="yes"/>
      <point x="379" y="346"/>
      <point x="251" y="377" type="qcurve"/>
      <point x="188" y="360"/>
      <point x="129" y="282"/>
      <point x="129" y="213" type="qcurve" smooth="yes"/>
      <point x="129" y="150"/>
      <point x="201" y="80"/>
    </contour>
  </outline>
</glyph>
<glyph name="nine" format="2">
  <advance width="512"/>
  <unicode hex="0039"/>
  <outline>
    <contour>
      <point x="220" y="8" type="qcurve" smooth="yes"/>
      <point x="158" y="8"/>
      <point x="102" y="29" type="qcurve"/>
      <point x="102" y="111" type="line"/>
      <point x="156" y="84"/>
      <point x="210" y="84" type="qcurve" smooth="yes"/>
      <point x="282" y="84"/>
      <point x="345" y="181"/>
      <point x="353" y="321" type="qcurve"/>
      <point x="351" y="321" type="line"/>
      <point x="300" y="269"/>
      <point x="236" y="269" type="qcurve" smooth="yes"/>
      <point x="150" y="269"/>
      <point x="61" y="390"/>
      <point x="61" y="525" type="qcurve" smooth="yes"/>
      <point x="61" y="654"/>
      <point x="156" y="776"/>
      <point x="251" y="776" type="qcurve" smooth="yes"/>
      <point x="321" y="776"/>
      <point x="400" y="719"/>
      <point x="440" y="570"/>
      <point x="440" y="438" type="qcurve" smooth="yes"/>
      <point x="440" y="276"/>
      <point x="388" y="84"/>
      <point x="295" y="8"/>
    </contour>
    <contour>
      <point x="251" y="702" type="qcurve" smooth="yes"/>
      <point x="195" y="702"/>
      <point x="145" y="625"/>
      <point x="145" y="426"/>
      <point x="197" y="341"/>
      <point x="246" y="341" type="qcurve" smooth="yes"/>
      <point x="296" y="341"/>
      <point x="354" y="426"/>
      <point x="354" y="515" type="qcurve" smooth="yes"/>
      <point x="354" y="617"/>
      <point x="303" y="702"/>
    </contour>
  </outline>
</glyph>
<glyph name="colon" format="2">
  <advance width="512"/>
  <unicode hex="003A"/>
  <outline>
    <contour>
      <point x="195" y="418" type="line"/>
      <point x="195" y="571" type="line"/>
      <point x="317" y="571" type="line"/>
      <point x="317" y="418" type="line"/>
    </contour>
    <contour>
      <point x="195" y="18" type="line"/>
      <point x="195" y="172" type="line"/>
      <point x="317" y="172" type="line"/>
      <point x="317" y="18" type="line"/>
    </contour>
  </outline>
</glyph>
<glyph name="semicolon" format="2">
  <advance width="512"/>
  <unicode hex="003B"/>
  <outline>
    <contour>
      <point x="205" y="172" type="line"/>
      <point x="328" y="172" type="line"/>
      <point x="215" y="-115" type="line"/>
      <point x="143" y="-115" type="line"/>
    </contour>
    <contour>
      <point x="205" y="418" type="line"/>
      <point x="205" y="571" type="line"/>
      <point x="328" y="571" type="line"/>
      <point x="328" y="418" type="line"/>
    </contour>
  </outline>
</glyph>
<glyph name="equal" format="2">
  <advance width="512"/>
  <unicode hex="003D"/>
  <outline>
    <contour>
      <point x="61" y="400" type="line"/>
      <point x="61" y="474" type="line"/>
      <point x="451" y="474" type="line"/>
      <point x="451" y="400" type="line"/>
    </contour>
    <contour>
      <point x="61" y="187" type="line"/>
      <point x="61" y="261" type="line"/>
      <point x="451" y="261" type="line"/>
      <point x="451" y="187" type="line"/>
    </contour>
  </outline>
</glyph>
<glyph name="question" format="2">
  <advance width="512"/>
  <unicode hex="003F"/>
  <outline>
    <contour>
      <point x="456" y="612" type="qcurve" smooth="yes"/>
      <point x="456" y="570"/>
      <point x="427" y="497"/>
      <point x="397" y="458"/>
      <point x="369" y="427" type="qcurve" smooth="yes"/>
      <point x="339" y="393"/>
      <point x="310" y="354"/>
      <point x="282" y="281"/>
      <point x="282" y="239" type="qcurve"/>
      <point x="200" y="239" type="line"/>
      <point x="200" y="295"/>
      <point x="233" y="390"/>
      <point x="266" y="434"/>
      <point x="298" y="470" type="qcurve" smooth="yes"/>
      <point x="323" y="498"/>
      <point x="347" y="529"/>
      <point x="370" y="583"/>
      <point x="370" y="612" type="qcurve" smooth="yes"/>
      <point x="370" y="654"/>
      <point x="309" y="700"/>
      <point x="251" y="700" type="qcurve" smooth="yes"/>
      <point x="164" y="700"/>
      <point x="67" y="638" type="qcurve"/>
      <point x="67" y="730" type="line"/>
      <point x="162" y="776"/>
      <point x="261" y="776" type="qcurve" smooth="yes"/>
      <point x="354" y="776"/>
      <point x="456" y="690"/>
    </contour>
    <contour>
      <point x="184" y="18" type="line"/>
      <point x="184" y="152" type="line"/>
      <point x="297" y="152" type="line"/>
      <point x="297" y="18" type="line"/>
    </contour>
  </outline>
</glyph>
<glyph name="at" format="2">
  <advance width="512"/>
  <unicode hex="0040"/>
  <outline>
    <contour>
      <point x="384" y="283" type="qcurve"/>
      <point x="384" y="454" type="line" smooth="yes"/>
      <point x="384" y="496"/>
      <point x="351" y="541"/>
      <point x="323" y="541" type="qcurve" smooth="yes"/>
      <point x="282" y="541"/>
      <point x="249" y="480"/>
      <point x="249" y="392" type="qcurve" smooth="yes"/>
      <point x="249" y="308"/>
      <point x="284" y="244"/>
      <point x="323" y="244" type="qcurve" smooth="yes"/>
      <point x="368" y="244"/>
    </contour>
    <contour>
      <point x="169" y="392" type="qcurve" smooth="yes"/>
      <point x="169" y="612"/>
      <point x="312" y="612" type="qcurve" smooth="yes"/>
      <point x="351" y="612"/>
      <point x="387" y="587" type="qcurve"/>
      <point x="389" y="587" type="line"/>
      <point x="389" y="592" type="line" smooth="yes"/>
      <point x="389" y="643"/>
      <point x="333" y="702"/>
      <point x="287" y="702" type="qcurve" smooth="yes"/>
      <point x="202" y="702"/>
      <point x="118" y="558"/>
      <point x="118" y="392" type="qcurve" smooth="yes"/>
      <point x="118" y="222"/>
      <point x="200" y="82"/>
      <point x="287" y="82" type="qcurve" smooth="yes"/>
      <point x="350" y="82"/>
      <point x="415" y="121" type="qcurve"/>
      <point x="415" y="39" type="line"/>
      <point x="354" y="8"/>
      <point x="282" y="8" type="qcurve" smooth="yes"/>
      <point x="157" y="8"/>
      <point x="36" y="184"/>
      <point x="36" y="392" type="qcurve" smooth="yes"/>
      <point x="36" y="594"/>
      <point x="160" y="776"/>
      <point x="282" y="776" type="qcurve" smooth="yes"/>
      <point x="371" y="776"/>
      <point x="466" y="674"/>
      <point x="466" y="571" type="qcurve" smooth="yes"/>
      <point x="466" y="239" type="line"/>
      <point x="399" y="172"/>
      <point x="323" y="172" type="qcurve" smooth="yes"/>
      <point x="245" y="172"/>
      <point x="169" y="272"/>
    </contour>
  </outline>
</glyph>
<glyph name="A" format="2">
  <advance width="512"/>
  <unicode hex="0041"/>
  <outline>
    <contour>
      <point x="255" y="694" type="line"/>
      <point x="253" y="694" type="line"/>
      <point x="168" y="305" type="line"/>
      <point x="340" y="305" type="line"/>
    </contour>
    <contour>
      <point x="356" y="233" type="line"/>
      <point x="152" y="233" type="line"/>
      <point x="104" y="18" type="line"/>
      <point x="20" y="18" type="line"/>
      <point x="205" y="766" type="line"/>
      <point x="307" y="766" type="line"/>
      <point x="492" y="18" type="line"/>
      <point x="403" y="18" type="line"/>
    </contour>
  </outline>
</glyph>
<glyph name="B" format="2">
  <advance width="512"/>
  <unicode hex="0042"/>
  <outline>
    <contour>
      <point x="161" y="459" type="line"/>
      <point x="207" y="459" type="line" smooth="yes"/>
      <point x="289" y="459"/>
      <point x="364" y="519"/>
      <point x="364" y="582" type="qcurve" smooth="yes"/>
      <point x="364" y="640"/>
      <point x="290" y="705"/>
      <point x="222" y="705" type="qcurve" smooth="yes"/>
      <point x="185" y="705"/>
      <point x="161" y="696" type="qcurve"/>
    </contour>
    <contour>
      <point x="161" y="387" type="line"/>
      <point x="161" y="88" type="line"/>
      <point x="199" y="80"/>
      <point x="253" y="80" type="qcurve" smooth="yes"/>
      <point x="382" y="80"/>
      <point x="382" y="244" type="qcurve" smooth="yes"/>
      <point x="382" y="387"/>
      <point x="217" y="387" type="qcurve" smooth="yes"/>
    </contour>
    <contour>
      <point x="466" y="233" type="qcurve" smooth="yes"/>
      <point x="466" y="8"/>
      <point x="236" y="8" type="qcurve" smooth="yes"/>
      <point x="154" y="8"/>
      <point x="77" y="24" type="qcurve"/>
      <point x="77" y="761" type="line"/>
      <point x="154" y="776"/>
      <point x="236" y="776" type="qcurve" smooth="yes"/>
      <point x="445" y="776"/>
      <point x="445" y="592" type="qcurve" smooth="yes"/>
      <point x="445" y="529"/>
      <point x="383" y="443"/>
      <point x="328" y="429" type="qcurve"/>
      <point x="328" y="427" type="line"/>
      <point x="387" y="416"/>
      <point x="466" y="307"/>
    </contour>
  </outline>
</glyph>
<glyph name="C" format="2">
  <advance width="512"/>
  <unicode hex="0043"/>
  <outline>
    <contour>
      <point x="56" y="392" type="qcurve" smooth="yes"/>
      <point x="56" y="594"/>
      <point x="180" y="776"/>
      <point x="302" y="776" type="qcurve" smooth="yes"/>
      <point x="370" y="776"/>
      <point x="430" y="745" type="qcurve"/>
      <point x="430" y="669" type="line"/>
      <point x="369" y="702"/>
      <point x="307" y="702" type="qcurve" smooth="yes"/>
      <point x="138" y="702"/>
      <point x="138" y="392" type="qcurve" smooth="yes"/>
      <point x="138" y="224"/>
      <point x="224" y="82"/>
      <point x="307" y="82" type="qcurve" smooth="yes"/>
      <point x="371" y="82"/>
      <point x="435" y="121" type="qcurve"/>
      <point x="435" y="39" type="line"/>
      <point x="375" y="8"/>
      <point x="302" y="8" type="qcurve" smooth="yes"/>
      <point x="177" y="8"/>
      <point x="56" y="184"/>
    </contour>
  </outline>
</glyph>
<glyph name="D" format="2">
  <advance width="512"/>
  <unicode hex="0044"/>
  <outline>
    <contour>
      <point x="392" y="392" type="qcurve" smooth="yes"/>
      <point x="392" y="564"/>
      <point x="303" y="702"/>
      <point x="207" y="702" type="qcurve" smooth="yes"/>
      <point x="173" y="702"/>
      <point x="151" y="694" type="qcurve"/>
      <point x="151" y="90" type="line"/>
      <point x="173" y="82"/>
      <point x="207" y="82" type="qcurve" smooth="yes"/>
      <point x="273" y="82"/>
      <point x="350" y="132"/>
      <point x="392" y="269"/>
    </contour>
    <contour>
      <point x="476" y="392" type="qcurve" smooth="yes"/>
      <point x="476" y="180"/>
      <point x="346" y="8"/>
      <point x="207" y="8" type="qcurve" smooth="yes"/>
      <point x="135" y="8"/>
      <point x="67" y="24" type="qcurve"/>
      <point x="67" y="761" type="line"/>
      <point x="135" y="776"/>
      <point x="207" y="776" type="qcurve" smooth="yes"/>
      <point x="347" y="776"/>
      <point x="476" y="601"/>
    </contour>
  </outline>
</glyph>
<glyph name="E" format="2">
  <advance width="512"/>
  <unicode hex="0045"/>
  <outline>
    <contour>
      <point x="166" y="692" type="line"/>
      <point x="166" y="459" type="line"/>
      <point x="420" y="459" type="line"/>
      <point x="420" y="387" type="line"/>
      <point x="166" y="387" type="line"/>
      <point x="166" y="92" type="line"/>
      <point x="430" y="92" type="line"/>
      <point x="430" y="18" type="line"/>
      <point x="82" y="18" type="line"/>
      <point x="82" y="766" type="line"/>
      <point x="430" y="766" type="line"/>
      <point x="430" y="692" type="line"/>
    </contour>
  </outline>
</glyph>
<glyph name="F" format="2">
  <advance width="512"/>
  <unicode hex="0046"/>
  <outline>
    <contour>
      <point x="176" y="387" type="line"/>
      <point x="176" y="18" type="line"/>
      <point x="92" y="18" type="line"/>
      <point x="92" y="766" type="line"/>
      <point x="430" y="766" type="line"/>
      <point x="430" y="692" type="line"/>
      <point x="176" y="692" type="line"/>
      <point x="176" y="459" type="line"/>
      <point x="420" y="459" type="line"/>
      <point x="420" y="387" type="line"/>
    </contour>
  </outline>
</glyph>
<glyph name="G" format="2">
  <advance width="512"/>
  <unicode hex="0047"/>
  <outline>
    <contour>
      <point x="379" y="105" type="qcurve"/>
      <point x="379" y="387" type="line"/>
      <point x="220" y="387" type="line"/>
      <point x="220" y="459" type="line"/>
      <point x="461" y="459" type="line"/>
      <point x="461" y="49" type="line"/>
      <point x="379" y="8"/>
      <point x="287" y="8" type="qcurve" smooth="yes"/>
      <point x="166" y="8"/>
      <point x="41" y="190"/>
      <point x="41" y="392" type="qcurve" smooth="yes"/>
      <point x="41" y="593"/>
      <point x="171" y="776"/>
      <point x="302" y="776" type="qcurve" smooth="yes"/>
      <point x="362" y="776"/>
      <point x="435" y="751" type="qcurve"/>
      <point x="435" y="672" type="line"/>
      <point x="368" y="702"/>
      <point x="302" y="702" type="qcurve" smooth="yes"/>
      <point x="213" y="702"/>
      <point x="121" y="555"/>
      <point x="121" y="392" type="qcurve" smooth="yes"/>
      <point x="121" y="82"/>
      <point x="292" y="82" type="qcurve" smooth="yes"/>
      <point x="338" y="82"/>
    </contour>
  </outline>
</glyph>
<glyph name="H" format="2">
  <advance width="512"/>
  <unicode hex="0048"/>
  <outline>
    <contour>
      <point x="143" y="766" type="line"/>
      <point x="143" y="461" type="line"/>
      <point x="365" y="461" type="line"/>
      <point x="365" y="766" type="line"/>
      <point x="451" y="766" type="line"/>
      <point x="451" y="18" type="line"/>
      <point x="365" y="18" type="line"/>
      <point x="365" y="387" type="line"/>
      <point x="143" y="387" type="line"/>
      <point x="143" y="18" type="line"/>
      <point x="61" y="18" type="line"/>
      <point x="61" y="766" type="line"/>
    </contour>
  </outline>
</glyph>
<glyph name="I" format="2">
  <advance width="512"/>
  <unicode hex="0049"/>
  <outline>
    <contour>
      <point x="420" y="18" type="line"/>
      <point x="92" y="18" type="line"/>
      <point x="92" y="90" type="line"/>
      <point x="213" y="90" type="line"/>
      <point x="213" y="694" type="line"/>
      <point x="92" y="694" type="line"/>
      <point x="92" y="766" type="line"/>
      <point x="420" y="766" type="line"/>
      <point x="420" y="694" type="line"/>
      <point x="299" y="694" type="line"/>
      <point x="299" y="90" type="line"/>
      <point x="420" y="90" type="line"/>
    </contour>
  </outline>
</glyph>
<glyph name="J" format="2">
  <advance width="512"/>
  <unicode hex="004A"/>
  <outline>
    <contour>
      <point x="410" y="766" type="line"/>
      <point x="410" y="213" type="line" smooth="yes"/>
      <point x="410" y="100"/>
      <point x="321" y="8"/>
      <point x="215" y="8" type="qcurve" smooth="yes"/>
      <point x="131" y="8"/>
      <point x="61" y="39" type="qcurve"/>
      <point x="61" y="128" type="line"/>
      <point x="91" y="111"/>
      <point x="186" y="82"/>
      <point x="215" y="82" type="qcurve" smooth="yes"/>
      <point x="269" y="82"/>
      <point x="323" y="144"/>
      <point x="323" y="215" type="qcurve" smooth="yes"/>
      <point x="323" y="694" type="line"/>
      <point x="154" y="694" type="line"/>
      <point x="154" y="766" type="line"/>
    </contour>
  </outline>
</glyph>
<glyph name="K" format="2">
  <advance width="512"/>
  <unicode hex="004B"/>
  <outline>
    <contour>
      <point x="161" y="428" type="line"/>
      <point x="163" y="428" type="line"/>
      <point x="374" y="766" type="line"/>
      <point x="471" y="766" type="line"/>
      <point x="241" y="408" type="line"/>
      <point x="476" y="18" type="line"/>
      <point x="379" y="18" type="line"/>
      <point x="163" y="387" type="line"/>
      <point x="161" y="387" type="line"/>
      <point x="161" y="18" type="line"/>
      <point x="77" y="18" type="line"/>
      <point x="77" y="766" type="line"/>
      <point x="161" y="766" type="line"/>
    </contour>
  </outline>
</glyph>
<glyph name="L" format="2">
  <advance width="512"/>
  <unicode hex="004C"/>
  <outline>
    <contour>
      <point x="186" y="766" type="line"/>
      <point x="186" y="92" type="line"/>
      <point x="430" y="92" type="line"/>
      <point x="430" y="18" type="line"/>
      <point x="102" y="18" type="line"/>
      <point x="102" y="766" type="line"/>
    </contour>
  </outline>
</glyph>
<glyph name="M" format="2">
  <advance width="512"/>
  <unicode hex="004D"/>
  <outline>
    <contour>
      <point x="387" y="571" type="line"/>
      <point x="385" y="571" type="line"/>
      <point x="295" y="223" type="line"/>
      <point x="213" y="223" type="line"/>
      <point x="123" y="571" type="line"/>
      <point x="121" y="571" type="line"/>
      <point x="121" y="18" type="line"/>
      <point x="41" y="18" type="line"/>
      <point x="41" y="766" type="line"/>
      <point x="135" y="766" type="line"/>
      <point x="257" y="305" type="line"/>
      <point x="259" y="305" type="line"/>
      <point x="381" y="766" type="line"/>
      <point x="471" y="766" type="line"/>
      <point x="471" y="18" type="line"/>
      <point x="387" y="18" type="line"/>
    </contour>
  </outline>
</glyph>
<glyph name="N" format="2">
  <advance width="512"/>
  <unicode hex="004E"/>
  <outline>
    <contour>
      <point x="155" y="582" type="line"/>
      <point x="153" y="582" type="line"/>
      <point x="153" y="18" type="line"/>
      <point x="67" y="18" type="line"/>
      <point x="67" y="766" type="line"/>
      <point x="153" y="766" type="line"/>
      <point x="361" y="203" type="line"/>
      <point x="364" y="203" type="line"/>
      <point x="364" y="766" type="line"/>
      <point x="445" y="766" type="line"/>
      <point x="445" y="18" type="line"/>
      <point x="364" y="18" type="line"/>
    </contour>
  </outline>
</glyph>
<glyph name="O" format="2">
  <advance width="512"/>
  <unicode hex="004F"/>
  <outline>
    <contour>
      <point x="366" y="776"/>
      <point x="471" y="603"/>
      <point x="471" y="181"/>
      <point x="366" y="8"/>
      <point x="146" y="8"/>
      <point x="41" y="181"/>
      <point x="41" y="603"/>
      <point x="146" y="776"/>
    </contour>
    <contour>
      <point x="301" y="82"/>
      <point x="356" y="134"/>
      <point x="389" y="273"/>
      <point x="389" y="511"/>
      <point x="356" y="650"/>
      <point x="301" y="702"/>
      <point x="211" y="702"/>
      <point x="156" y="650"/>
      <point x="123" y="511"/>
      <point x="123" y="273"/>
      <point x="156" y="134"/>
      <point x="211" y="82"/>
    </contour>
  </outline>
</glyph>
<glyph name="P" format="2">
  <advance width="512"/>
  <unicode hex="0050"/>
  <outline>
    <contour>
      <point x="384" y="551" type="qcurve" smooth="yes"/>
      <point x="384" y="632"/>
      <point x="310" y="705"/>
      <point x="232" y="705" type="qcurve" smooth="yes"/>
      <point x="190" y="705"/>
      <point x="161" y="696" type="qcurve"/>
      <point x="161" y="397" type="line"/>
      <point x="191" y="392"/>
      <point x="232" y="392" type="qcurve" smooth="yes"/>
      <point x="311" y="392"/>
      <point x="384" y="465"/>
    </contour>
    <contour>
      <point x="466" y="551" type="qcurve" smooth="yes"/>
      <point x="466" y="428"/>
      <point x="358" y="321"/>
      <point x="243" y="321" type="qcurve" smooth="yes"/>
      <point x="207" y="321"/>
      <point x="161" y="326" type="qcurve"/>
      <point x="161" y="18" type="line"/>
      <point x="77" y="18" type="line"/>
      <point x="77" y="761" type="line"/>
      <point x="157" y="776"/>
      <point x="241" y="776" type="qcurve" smooth="yes"/>
      <point x="357" y="776"/>
      <point x="466" y="669"/>
    </contour>
  </outline>
</glyph>
<glyph name="Q" format="2">
  <advance width="512"/>
  <unicode hex="0051"/>
  <outline>
    <contour>
      <point x="366" y="776"/>
      <point x="471" y="603"/>
      <point x="471" y="392" type="qcurve" smooth="yes"/>
      <point x="471" y="113"/>
      <point x="369" y="40" type="qcurve"/>
      <point x="369" y="38" type="line"/>
      <point x="411" y="16"/>
      <point x="476" y="-76"/>
      <point x="492" y="-135" type="qcurve"/>
      <point x="401" y="-135" type="line"/>
      <point x="380" y="-55"/>
      <point x="312" y="8"/>
      <point x="256" y="8" type="qcurve" smooth="yes"/>
      <point x="146" y="8"/>
      <point x="41" y="181"/>
      <point x="41" y="603"/>
      <point x="146" y="776"/>
    </contour>
    <contour>
      <point x="301" y="82"/>
      <point x="356" y="134"/>
      <point x="389" y="273"/>
      <point x="389" y="511"/>
      <point x="356" y="650"/>
      <point x="301" y="702"/>
      <point x="211" y="702"/>
      <point x="156" y="650"/>
      <point x="123" y="511"/>
      <point x="123" y="273"/>
      <point x="156" y="134"/>
      <point x="211" y="82"/>
    </contour>
  </outline>
</glyph>
<glyph name="R" format="2">
  <advance width="512"/>
  <unicode hex="0052"/>
  <outline>
    <contour>
      <point x="379" y="571" type="qcurve" smooth="yes"/>
      <point x="379" y="705"/>
      <point x="227" y="705" type="qcurve" smooth="yes"/>
      <point x="185" y="705"/>
      <point x="156" y="696" type="qcurve"/>
      <point x="156" y="418" type="line"/>
      <point x="217" y="418" type="line" smooth="yes"/>
      <point x="306" y="418"/>
      <point x="379" y="486"/>
    </contour>
    <contour>
      <point x="156" y="346" type="line"/>
      <point x="156" y="18" type="line"/>
      <point x="72" y="18" type="line"/>
      <point x="72" y="761" type="line"/>
      <point x="152" y="776"/>
      <point x="236" y="776" type="qcurve" smooth="yes"/>
      <point x="350" y="776"/>
      <point x="461" y="675"/>
      <point x="461" y="571" type="qcurve" smooth="yes"/>
      <point x="461" y="425"/>
      <point x="349" y="374" type="qcurve"/>
      <point x="349" y="372" type="line"/>
      <point x="381" y="356"/>
      <point x="417" y="238" type="qcurve" smooth="yes"/>
      <point x="481" y="18" type="line"/>
      <point x="393" y="18" type="line"/>
      <point x="333" y="240" type="line" smooth="yes"/>
      <point x="315" y="305"/>
      <point x="266" y="346"/>
      <point x="207" y="346" type="qcurve" smooth="yes"/>
    </contour>
  </outline>
</glyph>
<glyph name="S" format="2">
  <advance width="512"/>
  <unicode hex="0053"/>
  <outline>
    <contour>
      <point x="266" y="702" type="qcurve" smooth="yes"/>
      <point x="218" y="702"/>
      <point x="156" y="640"/>
      <point x="156" y="592" type="qcurve" smooth="yes"/>
      <point x="156" y="541"/>
      <point x="200" y="474"/>
      <point x="251" y="451" type="qcurve" smooth="yes"/>
      <point x="365" y="400"/>
      <point x="451" y="291"/>
      <point x="451" y="203" type="qcurve" smooth="yes"/>
      <point x="451" y="106"/>
      <point x="345" y="8"/>
      <point x="246" y="8" type="qcurve" smooth="yes"/>
      <point x="153" y="8"/>
      <point x="77" y="65" type="qcurve"/>
      <point x="77" y="162" type="line"/>
      <point x="159" y="82"/>
      <point x="251" y="82" type="qcurve" smooth="yes"/>
      <point x="367" y="82"/>
      <point x="367" y="203" type="qcurve" smooth="yes"/>
      <point x="367" y="259"/>
      <point x="313" y="333"/>
      <point x="251" y="361" type="qcurve" smooth="yes"/>
      <point x="155" y="404"/>
      <point x="72" y="514"/>
      <point x="72" y="592" type="qcurve" smooth="yes"/>
      <point x="72" y="674"/>
      <point x="176" y="776"/>
      <point x="261" y="776" type="qcurve" smooth="yes"/>
      <point x="315" y="776"/>
      <point x="385" y="760"/>
      <point x="430" y="735" type="qcurve"/>
      <point x="430" y="643" type="line"/>
      <point x="351" y="702"/>
    </contour>
  </outline>
</glyph>
<glyph name="T" format="2">
  <advance width="512"/>
  <unicode hex="0054"/>
  <outline>
    <contour>
      <point x="214" y="18" type="line"/>
      <point x="214" y="694" type="line"/>
      <point x="56" y="694" type="line"/>
      <point x="56" y="766" type="line"/>
      <point x="456" y="766" type="line"/>
      <point x="456" y="694" type="line"/>
      <point x="298" y="694" type="line"/>
      <point x="298" y="18" type="line"/>
    </contour>
  </outline>
</glyph>
<glyph name="U" format="2">
  <advance width="512"/>
  <unicode hex="0055"/>
  <outline>
    <contour>
      <point x="159" y="8"/>
      <point x="61" y="108"/>
      <point x="61" y="213" type="qcurve" smooth="yes"/>
      <point x="61" y="766" type="line"/>
      <point x="147" y="766" type="line"/>
      <point x="147" y="233" type="line" smooth="yes"/>
      <point x="147" y="151"/>
      <point x="202" y="82"/>
      <point x="314" y="82"/>
      <point x="369" y="151"/>
      <point x="369" y="233" type="qcurve" smooth="yes"/>
      <point x="369" y="766" type="line"/>
      <point x="451" y="766" type="line"/>
      <point x="451" y="213" type="line" smooth="yes"/>
      <point x="451" y="108"/>
      <point x="353" y="8"/>
    </contour>
  </outline>
</glyph>
<glyph name="V" format="2">
  <advance width="512"/>
  <unicode hex="0056"/>
  <outline>
    <contour>
      <point x="259" y="90" type="line"/>
      <point x="397" y="766" type="line"/>
      <point x="481" y="766" type="line"/>
      <point x="307" y="18" type="line"/>
      <point x="205" y="18" type="line"/>
      <point x="31" y="766" type="line"/>
      <point x="119" y="766" type="line"/>
      <point x="257" y="90" type="line"/>
    </contour>
  </outline>
</glyph>
<glyph name="W" format="2">
  <advance width="512"/>
  <unicode hex="0057"/>
  <outline>
    <contour>
      <point x="157" y="141" type="line"/>
      <point x="159" y="141" type="line"/>
      <point x="214" y="664" type="line"/>
      <point x="306" y="664" type="line"/>
      <point x="361" y="141" type="line"/>
      <point x="364" y="141" type="line"/>
      <point x="410" y="766" type="line"/>
      <point x="486" y="766" type="line"/>
      <point x="425" y="18" type="line"/>
      <point x="313" y="18" type="line"/>
      <point x="257" y="551" type="line"/>
      <point x="255" y="551" type="line"/>
      <point x="199" y="18" type="line"/>
      <point x="87" y="18" type="line"/>
      <point x="26" y="766" type="line"/>
      <point x="111" y="766" type="line"/>
    </contour>
  </outline>
</glyph>
<glyph name="X" format="2">
  <advance width="512"/>
  <unicode hex="0058"/>
  <outline>
    <contour>
      <point x="257" y="469" type="line"/>
      <point x="259" y="469" type="line"/>
      <point x="374" y="766" type="line"/>
      <point x="459" y="766" type="line"/>
      <point x="307" y="402" type="line"/>
      <point x="461" y="18" type="line"/>
      <point x="369" y="18" type="line"/>
      <point x="255" y="331" type="line"/>
      <point x="253" y="331" type="line"/>
      <point x="138" y="18" type="line"/>
      <point x="51" y="18" type="line"/>
      <point x="205" y="402" type="line"/>
      <point x="53" y="766" type="line"/>
      <point x="143" y="766" type="line"/>
    </contour>
  </outline>
</glyph>
<glyph name="Y" format="2">
  <advance width="512"/>
  <unicode hex="0059"/>
  <outline>
    <contour>
      <point x="257" y="402" type="line"/>
      <point x="259" y="402" type="line"/>
      <point x="394" y="766" type="line"/>
      <point x="481" y="766" type="line"/>
      <point x="298" y="315" type="line"/>
      <point x="298" y="18" type="line"/>
      <point x="214" y="18" type="line"/>
      <point x="214" y="315" type="line"/>
      <point x="31" y="766" type="line"/>
      <point x="123" y="766" type="line"/>
    </contour>
  </outline>
</glyph>
<glyph name="Z" format="2">
  <advance width="512"/>
  <unicode hex="005A"/>
  <outline>
    <contour>
      <point x="343" y="692" type="line"/>
      <point x="343" y="694" type="line"/>
      <point x="77" y="694" type="line"/>
      <point x="77" y="766" type="line"/>
      <point x="435" y="766" type="line"/>
      <point x="435" y="694" type="line"/>
      <point x="169" y="92" type="line"/>
      <point x="169" y="90" type="line"/>
      <point x="435" y="90" type="line"/>
      <point x="435" y="18" type="line"/>
      <point x="77" y="18" type="line"/>
      <point x="77" y="90" type="line"/>
    </contour>
  </outline>
</glyph>
<glyph name="bracketleft" format="2">
  <advance width="512"/>
  <unicode hex="005B"/>
  <outline>
    <contour>
      <point x="399" y="745" type="line"/>
      <point x="217" y="745" type="line"/>
      <point x="217" y="-63" type="line"/>
      <point x="399" y="-63" type="line"/>
      <point x="399" y="-125" type="line"/>
      <point x="143" y="-125" type="line"/>
      <point x="143" y="807" type="line"/>
      <point x="399" y="807" type="line"/>
    </contour>
  </outline>
</glyph>
<glyph name="backslash" format="2">
  <advance width="512"/>
  <unicode hex="005C"/>
  <outline>
    <contour>
      <point x="49" y="766" type="line"/>
      <point x="123" y="766" type="line"/>
      <point x="463" y="-23" type="line"/>
      <point x="389" y="-23" type="line"/>
    </contour>
  </outline>
</glyph>
<glyph name="bracketright" format="2">
  <advance width="512"/>
  <unicode hex="005D"/>
  <outline>
    <contour>
      <point x="113" y="745" type="line"/>
      <point x="113" y="807" type="line"/>
      <point x="369" y="807" type="line"/>
      <point x="369" y="-125" type="line"/>
      <point x="113" y="-125" type="line"/>
      <point x="113" y="-63" type="line"/>
      <point x="295" y="-63" type="line"/>
      <point x="295" y="745" type="line"/>
    </contour>
  </outline>
</glyph>
<glyph name="asciicircum" format="2">
  <advance width="512"/>
  <unicode hex="005E"/>
  <outline>
    <contour>
      <point x="257" y="715" type="line"/>
      <point x="255" y="715" type="line"/>
      <point x="104" y="305" type="line"/>
      <point x="31" y="305" type="line"/>
      <point x="205" y="766" type="line"/>
      <point x="307" y="766" type="line"/>
      <point x="481" y="305" type="line"/>
      <point x="408" y="305" type="line"/>
    </contour>
  </outline>
</glyph>
<glyph name="underscore" format="2">
  <advance width="512"/>
  <unicode hex="005F"/>
  <outline>
    <contour>
      <point x="51" y="-125" type="line"/>
      <point x="51" y="-68" type="line"/>
      <point x="461" y="-68" type="line"/>
      <point x="461" y="-125" type="line"/>
    </contour>
  </outline>
</glyph>
<glyph name="a" format="2">
  <advance width="512"/>
  <unicode hex="0061"/>
  <outline>
    <contour>
      <point x="261" y="561" type="qcurve" smooth="yes"/>
      <point x="364" y="561"/>
      <point x="440" y="479"/>
      <point x="440" y="367" type="qcurve" smooth="yes"/>
      <point x="440" y="18" type="line"/>
      <point x="367" y="18" type="line"/>
      <point x="365" y="95" type="line"/>
      <point x="362" y="95" type="line"/>
      <point x="314" y="8"/>
      <point x="210" y="8" type="qcurve" smooth="yes"/>
      <point x="143" y="8"/>
      <point x="61" y="93"/>
      <point x="61" y="167" type="qcurve" smooth="yes"/>
      <point x="61" y="260"/>
      <point x="187" y="361"/>
      <point x="312" y="361" type="qcurve" smooth="yes"/>
      <point x="361" y="361" type="line"/>
      <point x="361" y="387" type="line" smooth="yes"/>
      <point x="361" y="445"/>
      <point x="316" y="493"/>
      <point x="261" y="493" type="qcurve" smooth="yes"/>
      <point x="227" y="493"/>
      <point x="123" y="468"/>
      <point x="87" y="452" type="qcurve"/>
      <point x="87" y="525" type="line"/>
      <point x="123" y="541"/>
      <point x="225" y="561"/>
    </contour>
    <contour>
      <point x="361" y="300" type="line"/>
      <point x="312" y="300" type="line" smooth="yes"/>
      <point x="138" y="300"/>
      <point x="138" y="172" type="qcurve" smooth="yes"/>
      <point x="138" y="126"/>
      <point x="185" y="77"/>
      <point x="225" y="77" type="qcurve" smooth="yes"/>
      <point x="286" y="77"/>
      <point x="361" y="175"/>
      <point x="361" y="264" type="qcurve" smooth="yes"/>
    </contour>
  </outline>
</glyph>
<glyph name="b" format="2">
  <advance width="512"/>
  <unicode hex="0062"/>
  <outline>
    <contour>
      <point x="147" y="474" type="line"/>
      <point x="150" y="474" type="line"/>
      <point x="194" y="561"/>
      <point x="287" y="561" type="qcurve" smooth="yes"/>
      <point x="466" y="561"/>
      <point x="466" y="285" type="qcurve" smooth="yes"/>
      <point x="466" y="146"/>
      <point x="368" y="8"/>
      <point x="287" y="8" type="qcurve" smooth="yes"/>
      <point x="201" y="8"/>
      <point x="146" y="95" type="qcurve"/>
      <point x="144" y="95" type="line"/>
      <point x="142" y="18" type="line"/>
      <point x="67" y="18" type="line"/>
      <point x="67" y="766" type="line"/>
      <point x="147" y="766" type="line"/>
    </contour>
    <contour>
      <point x="385" y="285" type="qcurve" smooth="yes"/>
      <point x="385" y="484"/>
      <point x="266" y="484" type="qcurve" smooth="yes"/>
      <point x="214" y="484"/>
      <point x="147" y="383"/>
      <point x="147" y="290" type="qcurve" smooth="yes"/>
      <point x="147" y="280" type="line" smooth="yes"/>
      <point x="147" y="186"/>
      <point x="214" y="85"/>
      <point x="266" y="85" type="qcurve" smooth="yes"/>
      <point x="321" y="85"/>
      <point x="385" y="184"/>
    </contour>
  </outline>
</glyph>
<glyph name="d" format="2">
  <advance width="512"/>
  <unicode hex="0064"/>
  <outline>
    <contour>
      <point x="365" y="766" type="line"/>
      <point x="445" y="766" type="line"/>
      <point x="445" y="18" type="line"/>
      <point x="370" y="18" type="line"/>
      <point x="368" y="95" type="line"/>
      <point x="366" y="95" type="line"/>
      <point x="311" y="8"/>
      <point x="225" y="8" type="qcurve" smooth="yes"/>
      <point x="144" y="8"/>
      <point x="46" y="146"/>
      <point x="46" y="285" type="qcurve" smooth="yes"/>
      <point x="46" y="561"/>
      <point x="225" y="561" type="qcurve" smooth="yes"/>
      <point x="318" y="561"/>
      <point x="362" y="474" type="qcurve"/>
      <point x="365" y="474" type="line"/>
    </contour>
    <contour>
      <point x="127" y="285" type="qcurve" smooth="yes"/>
      <point x="127" y="184"/>
      <point x="191" y="85"/>
      <point x="246" y="85" type="qcurve" smooth="yes"/>
      <point x="298" y="85"/>
      <point x="365" y="186"/>
      <point x="365" y="280" type="qcurve" smooth="yes"/>
      <point x="365" y="290" type="line" smooth="yes"/>
      <point x="365" y="383"/>
      <point x="298" y="484"/>
      <point x="246" y="484" type="qcurve" smooth="yes"/>
      <point x="127" y="484"/>
    </contour>
  </outline>
</glyph>
<glyph name="e" format="2">
  <advance width="512"/>
  <unicode hex="0065"/>
  <outline>
    <contour>
      <point x="141" y="258" type="line"/>
      <point x="145" y="163"/>
      <point x="215" y="79"/>
      <point x="282" y="79" type="qcurve" smooth="yes"/>
      <point x="344" y="79"/>
      <point x="420" y="116" type="qcurve"/>
      <point x="420" y="34" type="line"/>
      <point x="344" y="8"/>
      <point x="276" y="8" type="qcurve" smooth="yes"/>
      <point x="56" y="8"/>
      <point x="56" y="285" type="qcurve" smooth="yes"/>
      <point x="56" y="429"/>
      <point x="159" y="561"/>
      <point x="261" y="561" type="qcurve" smooth="yes"/>
      <point x="354" y="561"/>
      <point x="445" y="434"/>
      <point x="445" y="290" type="qcurve" smooth="yes"/>
      <point x="445" y="279"/>
      <point x="443" y="258" type="qcurve"/>
    </contour>
    <contour>
      <point x="141" y="326" type="qcurve"/>
      <point x="365" y="326" type="line"/>
      <point x="364" y="490"/>
      <point x="261" y="490" type="qcurve" smooth="yes"/>
      <point x="203" y="490"/>
      <point x="145" y="417"/>
    </contour>
  </outline>
</glyph>
<glyph name="f" format="2">
  <advance width="512"/>
  <unicode hex="0066"/>
  <outline>
    <contour>
      <point x="77" y="460" type="line"/>
      <point x="77" y="530" type="line"/>
      <point x="200" y="530" type="line"/>
      <point x="200" y="592" type="line" smooth="yes"/>
      <point x="200" y="692"/>
      <point x="267" y="776"/>
      <point x="343" y="776" type="qcurve" smooth="yes"/>
      <point x="389" y="776"/>
      <point x="435" y="761" type="qcurve"/>
      <point x="435" y="687" type="line"/>
      <point x="396" y="706"/>
      <point x="358" y="706" type="qcurve" smooth="yes"/>
      <point x="310" y="706"/>
      <point x="281" y="657"/>
      <point x="281" y="571" type="qcurve" smooth="yes"/>
      <point x="281" y="530" type="line"/>
      <point x="435" y="530" type="line"/>
      <point x="435" y="460" type="line"/>
      <point x="281" y="460" type="line"/>
      <point x="281" y="18" type="line"/>
      <point x="200" y="18" type="line"/>
      <point x="200" y="460" type="line"/>
    </contour>
  </outline>
</glyph>
<glyph name="g" format="2">
  <advance width="512"/>
  <unicode hex="0067"/>
  <outline>
    <contour>
      <point x="51" y="285" type="qcurve" smooth="yes"/>
      <point x="51" y="561"/>
      <point x="230" y="561" type="qcurve" smooth="yes"/>
      <point x="315" y="561"/>
      <point x="371" y="474" type="qcurve"/>
      <point x="373" y="474" type="line"/>
      <point x="375" y="551" type="line"/>
      <point x="451" y="551" type="line"/>
      <point x="451" y="24" type="line" smooth="yes"/>
      <point x="451" y="-104"/>
      <point x="347" y="-217"/>
      <point x="241" y="-217" type="qcurve" smooth="yes"/>
      <point x="168" y="-217"/>
      <point x="97" y="-191" type="qcurve"/>
      <point x="97" y="-110" type="line"/>
      <point x="170" y="-146"/>
      <point x="241" y="-146" type="qcurve" smooth="yes"/>
      <point x="370" y="-146"/>
      <point x="370" y="24" type="qcurve" smooth="yes"/>
      <point x="370" y="105" type="line"/>
      <point x="368" y="105" type="line"/>
      <point x="324" y="18"/>
      <point x="230" y="18" type="qcurve" smooth="yes"/>
      <point x="148" y="18"/>
      <point x="51" y="154"/>
    </contour>
    <contour>
      <point x="132" y="285" type="qcurve" smooth="yes"/>
      <point x="132" y="190"/>
      <point x="197" y="95"/>
      <point x="251" y="95" type="qcurve" smooth="yes"/>
      <point x="304" y="95"/>
      <point x="370" y="188"/>
      <point x="370" y="280" type="qcurve" smooth="yes"/>
      <point x="370" y="290" type="line" smooth="yes"/>
      <point x="370" y="383"/>
      <point x="303" y="484"/>
      <point x="251" y="484" type="qcurve" smooth="yes"/>
      <point x="191" y="484"/>
      <point x="132" y="389"/>
    </contour>
  </outline>
</glyph>
<glyph name="h" format="2">
  <advance width="512"/>
  <unicode hex="0068"/>
  <outline>
    <contour>
      <point x="451" y="356" type="qcurve" smooth="yes"/>
      <point x="451" y="18" type="line"/>
      <point x="372" y="18" type="line"/>
      <point x="372" y="338" type="line" smooth="yes"/>
      <point x="372" y="428"/>
      <point x="331" y="488"/>
      <point x="276" y="488" type="qcurve" smooth="yes"/>
      <point x="225" y="488"/>
      <point x="153" y="374"/>
      <point x="153" y="276" type="qcurve" smooth="yes"/>
      <point x="153" y="18" type="line"/>
      <point x="72" y="18" type="line"/>
      <point x="72" y="766" type="line"/>
      <point x="153" y="766" type="line"/>
      <point x="153" y="474" type="line"/>
      <point x="155" y="474" type="line"/>
      <point x="174" y="514"/>
      <point x="251" y="561"/>
      <point x="297" y="561" type="qcurve" smooth="yes"/>
      <point x="378" y="561"/>
      <point x="451" y="468"/>
    </contour>
  </outline>
</glyph>
<glyph name="i" format="2">
  <advance width="512"/>
  <unicode hex="0069"/>
  <outline>
    <contour>
      <point x="324" y="551" type="line"/>
      <point x="324" y="88" type="line"/>
      <point x="435" y="88" type="line"/>
      <point x="435" y="18" type="line"/>
      <point x="97" y="18" type="line"/>
      <point x="97" y="88" type="line"/>
      <point x="240" y="88" type="line"/>
      <point x="240" y="481" type="line"/>
      <point x="128" y="481" type="line"/>
      <point x="128" y="551" type="line"/>
    </contour>
    <contour>
      <point x="219" y="674" type="line"/>
      <point x="219" y="797" type="line"/>
      <point x="324" y="797" type="line"/>
      <point x="324" y="674" type="line"/>
    </contour>
  </outline>
</glyph>
<glyph name="j" format="2">
  <advance width="512"/>
  <unicode hex="006A"/>
  <outline>
    <contour>
      <point x="255" y="-15" type="qcurve" smooth="yes"/>
      <point x="255" y="481" type="line"/>
      <point x="133" y="481" type="line"/>
      <point x="133" y="551" type="line"/>
      <point x="339" y="551" type="line"/>
      <point x="339" y="-15" type="line" smooth="yes"/>
      <point x="339" y="-82"/>
      <point x="322" y="-156"/>
      <point x="264" y="-203"/>
      <point x="174" y="-217"/>
      <point x="93" y="-217" type="qcurve"/>
      <point x="93" y="-147" type="line"/>
      <point x="134" y="-147"/>
      <point x="181" y="-145"/>
      <point x="221" y="-134"/>
      <point x="240" y="-120"/>
      <point x="253" y="-86"/>
      <point x="255" y="-49"/>
    </contour>
    <contour>
      <point x="234" y="674" type="line"/>
      <point x="234" y="797" type="line"/>
      <point x="339" y="797" type="line"/>
      <point x="339" y="674" type="line"/>
    </contour>
  </outline>
</glyph>
<glyph name="k" format="2">
  <advance width="512"/>
  <unicode hex="006B"/>
  <outline>
    <contour>
      <point x="471" y="551" type="line"/>
      <point x="236" y="295" type="line"/>
      <point x="471" y="18" type="line"/>
      <point x="374" y="18" type="line"/>
      <point x="163" y="278" type="line"/>
      <point x="163" y="18" type="line"/>
      <point x="82" y="18" type="line"/>
      <point x="82" y="766" type="line"/>
      <point x="163" y="766" type="line"/>
      <point x="163" y="311" type="line"/>
      <point x="375" y="551" type="line"/>
    </contour>
  </outline>
</glyph>
<glyph name="l" format="2">
  <advance width="512"/>
  <unicode hex="006C"/>
  <outline>
    <contour>
      <point x="288" y="172" type="line" smooth="yes"/>
      <point x="288" y="104"/>
      <point x="309" y="78"/>
      <point x="364" y="78" type="qcurve" smooth="yes"/>
      <point x="397" y="78"/>
      <point x="440" y="84" type="qcurve"/>
      <point x="440" y="13" type="line"/>
      <point x="392" y="8"/>
      <point x="353" y="8" type="qcurve" smooth="yes"/>
      <point x="261" y="8"/>
      <point x="204" y="67"/>
      <point x="204" y="162" type="qcurve" smooth="yes"/>
      <point x="204" y="696" type="line"/>
      <point x="72" y="696" type="line"/>
      <point x="72" y="766" type="line"/>
      <point x="288" y="766" type="line"/>
    </contour>
  </outline>
</glyph>
<glyph name="m" format="2">
  <advance width="512"/>
  <unicode hex="006D"/>
  <outline>
    <contour>
      <point x="297" y="18" type="line"/>
      <point x="217" y="18" type="line"/>
      <point x="217" y="387" type="line" smooth="yes"/>
      <point x="216" y="446"/>
      <point x="197" y="486"/>
      <point x="173" y="486" type="qcurve" smooth="yes"/>
      <point x="141" y="486"/>
      <point x="101" y="358"/>
      <point x="101" y="223" type="qcurve" smooth="yes"/>
      <point x="101" y="18" type="line"/>
      <point x="20" y="18" type="line"/>
      <point x="20" y="551" type="line"/>
      <point x="92" y="551" type="line"/>
      <point x="94" y="479" type="line"/>
      <point x="96" y="479" type="line"/>
      <point x="114" y="518"/>
      <point x="166" y="561"/>
      <point x="195" y="561" type="qcurve" smooth="yes"/>
      <point x="226" y="561"/>
      <point x="266" y="523"/>
      <point x="281" y="479" type="qcurve"/>
      <point x="283" y="479" type="line"/>
      <point x="323" y="561"/>
      <point x="389" y="561" type="qcurve" smooth="yes"/>
      <point x="443" y="561"/>
      <point x="492" y="495"/>
      <point x="492" y="408" type="qcurve" smooth="yes"/>
      <point x="492" y="18" type="line"/>
      <point x="413" y="18" type="line"/>
      <point x="413" y="387" type="line" smooth="yes"/>
      <point x="412" y="447"/>
      <point x="390" y="486"/>
      <point x="362" y="486" type="qcurve" smooth="yes"/>
      <point x="297" y="486"/>
      <point x="297" y="285" type="qcurve" smooth="yes"/>
    </contour>
  </outline>
</glyph>
<glyph name="n" format="2">
  <advance width="512"/>
  <unicode hex="006E"/>
  <outline>
    <contour>
      <point x="451" y="356" type="qcurve" smooth="yes"/>
      <point x="451" y="18" type="line"/>
      <point x="372" y="18" type="line"/>
      <point x="372" y="338" type="line" smooth="yes"/>
      <point x="372" y="428"/>
      <point x="331" y="488"/>
      <point x="276" y="488" type="qcurve" smooth="yes"/>
      <point x="225" y="488"/>
      <point x="153" y="374"/>
      <point x="153" y="276" type="qcurve" smooth="yes"/>
      <point x="153" y="18" type="line"/>
      <point x="72" y="18" type="line"/>
      <point x="72" y="551" type="line"/>
      <point x="147" y="551" type="line"/>
      <point x="150" y="474" type="line"/>
      <point x="152" y="474" type="line"/>
      <point x="171" y="513"/>
      <point x="251" y="561"/>
      <point x="297" y="561" type="qcurve" smooth="yes"/>
      <point x="378" y="561"/>
      <point x="451" y="468"/>
    </contour>
  </outline>
</glyph>
<glyph name="p" format="2">
  <advance width="512"/>
  <unicode hex="0070"/>
  <outline>
    <contour>
      <point x="144" y="95" type="qcurve"/>
      <point x="142" y="95" type="line"/>
      <point x="142" y="-207" type="line"/>
      <point x="61" y="-207" type="line"/>
      <point x="61" y="551" type="line"/>
      <point x="137" y="551" type="line"/>
      <point x="139" y="474" type="line"/>
      <point x="141" y="474" type="line"/>
      <point x="197" y="561"/>
      <point x="282" y="561" type="qcurve" smooth="yes"/>
      <point x="461" y="561"/>
      <point x="461" y="285" type="qcurve" smooth="yes"/>
      <point x="461" y="146"/>
      <point x="362" y="8"/>
      <point x="282" y="8" type="qcurve" smooth="yes"/>
      <point x="188" y="8"/>
    </contour>
    <contour>
      <point x="380" y="285" type="qcurve" smooth="yes"/>
      <point x="380" y="484"/>
      <point x="261" y="484" type="qcurve" smooth="yes"/>
      <point x="209" y="484"/>
      <point x="142" y="383"/>
      <point x="142" y="290" type="qcurve" smooth="yes"/>
      <point x="142" y="280" type="line" smooth="yes"/>
      <point x="142" y="186"/>
      <point x="209" y="85"/>
      <point x="261" y="85" type="qcurve" smooth="yes"/>
      <point x="315" y="85"/>
      <point x="380" y="184"/>
    </contour>
  </outline>
</glyph>
<glyph name="q" format="2">
  <advance width="512"/>
  <unicode hex="0071"/>
  <outline>
    <contour>
      <point x="368" y="95" type="line"/>
      <point x="324" y="8"/>
      <point x="230" y="8" type="qcurve" smooth="yes"/>
      <point x="150" y="8"/>
      <point x="51" y="146"/>
      <point x="51" y="285" type="qcurve" smooth="yes"/>
      <point x="51" y="561"/>
      <point x="230" y="561" type="qcurve" smooth="yes"/>
      <point x="315" y="561"/>
      <point x="371" y="474" type="qcurve"/>
      <point x="373" y="474" type="line"/>
      <point x="375" y="551" type="line"/>
      <point x="451" y="551" type="line"/>
      <point x="451" y="-207" type="line"/>
      <point x="370" y="-207" type="line"/>
      <point x="370" y="95" type="line"/>
    </contour>
    <contour>
      <point x="132" y="285" type="qcurve" smooth="yes"/>
      <point x="132" y="184"/>
      <point x="197" y="85"/>
      <point x="251" y="85" type="qcurve" smooth="yes"/>
      <point x="303" y="85"/>
      <point x="370" y="186"/>
      <point x="370" y="280" type="qcurve" smooth="yes"/>
      <point x="370" y="290" type="line" smooth="yes"/>
      <point x="370" y="383"/>
      <point x="303" y="484"/>
      <point x="251" y="484" type="qcurve" smooth="yes"/>
      <point x="132" y="484"/>
    </contour>
  </outline>
</glyph>
<glyph name="r" format="2">
  <advance width="512"/>
  <unicode hex="0072"/>
  <outline>
    <contour>
      <point x="190" y="551" type="line"/>
      <point x="190" y="449" type="line"/>
      <point x="193" y="449" type="line"/>
      <point x="256" y="561"/>
      <point x="369" y="561" type="qcurve" smooth="yes"/>
      <point x="407" y="561"/>
      <point x="440" y="551" type="qcurve"/>
      <point x="440" y="479" type="line"/>
      <point x="404" y="490"/>
      <point x="369" y="490" type="qcurve" smooth="yes"/>
      <point x="294" y="490"/>
      <point x="194" y="366"/>
      <point x="194" y="264" type="qcurve" smooth="yes"/>
      <point x="194" y="18" type="line"/>
      <point x="113" y="18" type="line"/>
      <point x="113" y="551" type="line"/>
    </contour>
  </outline>
</glyph>
<glyph name="s" format="2">
  <advance width="512"/>
  <unicode hex="0073"/>
  <outline>
    <contour>
      <point x="261" y="493" type="qcurve" smooth="yes"/>
      <point x="163" y="493"/>
      <point x="163" y="418" type="qcurve" smooth="yes"/>
      <point x="163" y="383"/>
      <point x="206" y="341"/>
      <point x="261" y="326" type="qcurve" smooth="yes"/>
      <point x="370" y="295"/>
      <point x="440" y="227"/>
      <point x="440" y="86"/>
      <point x="344" y="8"/>
      <point x="168" y="8"/>
      <point x="87" y="49" type="qcurve"/>
      <point x="87" y="131" type="line"/>
      <point x="167" y="77"/>
      <point x="246" y="77" type="qcurve" smooth="yes"/>
      <point x="359" y="77"/>
      <point x="359" y="157" type="qcurve" smooth="yes"/>
      <point x="359" y="195"/>
      <point x="315" y="236"/>
      <point x="251" y="254" type="qcurve" smooth="yes"/>
      <point x="157" y="281"/>
      <point x="82" y="354"/>
      <point x="82" y="418" type="qcurve" smooth="yes"/>
      <point x="82" y="485"/>
      <point x="171" y="561"/>
      <point x="256" y="561" type="qcurve" smooth="yes"/>
      <point x="342" y="561"/>
      <point x="420" y="525" type="qcurve"/>
      <point x="420" y="449" type="line"/>
      <point x="339" y="493"/>
    </contour>
  </outline>
</glyph>
<glyph name="t" format="2">
  <advance width="512"/>
  <unicode hex="0074"/>
  <outline>
    <contour>
      <point x="250" y="530" type="line"/>
      <point x="435" y="530" type="line"/>
      <point x="435" y="460" type="line"/>
      <point x="250" y="460" type="line"/>
      <point x="250" y="172" type="line" smooth="yes"/>
      <point x="250" y="115"/>
      <point x="284" y="77"/>
      <point x="333" y="77" type="qcurve" smooth="yes"/>
      <point x="384" y="77"/>
      <point x="425" y="95" type="qcurve"/>
      <point x="425" y="24" type="line"/>
      <point x="376" y="8"/>
      <point x="323" y="8" type="qcurve" smooth="yes"/>
      <point x="237" y="8"/>
      <point x="169" y="75"/>
      <point x="169" y="162" type="qcurve" smooth="yes"/>
      <point x="169" y="460" type="line"/>
      <point x="67" y="460" type="line"/>
      <point x="67" y="530" type="line"/>
      <point x="169" y="530" type="line"/>
      <point x="169" y="725" type="line"/>
      <point x="250" y="725" type="line"/>
    </contour>
  </outline>
</glyph>
<glyph name="u" format="2">
  <advance width="512"/>
  <unicode hex="0075"/>
  <outline>
    <contour>
      <point x="67" y="203" type="qcurve" smooth="yes"/>
      <point x="67" y="551" type="line"/>
      <point x="145" y="551" type="line"/>
      <point x="145" y="221" type="line" smooth="yes"/>
      <point x="145" y="136"/>
      <point x="183" y="81"/>
      <point x="236" y="81" type="qcurve" smooth="yes"/>
      <point x="286" y="81"/>
      <point x="354" y="194"/>
      <point x="354" y="293" type="qcurve" smooth="yes"/>
      <point x="354" y="551" type="line"/>
      <point x="435" y="551" type="line"/>
      <point x="435" y="18" type="line"/>
      <point x="359" y="18" type="line"/>
      <point x="357" y="95" type="line"/>
      <point x="355" y="95" type="line"/>
      <point x="336" y="54"/>
      <point x="260" y="8"/>
      <point x="215" y="8" type="qcurve" smooth="yes"/>
      <point x="136" y="8"/>
      <point x="67" y="96"/>
    </contour>
  </outline>
</glyph>
<glyph name="v" format="2">
  <advance width="512"/>
  <unicode hex="0076"/>
  <outline>
    <contour>
      <point x="257" y="80" type="line"/>
      <point x="259" y="80" type="line"/>
      <point x="377" y="551" type="line"/>
      <point x="461" y="551" type="line"/>
      <point x="312" y="18" type="line"/>
      <point x="200" y="18" type="line"/>
      <point x="51" y="551" type="line"/>
      <point x="139" y="551" type="line"/>
    </contour>
  </outline>
</glyph>
<glyph name="w" format="2">
  <advance width="512"/>
  <unicode hex="0077"/>
  <outline>
    <contour>
      <point x="359" y="100" type="line"/>
      <point x="361" y="100" type="line"/>
      <point x="412" y="551" type="line"/>
      <point x="492" y="551" type="line"/>
      <point x="410" y="18" type="line"/>
      <point x="308" y="18" type="line"/>
      <point x="253" y="469" type="line"/>
      <point x="251" y="469" type="line"/>
      <point x="201" y="18" type="line"/>
      <point x="102" y="18" type="line"/>
      <point x="20" y="551" type="line"/>
      <point x="104" y="551" type="line"/>
      <point x="155" y="100" type="line"/>
      <point x="157" y="100" type="line"/>
      <point x="207" y="551" type="line"/>
      <point x="309" y="551" type="line"/>
    </contour>
  </outline>
</glyph>
<glyph name="x" format="2">
  <advance width="512"/>
  <unicode hex="0078"/>
  <outline>
    <contour>
      <point x="257" y="331" type="line"/>
      <point x="259" y="331" type="line"/>
      <point x="366" y="551" type="line"/>
      <point x="456" y="551" type="line"/>
      <point x="307" y="285" type="line"/>
      <point x="456" y="18" type="line"/>
      <point x="359" y="18" type="line"/>
      <point x="255" y="239" type="line"/>
      <point x="253" y="239" type="line"/>
      <point x="148" y="18" type="line"/>
      <point x="56" y="18" type="line"/>
      <point x="205" y="285" type="line"/>
      <point x="56" y="551" type="line"/>
      <point x="151" y="551" type="line"/>
    </contour>
  </outline>
</glyph>
<glyph name="y" format="2">
  <advance width="512"/>
  <unicode hex="0079"/>
  <outline>
    <contour>
      <point x="265" y="141" type="line"/>
      <point x="267" y="141" type="line"/>
      <point x="387" y="551" type="line"/>
      <point x="476" y="551" type="line"/>
      <point x="230" y="-207" type="line"/>
      <point x="145" y="-207" type="line"/>
      <point x="225" y="29" type="line"/>
      <point x="46" y="551" type="line"/>
      <point x="136" y="551" type="line"/>
    </contour>
  </outline>
</glyph>
<glyph name="z" format="2">
  <advance width="512"/>
  <unicode hex="007A"/>
  <outline>
    <contour>
      <point x="82" y="551" type="line"/>
      <point x="430" y="551" type="line"/>
      <point x="430" y="480" type="line"/>
      <point x="176" y="91" type="line"/>
      <point x="176" y="89" type="line"/>
      <point x="430" y="89" type="line"/>
      <point x="430" y="18" type="line"/>
      <point x="82" y="18" type="line"/>
      <point x="82" y="89" type="line"/>
      <point x="336" y="478" type="line"/>
      <point x="336" y="480" type="line"/>
      <point x="82" y="480" type="line"/>
    </contour>
  </outline>
</glyph>
<glyph name="braceleft" format="2">
  <advance width="512"/>
  <unicode hex="007B"/>
  <outline>
    <contour>
      <point x="200" y="342" type="qcurve"/>
      <point x="204" y="340" type="line" smooth="yes"/>
      <point x="287" y="301"/>
      <point x="287" y="187" type="qcurve" smooth="yes"/>
      <point x="287" y="49" type="line" smooth="yes"/>
      <point x="287" y="-25"/>
      <point x="321" y="-63"/>
      <point x="384" y="-63" type="qcurve" smooth="yes"/>
      <point x="425" y="-63" type="line"/>
      <point x="425" y="-125" type="line"/>
      <point x="358" y="-125" type="line" smooth="yes"/>
      <point x="284" y="-125"/>
      <point x="213" y="-52"/>
      <point x="213" y="29" type="qcurve" smooth="yes"/>
      <point x="213" y="182" type="line" smooth="yes"/>
      <point x="213" y="250"/>
      <point x="169" y="310"/>
      <point x="123" y="310" type="qcurve" smooth="yes"/>
      <point x="77" y="310" type="line"/>
      <point x="77" y="372" type="line"/>
      <point x="123" y="372" type="line" smooth="yes"/>
      <point x="169" y="372"/>
      <point x="213" y="432"/>
      <point x="213" y="500" type="qcurve" smooth="yes"/>
      <point x="213" y="653" type="line" smooth="yes"/>
      <point x="213" y="734"/>
      <point x="284" y="807"/>
      <point x="358" y="807" type="qcurve" smooth="yes"/>
      <point x="425" y="807" type="line"/>
      <point x="425" y="745" type="line"/>
      <point x="384" y="745" type="line" smooth="yes"/>
      <point x="321" y="745"/>
      <point x="287" y="707"/>
      <point x="287" y="633" type="qcurve" smooth="yes"/>
      <point x="287" y="495" type="line" smooth="yes"/>
      <point x="287" y="432"/>
      <point x="246" y="362"/>
    </contour>
  </outline>
</glyph>
<glyph name="bar" format="2">
  <advance width="512"/>
  <unicode hex="007C"/>
  <outline>
    <contour>
      <point x="217" y="-207" type="line"/>
      <point x="217" y="848" type="line"/>
      <point x="295" y="848" type="line"/>
      <point x="295" y="-207" type="line"/>
    </contour>
  </outline>
</glyph>
<glyph name="braceright" format="2">
  <advance width="512"/>
  <unicode hex="007D"/>
  <outline>
    <contour>
      <point x="312" y="342" type="line"/>
      <point x="266" y="362"/>
      <point x="225" y="432"/>
      <point x="225" y="495" type="qcurve" smooth="yes"/>
      <point x="225" y="633" type="line" smooth="yes"/>
      <point x="225" y="707"/>
      <point x="191" y="745"/>
      <point x="128" y="745" type="qcurve" smooth="yes"/>
      <point x="87" y="745" type="line"/>
      <point x="87" y="807" type="line"/>
      <point x="154" y="807" type="line" smooth="yes"/>
      <point x="228" y="807"/>
      <point x="299" y="734"/>
      <point x="299" y="653" type="qcurve" smooth="yes"/>
      <point x="299" y="500" type="line" smooth="yes"/>
      <point x="299" y="432"/>
      <point x="343" y="372"/>
      <point x="389" y="372" type="qcurve" smooth="yes"/>
      <point x="435" y="372" type="line"/>
      <point x="435" y="310" type="line"/>
      <point x="389" y="310" type="line" smooth="yes"/>
      <point x="343" y="310"/>
      <point x="299" y="250"/>
      <point x="299" y="182" type="qcurve" smooth="yes"/>
      <point x="299" y="29" type="line" smooth="yes"/>
      <point x="299" y="-52"/>
      <point x="228" y="-125"/>
      <point x="154" y="-125" type="qcurve" smooth="yes"/>
      <point x="87" y="-125" type="line"/>
      <point x="87" y="-63" type="line"/>
      <point x="128" y="-63" type="line" smooth="yes"/>
      <point x="191" y="-63"/>
      <point x="225" y="-25"/>
      <point x="225" y="49" type="qcurve" smooth="yes"/>
      <point x="225" y="187" type="line" smooth="yes"/>
      <point x="225" y="301"/>
      <point x="308" y="340" type="qcurve" smooth="yes"/>
    </contour>
  </outline>
</glyph>
<glyph name="asciitilde" format="2">
  <advance width="512"/>
  <unicode hex="007E"/>
  <outline>
    <contour>
      <point x="51" y="635" type="qcurve"/>
      <point x="51" y="712" type="line"/>
      <point x="94" y="745"/>
      <point x="148" y="745" type="qcurve" smooth="yes"/>
      <point x="211" y="745"/>
      <point x="276" y="696" type="qcurve" smooth="yes"/>
      <point x="326" y="660"/>
      <point x="358" y="660" type="qcurve" smooth="yes"/>
      <point x="384" y="660"/>
      <point x="429" y="681"/>
      <point x="461" y="711" type="qcurve"/>
      <point x="461" y="634" type="line"/>
      <point x="418" y="600"/>
      <point x="364" y="600" type="qcurve" smooth="yes"/>
      <point x="301" y="600"/>
      <point x="236" y="649" type="qcurve" smooth="yes"/>
      <point x="187" y="685"/>
      <point x="154" y="685" type="qcurve" smooth="yes"/>
      <point x="128" y="685"/>
      <point x="83" y="665"/>
    </contour>
  </outline>
</glyph>
<glyph name="cent" format="2">
  <advance width="614"/>
  <unicode hex="00A2"/>
  <outline>
    <contour>
      <point x="511" y="279" type="line"/>
      <point x="488" y="168"/>
      <point x="398" y="130" type="qcurve" smooth="yes"/>
      <point x="375" y="120"/>
      <point x="347" y="117" type="qcurve"/>
      <point x="347" y="-30" type="line"/>
      <point x="285" y="-30" type="line"/>
      <point x="285" y="117" type="line"/>
      <point x="177" y="130"/>
      <point x="129" y="233" type="qcurve" smooth="yes"/>
      <point x="103" y="289"/>
      <point x="103" y="355" type="qcurve" smooth="yes"/>
      <point x="103" y="488"/>
      <point x="181" y="557" type="qcurve" smooth="yes"/>
      <point x="223" y="595"/>
      <point x="285" y="603" type="qcurve"/>
      <point x="285" y="732" type="line"/>
      <point x="347" y="732" type="line"/>
      <point x="347" y="603" type="line"/>
      <point x="429" y="595"/>
      <point x="478" y="525" type="qcurve" smooth="yes"/>
      <point x="505" y="488"/>
      <point x="511" y="443" type="qcurve"/>
      <point x="441" y="430" type="line"/>
      <point x="431" y="489"/>
      <point x="391" y="523" type="qcurve" smooth="yes"/>
      <point x="371" y="541"/>
      <point x="347" y="543" type="qcurve"/>
      <point x="347" y="180" type="line"/>
      <point x="403" y="190"/>
      <point x="430" y="253" type="qcurve" smooth="yes"/>
      <point x="438" y="270"/>
      <point x="441" y="290" type="qcurve"/>
    </contour>
    <contour>
      <point x="285" y="180" type="qcurve"/>
      <point x="285" y="541" type="line"/>
      <point x="185" y="513"/>
      <point x="185" y="353" type="qcurve" smooth="yes"/>
      <point x="185" y="244"/>
      <point x="245" y="199" type="qcurve" smooth="yes"/>
      <point x="262" y="185"/>
    </contour>
  </outline>
</glyph>
<glyph name="yen" format="2">
  <advance width="512"/>
  <unicode hex="00A5"/>
  <outline>
    <contour>
      <point x="257" y="402" type="line"/>
      <point x="259" y="402" type="line"/>
      <point x="394" y="766" type="line"/>
      <point x="481" y="766" type="line"/>
      <point x="325" y="382" type="line"/>
      <point x="451" y="382" type="line"/>
      <point x="451" y="315" type="line"/>
      <point x="298" y="315" type="line"/>
      <point x="298" y="228" type="line"/>
      <point x="451" y="228" type="line"/>
      <point x="451" y="162" type="line"/>
      <point x="298" y="162" type="line"/>
      <point x="298" y="18" type="line"/>
      <point x="214" y="18" type="line"/>
      <point x="214" y="162" type="line"/>
      <point x="61" y="162" type="line"/>
      <point x="61" y="228" type="line"/>
      <point x="214" y="228" type="line"/>
      <point x="214" y="315" type="line"/>
      <point x="61" y="315" type="line"/>
      <point x="61" y="382" type="line"/>
      <point x="187" y="382" type="line"/>
      <point x="31" y="766" type="line"/>
      <point x="123" y="766" type="line"/>
    </contour>
  </outline>
</glyph>
<glyph name="dieresis" format="2">
  <advance width="409"/>
  <unicode hex="00A8"/>
  <outline>
    <contour>
      <point x="337" y="682" type="line" smooth="yes"/>
      <point x="337" y="647"/>
      <point x="305" y="634" type="qcurve" smooth="yes"/>
      <point x="294" y="629"/>
      <point x="283" y="629" type="qcurve" smooth="yes"/>
      <point x="249" y="629"/>
      <point x="234" y="660" type="qcurve" smooth="yes"/>
      <point x="230" y="671"/>
      <point x="230" y="682" type="qcurve" smooth="yes"/>
      <point x="230" y="717"/>
      <point x="263" y="729" type="qcurve" smooth="yes"/>
      <point x="273" y="733"/>
      <point x="284" y="733" type="qcurve" smooth="yes"/>
      <point x="315" y="733"/>
      <point x="331" y="705" type="qcurve"/>
      <point x="337" y="686" type="line"/>
    </contour>
    <contour>
      <point x="178" y="682" type="line" smooth="yes"/>
      <point x="178" y="647"/>
      <point x="146" y="634" type="qcurve" smooth="yes"/>
      <point x="135" y="629"/>
      <point x="124" y="629" type="qcurve" smooth="yes"/>
      <point x="90" y="629"/>
      <point x="76" y="660" type="qcurve" smooth="yes"/>
      <point x="72" y="671"/>
      <point x="72" y="682" type="qcurve" smooth="yes"/>
      <point x="72" y="717"/>
      <point x="104" y="729" type="qcurve" smooth="yes"/>
      <point x="115" y="733"/>
      <point x="125" y="733" type="qcurve" smooth="yes"/>
      <point x="157" y="733"/>
      <point x="172" y="705" type="qcurve"/>
      <point x="178" y="686" type="line"/>
    </contour>
  </outline>
</glyph>
<glyph name="logicalnot" format="2">
  <advance width="614"/>
  <unicode hex="00AC"/>
  <outline>
    <contour>
      <point x="572" y="119" type="line"/>
      <point x="506" y="119" type="line"/>
      <point x="506" y="329" type="line"/>
      <point x="42" y="329" type="line"/>
      <point x="42" y="395" type="line"/>
      <point x="572" y="395" type="line"/>
    </contour>
  </outline>
</glyph>
<glyph name="registered" format="2">
  <advance width="778"/>
  <unicode hex="00AE"/>
  <outline>
    <contour>
      <point x="761" y="353" type="qcurve" smooth="yes"/>
      <point x="761" y="206"/>
      <point x="656" y="100" type="qcurve" smooth="yes"/>
      <point x="555" y="-2"/>
      <point x="411" y="-9" type="qcurve" smooth="yes"/>
      <point x="400" y="-10"/>
      <point x="390" y="-10" type="qcurve" smooth="yes"/>
      <point x="243" y="-10"/>
      <point x="135" y="88" type="qcurve" smooth="yes"/>
      <point x="27" y="187"/>
      <point x="18" y="333" type="qcurve" smooth="yes"/>
      <point x="17" y="343"/>
      <point x="17" y="353" type="qcurve" smooth="yes"/>
      <point x="17" y="501"/>
      <point x="125" y="605" type="qcurve" smooth="yes"/>
      <point x="227" y="706"/>
      <point x="372" y="713" type="qcurve"/>
      <point x="372" y="713"/>
      <point x="390" y="713" type="qcurve" smooth="yes"/>
      <point x="537" y="713"/>
      <point x="643" y="615" type="qcurve" smooth="yes"/>
      <point x="752" y="517"/>
      <point x="760" y="374" type="qcurve" smooth="yes"/>
      <point x="761" y="364"/>
    </contour>
    <contour>
      <point x="690" y="353" type="qcurve" smooth="yes"/>
      <point x="690" y="479"/>
      <point x="595" y="564" type="qcurve" smooth="yes"/>
      <point x="509" y="642"/>
      <point x="390" y="642" type="qcurve" smooth="yes"/>
      <point x="264" y="642"/>
      <point x="176" y="557" type="qcurve" smooth="yes"/>
      <point x="88" y="473"/>
      <point x="88" y="353" type="qcurve" smooth="yes"/>
      <point x="88" y="224"/>
      <point x="183" y="138" type="qcurve" smooth="yes"/>
      <point x="270" y="60"/>
      <point x="390" y="60" type="qcurve" smooth="yes"/>
      <point x="517" y="60"/>
      <point x="605" y="148" type="qcurve" smooth="yes"/>
      <point x="690" y="233"/>
    </contour>
    <contour>
      <point x="581" y="340"/>
      <point x="450" y="336" type="qcurve"/>
      <point x="575" y="150" type="line"/>
      <point x="505" y="150" type="line"/>
      <point x="386" y="336" type="line"/>
      <point x="313" y="336" type="line"/>
      <point x="313" y="150" type="line"/>
      <point x="252" y="150" type="line"/>
      <point x="252" y="554" type="line"/>
      <point x="433" y="554" type="line" smooth="yes"/>
      <point x="581" y="554"/>
    </contour>
    <contour>
      <point x="519" y="449" type="qcurve" smooth="yes"/>
      <point x="519" y="504"/>
      <point x="441" y="508" type="qcurve"/>
      <point x="421" y="508" type="line"/>
      <point x="313" y="508" type="line"/>
      <point x="313" y="386" type="line"/>
      <point x="422" y="386" type="line" smooth="yes"/>
      <point x="497" y="386"/>
      <point x="513" y="419" type="qcurve" smooth="yes"/>
      <point x="519" y="431"/>
    </contour>
  </outline>
</glyph>
<glyph name="degree" format="2">
  <advance width="409"/>
  <unicode hex="00B0"/>
  <outline>
    <contour>
      <point x="358" y="559" type="qcurve" smooth="yes"/>
      <point x="358" y="486"/>
      <point x="301" y="440" type="qcurve"/>
      <point x="274" y="423" type="line" smooth="yes"/>
      <point x="242" y="406"/>
      <point x="205" y="406" type="qcurve" smooth="yes"/>
      <point x="129" y="406"/>
      <point x="83" y="466" type="qcurve" smooth="yes"/>
      <point x="51" y="507"/>
      <point x="51" y="559" type="qcurve" smooth="yes"/>
      <point x="51" y="635"/>
      <point x="112" y="681" type="qcurve" smooth="yes"/>
      <point x="153" y="713"/>
      <point x="205" y="713" type="qcurve" smooth="yes"/>
      <point x="279" y="713"/>
      <point x="326" y="653" type="qcurve" smooth="yes"/>
      <point x="358" y="611"/>
    </contour>
    <contour>
      <point x="296" y="558" type="qcurve" smooth="yes"/>
      <point x="296" y="608"/>
      <point x="253" y="636" type="qcurve" smooth="yes"/>
      <point x="230" y="650"/>
      <point x="204" y="650" type="qcurve" smooth="yes"/>
      <point x="153" y="650"/>
      <point x="126" y="605" type="qcurve"/>
      <point x="116" y="582" type="line" smooth="yes"/>
      <point x="113" y="570"/>
      <point x="113" y="558" type="qcurve" smooth="yes"/>
      <point x="113" y="508"/>
      <point x="157" y="480" type="qcurve" smooth="yes"/>
      <point x="178" y="467"/>
      <point x="204" y="467" type="qcurve" smooth="yes"/>
      <point x="255" y="467"/>
      <point x="283" y="511" type="qcurve" smooth="yes"/>
      <point x="296" y="532"/>
    </contour>
  </outline>
</glyph>
<glyph name="uni00B3" format="2">
  <advance width="368"/>
  <unicode hex="00B3"/>
  <outline>
    <contour>
      <point x="357" y="402" type="qcurve" smooth="yes"/>
      <point x="357" y="324"/>
      <point x="267" y="292" type="qcurve" smooth="yes"/>
      <point x="228" y="279"/>
      <point x="184" y="279" type="qcurve" smooth="yes"/>
      <point x="83" y="279"/>
      <point x="32" y="343" type="qcurve" smooth="yes"/>
      <point x="18" y="360"/>
      <point x="10" y="381" type="qcurve"/>
      <point x="63" y="401" type="line"/>
      <point x="88" y="326"/>
      <point x="183" y="326" type="qcurve" smooth="yes"/>
      <point x="236" y="326"/>
      <point x="253" y="337" type="qcurve" smooth="yes"/>
      <point x="294" y="362"/>
      <point x="294" y="402" type="qcurve" smooth="yes"/>
      <point x="294" y="477"/>
      <point x="155" y="479" type="qcurve" smooth="yes"/>
      <point x="123" y="479" type="line"/>
      <point x="123" y="526" type="line"/>
      <point x="195" y="526"/>
      <point x="213" y="531" type="qcurve" smooth="yes"/>
      <point x="226" y="535"/>
      <point x="237" y="541" type="qcurve" smooth="yes"/>
      <point x="278" y="566"/>
      <point x="278" y="596" type="qcurve" smooth="yes"/>
      <point x="278" y="654"/>
      <point x="211" y="666" type="qcurve" smooth="yes"/>
      <point x="199" y="668"/>
      <point x="185" y="668" type="qcurve" smooth="yes"/>
      <point x="121" y="668"/>
      <point x="89" y="620" type="qcurve" smooth="yes"/>
      <point x="83" y="610"/>
      <point x="79" y="599" type="qcurve"/>
      <point x="28" y="616" type="line"/>
      <point x="58" y="694"/>
      <point x="153" y="710" type="qcurve" smooth="yes"/>
      <point x="170" y="713"/>
      <point x="189" y="713" type="qcurve" smooth="yes"/>
      <point x="274" y="713"/>
      <point x="315" y="665" type="qcurve" smooth="yes"/>
      <point x="339" y="638"/>
      <point x="339" y="599" type="qcurve" smooth="yes"/>
      <point x="339" y="550"/>
      <point x="291" y="521" type="qcurve" smooth="yes"/>
      <point x="273" y="510"/>
      <point x="254" y="507" type="qcurve"/>
      <point x="254" y="505" type="line"/>
      <point x="323" y="496"/>
      <point x="348" y="444" type="qcurve" smooth="yes"/>
      <point x="357" y="426"/>
    </contour>
  </outline>
</glyph>
<glyph name="cedilla" format="2">
  <advance width="327"/>
  <unicode hex="00B8"/>
  <outline>
    <contour>
      <point x="259" y="-102" type="qcurve" smooth="yes"/>
      <point x="259" y="-159"/>
      <point x="197" y="-174" type="qcurve" smooth="yes"/>
      <point x="181" y="-178"/>
      <point x="163" y="-178" type="qcurve" smooth="yes"/>
      <point x="108" y="-178"/>
      <point x="70" y="-155" type="qcurve"/>
      <point x="81" y="-122" type="line"/>
      <point x="118" y="-140"/>
      <point x="155" y="-140" type="qcurve" smooth="yes"/>
      <point x="193" y="-140"/>
      <point x="204" y="-118" type="qcurve" smooth="yes"/>
      <point x="207" y="-112"/>
      <point x="207" y="-105" type="qcurve" smooth="yes"/>
      <point x="207" y="-68"/>
      <point x="142" y="-68" type="qcurve" smooth="yes"/>
      <point x="140" y="-68"/>
      <point x="110" y="-71" type="qcurve"/>
      <point x="132" y="0" type="line"/>
      <point x="167" y="0" type="line"/>
      <point x="157" y="-35" type="line"/>
      <point x="161" y="-35" type="line" smooth="yes"/>
      <point x="231" y="-35"/>
      <point x="252" y="-75" type="qcurve" smooth="yes"/>
      <point x="259" y="-87"/>
    </contour>
  </outline>
</glyph>
<glyph name="uni00B9" format="2">
  <advance width="368"/>
  <unicode hex="00B9"/>
  <outline>
    <contour>
      <point x="344" y="291" type="line"/>
      <point x="25" y="291" type="line"/>
      <point x="25" y="338" type="line"/>
      <point x="157" y="338" type="line"/>
      <point x="157" y="648" type="line"/>
      <point x="105" y="592"/>
      <point x="35" y="559" type="qcurve"/>
      <point x="35" y="611" type="line"/>
      <point x="116" y="651"/>
      <point x="169" y="713" type="qcurve"/>
      <point x="220" y="713" type="line"/>
      <point x="220" y="338" type="line"/>
      <point x="344" y="338" type="line"/>
    </contour>
  </outline>
</glyph>
<glyph name="ordmasculine" format="2">
  <advance width="368"/>
  <unicode hex="00BA"/>
  <outline>
    <contour>
      <point x="336" y="549" type="qcurve" smooth="yes"/>
      <point x="336" y="454"/>
      <point x="271" y="409" type="qcurve" smooth="yes"/>
      <point x="234" y="384"/>
      <point x="184" y="384" type="qcurve" smooth="yes"/>
      <point x="91" y="384"/>
      <point x="52" y="462" type="qcurve" smooth="yes"/>
      <point x="33" y="500"/>
      <point x="33" y="549" type="qcurve" smooth="yes"/>
      <point x="33" y="640"/>
      <point x="95" y="686" type="qcurve" smooth="yes"/>
      <point x="133" y="713"/>
      <point x="184" y="713" type="qcurve" smooth="yes"/>
      <point x="273" y="713"/>
      <point x="314" y="638" type="qcurve" smooth="yes"/>
      <point x="336" y="599"/>
    </contour>
    <contour>
      <point x="273" y="549" type="qcurve" smooth="yes"/>
      <point x="273" y="614"/>
      <point x="229" y="643" type="qcurve" smooth="yes"/>
      <point x="210" y="655"/>
      <point x="184" y="655" type="qcurve" smooth="yes"/>
      <point x="125" y="655"/>
      <point x="103" y="596" type="qcurve"/>
      <point x="96" y="564" type="line" smooth="yes"/>
      <point x="95" y="557"/>
      <point x="95" y="549" type="qcurve" smooth="yes"/>
      <point x="95" y="479"/>
      <point x="141" y="453" type="qcurve" smooth="yes"/>
      <point x="160" y="441"/>
      <point x="184" y="441" type="qcurve" smooth="yes"/>
      <point x="247" y="441"/>
      <point x="267" y="505" type="qcurve" smooth="yes"/>
      <point x="273" y="525"/>
    </contour>
  </outline>
</glyph>
<glyph name="questiondown" format="2">
  <advance width="552"/>
  <unicode hex="00BF"/>
  <outline>
    <contour>
      <point x="347" y="420" type="line"/>
      <point x="243" y="420" type="line"/>
      <point x="243" y="520" type="line"/>
      <point x="347" y="520" type="line"/>
    </contour>
    <contour>
      <point x="516" y="20" type="line"/>
      <point x="494" y="-124"/>
      <point x="376" y="-169" type="qcurve" smooth="yes"/>
      <point x="331" y="-186"/>
      <point x="275" y="-186" type="qcurve" smooth="yes"/>
      <point x="163" y="-186"/>
      <point x="97" y="-119" type="qcurve" smooth="yes"/>
      <point x="46" y="-67"/>
      <point x="46" y="11" type="qcurve" smooth="yes"/>
      <point x="46" y="125"/>
      <point x="177" y="196" type="qcurve" smooth="yes"/>
      <point x="232" y="223"/>
      <point x="245" y="239" type="qcurve" smooth="yes"/>
      <point x="264" y="261"/>
      <point x="261" y="332" type="qcurve" smooth="yes"/>
      <point x="261" y="346"/>
      <point x="261" y="352" type="qcurve"/>
      <point x="335" y="352" type="line"/>
      <point x="335" y="308" type="line" smooth="yes"/>
      <point x="335" y="233"/>
      <point x="316" y="204" type="qcurve" smooth="yes"/>
      <point x="304" y="185"/>
      <point x="282" y="169" type="qcurve" smooth="yes"/>
      <point x="282" y="169"/>
      <point x="268" y="161" type="qcurve" smooth="yes"/>
      <point x="199" y="121"/>
      <point x="184" y="109" type="qcurve" smooth="yes"/>
      <point x="137" y="70"/>
      <point x="137" y="12" type="qcurve" smooth="yes"/>
      <point x="137" y="-68"/>
      <point x="210" y="-99" type="qcurve" smooth="yes"/>
      <point x="243" y="-114"/>
      <point x="282" y="-114" type="qcurve" smooth="yes"/>
      <point x="383" y="-114"/>
      <point x="424" y="-19" type="qcurve" smooth="yes"/>
      <point x="434" y="6"/>
      <point x="439" y="37" type="qcurve"/>
    </contour>
  </outline>
</glyph>
<glyph name="Atilde" format="2">
  <advance width="573"/>
  <unicode hex="00C3"/>
  <outline>
    <contour>
      <point x="429" y="847" type="line"/>
      <point x="382" y="800"/>
      <point x="323" y="800" type="qcurve" smooth="yes"/>
      <point x="295" y="800"/>
      <point x="241" y="826" type="qcurve" smooth="yes"/>
      <point x="199" y="847"/>
      <point x="171" y="847" type="qcurve" smooth="yes"/>
      <point x="136" y="847"/>
      <point x="106" y="815" type="qcurve"/>
      <point x="62" y="847" type="line"/>
      <point x="110" y="902"/>
      <point x="177" y="905" type="qcurve" smooth="yes"/>
      <point x="208" y="905"/>
      <point x="270" y="878" type="qcurve" smooth="yes"/>
      <point x="309" y="860"/>
      <point x="330" y="860" type="qcurve" smooth="yes"/>
      <point x="350" y="860"/>
      <point x="392" y="886" type="qcurve"/>
    </contour>
    <contour>
      <point x="568" y="0" type="line"/>
      <point x="478" y="0" type="line"/>
      <point x="408" y="205" type="line"/>
      <point x="147" y="205" type="line"/>
      <point x="85" y="0" type="line"/>
      <point x="11" y="0" type="line"/>
      <point x="239" y="702" type="line"/>
      <point x="340" y="702" type="line"/>
    </contour>
    <contour>
      <point x="388" y="271" type="line"/>
      <point x="281" y="608" type="line"/>
      <point x="172" y="271" type="line"/>
    </contour>
  </outline>
</glyph>
<glyph name="Aring" format="2">
  <advance width="573"/>
  <unicode hex="00C5"/>
  <outline>
    <contour>
      <point x="338" y="843" type="qcurve" smooth="yes"/>
      <point x="338" y="791"/>
      <point x="292" y="764" type="qcurve" smooth="yes"/>
      <point x="270" y="752"/>
      <point x="245" y="752" type="qcurve" smooth="yes"/>
      <point x="196" y="752"/>
      <point x="168" y="795" type="qcurve" smooth="yes"/>
      <point x="154" y="817"/>
      <point x="154" y="843" type="qcurve" smooth="yes"/>
      <point x="154" y="894"/>
      <point x="197" y="922" type="qcurve" smooth="yes"/>
      <point x="218" y="936"/>
      <point x="245" y="936" type="qcurve" smooth="yes"/>
      <point x="298" y="936"/>
      <point x="325" y="891" type="qcurve" smooth="yes"/>
      <point x="338" y="869"/>
    </contour>
    <contour>
      <point x="294" y="842" type="qcurve" smooth="yes"/>
      <point x="294" y="872"/>
      <point x="265" y="885" type="qcurve" smooth="yes"/>
      <point x="257" y="889"/>
      <point x="247" y="889" type="qcurve" smooth="yes"/>
      <point x="214" y="889"/>
      <point x="203" y="859" type="qcurve" smooth="yes"/>
      <point x="200" y="851"/>
      <point x="200" y="842" type="qcurve" smooth="yes"/>
      <point x="200" y="810"/>
      <point x="229" y="799" type="qcurve" smooth="yes"/>
      <point x="238" y="796"/>
      <point x="247" y="796" type="qcurve" smooth="yes"/>
      <point x="275" y="796"/>
      <point x="289" y="822" type="qcurve" smooth="yes"/>
      <point x="294" y="831"/>
    </contour>
    <contour>
      <point x="568" y="0" type="line"/>
      <point x="478" y="0" type="line"/>
      <point x="408" y="205" type="line"/>
      <point x="147" y="205" type="line"/>
      <point x="85" y="0" type="line"/>
      <point x="11" y="0" type="line"/>
      <point x="239" y="702" type="line"/>
      <point x="340" y="702" type="line"/>
    </contour>
    <contour>
      <point x="388" y="271" type="line"/>
      <point x="281" y="608" type="line"/>
      <point x="172" y="271" type="line"/>
    </contour>
  </outline>
</glyph>
<glyph name="Ccedilla" format="2">
  <advance width="634"/>
  <unicode hex="00C7"/>
  <outline>
    <contour>
      <point x="589" y="219" type="line"/>
      <point x="535" y="4"/>
      <point x="351" y="-9" type="qcurve" smooth="yes"/>
      <point x="340" y="-10"/>
      <point x="328" y="-10" type="qcurve"/>
      <point x="321" y="-35" type="line"/>
      <point x="325" y="-35" type="line" smooth="yes"/>
      <point x="395" y="-35"/>
      <point x="416" y="-75" type="qcurve" smooth="yes"/>
      <point x="423" y="-87"/>
      <point x="423" y="-102" type="qcurve" smooth="yes"/>
      <point x="423" y="-159"/>
      <point x="360" y="-174" type="qcurve" smooth="yes"/>
      <point x="345" y="-178"/>
      <point x="327" y="-178" type="qcurve" smooth="yes"/>
      <point x="271" y="-178"/>
      <point x="233" y="-155" type="qcurve"/>
      <point x="245" y="-122" type="line"/>
      <point x="282" y="-140"/>
      <point x="318" y="-140" type="qcurve" smooth="yes"/>
      <point x="356" y="-140"/>
      <point x="368" y="-118" type="qcurve" smooth="yes"/>
      <point x="371" y="-112"/>
      <point x="371" y="-105" type="qcurve" smooth="yes"/>
      <point x="371" y="-68"/>
      <point x="306" y="-68" type="qcurve" smooth="yes"/>
      <point x="304" y="-68"/>
      <point x="273" y="-71" type="qcurve"/>
      <point x="294" y="-8" type="line"/>
      <point x="152" y="8"/>
      <point x="85" y="156" type="qcurve" smooth="yes"/>
      <point x="43" y="247"/>
      <point x="43" y="358" type="qcurve" smooth="yes"/>
      <point x="43" y="527"/>
      <point x="131" y="626" type="qcurve" smooth="yes"/>
      <point x="209" y="713"/>
      <point x="336" y="713" type="qcurve" smooth="yes"/>
      <point x="485" y="713"/>
      <point x="555" y="582" type="qcurve" smooth="yes"/>
      <point x="578" y="540"/>
      <point x="589" y="488" type="qcurve"/>
      <point x="506" y="473" type="line"/>
      <point x="466" y="621"/>
      <point x="362" y="637" type="qcurve" smooth="yes"/>
      <point x="348" y="639"/>
      <point x="333" y="639" type="qcurve" smooth="yes"/>
      <point x="205" y="639"/>
      <point x="159" y="492" type="qcurve" smooth="yes"/>
      <point x="139" y="428"/>
      <point x="139" y="351" type="qcurve" smooth="yes"/>
      <point x="139" y="216"/>
      <point x="197" y="134" type="qcurve" smooth="yes"/>
      <point x="247" y="63"/>
      <point x="329" y="63" type="qcurve" smooth="yes"/>
      <point x="467" y="63"/>
      <point x="509" y="237" type="qcurve"/>
    </contour>
  </outline>
</glyph>
<glyph name="Ecircumflex" format="2">
  <advance width="573"/>
  <unicode hex="00CA"/>
  <outline>
    <contour>
      <point x="478" y="790" type="line"/>
      <point x="408" y="779" type="line"/>
      <point x="312" y="843" type="line"/>
      <point x="212" y="779" type="line"/>
      <point x="137" y="790" type="line"/>
      <point x="312" y="915" type="line"/>
    </contour>
    <contour>
      <point x="542" y="0" type="line"/>
      <point x="87" y="0" type="line"/>
      <point x="87" y="702" type="line"/>
      <point x="531" y="702" type="line"/>
      <point x="531" y="627" type="line"/>
      <point x="175" y="627" type="line"/>
      <point x="175" y="403" type="line"/>
      <point x="458" y="403" type="line"/>
      <point x="458" y="333" type="line"/>
      <point x="175" y="333" type="line"/>
      <point x="175" y="76" type="line"/>
      <point x="542" y="76" type="line"/>
    </contour>
  </outline>
</glyph>
<glyph name="Edieresis" format="2">
  <advance width="573"/>
  <unicode hex="00CB"/>
  <outline>
    <contour>
      <point x="460" y="844" type="line" smooth="yes"/>
      <point x="460" y="809"/>
      <point x="428" y="796" type="qcurve" smooth="yes"/>
      <point x="417" y="791"/>
      <point x="406" y="791" type="qcurve" smooth="yes"/>
      <point x="372" y="791"/>
      <point x="357" y="822" type="qcurve" smooth="yes"/>
      <point x="353" y="833"/>
      <point x="353" y="844" type="qcurve" smooth="yes"/>
      <point x="353" y="879"/>
      <point x="386" y="891" type="qcurve" smooth="yes"/>
      <point x="396" y="895"/>
      <point x="407" y="895" type="qcurve" smooth="yes"/>
      <point x="438" y="895"/>
      <point x="454" y="866" type="qcurve"/>
      <point x="460" y="848" type="line"/>
    </contour>
    <contour>
      <point x="301" y="844" type="line" smooth="yes"/>
      <point x="301" y="809"/>
      <point x="269" y="796" type="qcurve" smooth="yes"/>
      <point x="258" y="791"/>
      <point x="247" y="791" type="qcurve" smooth="yes"/>
      <point x="213" y="791"/>
      <point x="199" y="822" type="qcurve" smooth="yes"/>
      <point x="195" y="833"/>
      <point x="195" y="844" type="qcurve" smooth="yes"/>
      <point x="195" y="879"/>
      <point x="227" y="891" type="qcurve" smooth="yes"/>
      <point x="238" y="895"/>
      <point x="248" y="895" type="qcurve" smooth="yes"/>
      <point x="280" y="895"/>
      <point x="295" y="866" type="qcurve"/>
      <point x="301" y="848" type="line"/>
    </contour>
    <contour>
      <point x="542" y="0" type="line"/>
      <point x="87" y="0" type="line"/>
      <point x="87" y="702" type="line"/>
      <point x="531" y="702" type="line"/>
      <point x="531" y="627" type="line"/>
      <point x="175" y="627" type="line"/>
      <point x="175" y="403" type="line"/>
      <point x="458" y="403" type="line"/>
      <point x="458" y="333" type="line"/>
      <point x="175" y="333" type="line"/>
      <point x="175" y="76" type="line"/>
      <point x="542" y="76" type="line"/>
    </contour>
  </outline>
</glyph>
<glyph name="Icircumflex" format="2">
  <advance width="266"/>
  <unicode hex="00CE"/>
  <outline>
    <contour>
      <point x="284" y="790" type="line"/>
      <point x="213" y="779" type="line"/>
      <point x="118" y="843" type="line"/>
      <point x="17" y="779" type="line"/>
      <point x="-57" y="790" type="line"/>
      <point x="118" y="915" type="line"/>
    </contour>
    <contour>
      <point x="176" y="0" type="line"/>
      <point x="88" y="0" type="line"/>
      <point x="88" y="702" type="line"/>
      <point x="176" y="702" type="line"/>
    </contour>
  </outline>
</glyph>
<glyph name="Idieresis" format="2">
  <advance width="266"/>
  <unicode hex="00CF"/>
  <outline>
    <contour>
      <point x="255" y="844" type="line" smooth="yes"/>
      <point x="255" y="809"/>
      <point x="223" y="796" type="qcurve" smooth="yes"/>
      <point x="212" y="791"/>
      <point x="201" y="791" type="qcurve" smooth="yes"/>
      <point x="167" y="791"/>
      <point x="153" y="822" type="qcurve" smooth="yes"/>
      <point x="148" y="833"/>
      <point x="148" y="844" type="qcurve" smooth="yes"/>
      <point x="148" y="879"/>
      <point x="181" y="891" type="qcurve" smooth="yes"/>
      <point x="191" y="895"/>
      <point x="202" y="895" type="qcurve" smooth="yes"/>
      <point x="233" y="895"/>
      <point x="249" y="866" type="qcurve"/>
      <point x="255" y="848" type="line"/>
    </contour>
    <contour>
      <point x="96" y="844" type="line" smooth="yes"/>
      <point x="96" y="809"/>
      <point x="65" y="796" type="qcurve" smooth="yes"/>
      <point x="53" y="791"/>
      <point x="42" y="791" type="qcurve" smooth="yes"/>
      <point x="8" y="791"/>
      <point x="-6" y="822" type="qcurve" smooth="yes"/>
      <point x="-10" y="833"/>
      <point x="-10" y="844" type="qcurve" smooth="yes"/>
      <point x="-10" y="879"/>
      <point x="23" y="891" type="qcurve" smooth="yes"/>
      <point x="33" y="895"/>
      <point x="43" y="895" type="qcurve" smooth="yes"/>
      <point x="75" y="895"/>
      <point x="90" y="866" type="qcurve"/>
      <point x="96" y="848" type="line"/>
    </contour>
    <contour>
      <point x="176" y="0" type="line"/>
      <point x="88" y="0" type="line"/>
      <point x="88" y="702" type="line"/>
      <point x="176" y="702" type="line"/>
    </contour>
  </outline>
</glyph>
<glyph name="Otilde" format="2">
  <advance width="675"/>
  <unicode hex="00D5"/>
  <outline>
    <contour>
      <point x="521" y="857" type="line"/>
      <point x="474" y="810"/>
      <point x="415" y="810" type="qcurve" smooth="yes"/>
      <point x="387" y="810"/>
      <point x="333" y="837" type="qcurve"/>
      <point x="294" y="852" type="line" smooth="yes"/>
      <point x="279" y="857"/>
      <point x="263" y="857" type="qcurve" smooth="yes"/>
      <point x="228" y="857"/>
      <point x="199" y="825" type="qcurve"/>
      <point x="155" y="857" type="line"/>
      <point x="202" y="912"/>
      <point x="269" y="915" type="qcurve" smooth="yes"/>
      <point x="300" y="915"/>
      <point x="362" y="888" type="qcurve" smooth="yes"/>
      <point x="401" y="870"/>
      <point x="422" y="870" type="qcurve" smooth="yes"/>
      <point x="442" y="870"/>
      <point x="484" y="896" type="qcurve"/>
    </contour>
    <contour>
      <point x="623" y="359" type="qcurve" smooth="yes"/>
      <point x="623" y="208"/>
      <point x="548" y="102" type="qcurve" smooth="yes"/>
      <point x="469" y="-10"/>
      <point x="335" y="-10" type="qcurve" smooth="yes"/>
      <point x="177" y="-10"/>
      <point x="98" y="128" type="qcurve" smooth="yes"/>
      <point x="45" y="220"/>
      <point x="45" y="346" type="qcurve" smooth="yes"/>
      <point x="45" y="506"/>
      <point x="124" y="609" type="qcurve" smooth="yes"/>
      <point x="202" y="713"/>
      <point x="334" y="713" type="qcurve" smooth="yes"/>
      <point x="486" y="713"/>
      <point x="566" y="580" type="qcurve" smooth="yes"/>
      <point x="623" y="485"/>
    </contour>
    <contour>
      <point x="530" y="354" type="qcurve" smooth="yes"/>
      <point x="530" y="496"/>
      <point x="468" y="575" type="qcurve" smooth="yes"/>
      <point x="419" y="640"/>
      <point x="337" y="640" type="qcurve" smooth="yes"/>
      <point x="207" y="640"/>
      <point x="159" y="492" type="qcurve" smooth="yes"/>
      <point x="137" y="426"/>
      <point x="137" y="345" type="qcurve" smooth="yes"/>
      <point x="137" y="214"/>
      <point x="197" y="133" type="qcurve" smooth="yes"/>
      <point x="249" y="61"/>
      <point x="335" y="61" type="qcurve" smooth="yes"/>
      <point x="458" y="61"/>
      <point x="507" y="203" type="qcurve" smooth="yes"/>
      <point x="530" y="271"/>
    </contour>
  </outline>
</glyph>
<glyph name="Udieresis" format="2">
  <advance width="655"/>
  <unicode hex="00DC"/>
  <outline>
    <contour>
      <point x="460" y="844" type="line" smooth="yes"/>
      <point x="460" y="809"/>
      <point x="428" y="796" type="qcurve" smooth="yes"/>
      <point x="417" y="791"/>
      <point x="406" y="791" type="qcurve" smooth="yes"/>
      <point x="372" y="791"/>
      <point x="357" y="822" type="qcurve" smooth="yes"/>
      <point x="353" y="833"/>
      <point x="353" y="844" type="qcurve" smooth="yes"/>
      <point x="353" y="879"/>
      <point x="386" y="891" type="qcurve" smooth="yes"/>
      <point x="396" y="895"/>
      <point x="407" y="895" type="qcurve" smooth="yes"/>
      <point x="438" y="895"/>
      <point x="454" y="866" type="qcurve"/>
      <point x="460" y="848" type="line"/>
    </contour>
    <contour>
      <point x="301" y="844" type="line" smooth="yes"/>
      <point x="301" y="809"/>
      <point x="269" y="796" type="qcurve" smooth="yes"/>
      <point x="258" y="791"/>
      <point x="247" y="791" type="qcurve" smooth="yes"/>
      <point x="213" y="791"/>
      <point x="199" y="822" type="qcurve" smooth="yes"/>
      <point x="195" y="833"/>
      <point x="195" y="844" type="qcurve" smooth="yes"/>
      <point x="195" y="879"/>
      <point x="227" y="891" type="qcurve" smooth="yes"/>
      <point x="238" y="895"/>
      <point x="248" y="895" type="qcurve" smooth="yes"/>
      <point x="280" y="895"/>
      <point x="295" y="866" type="qcurve"/>
      <point x="301" y="848" type="line"/>
    </contour>
    <contour>
      <point x="567" y="258" type="line" smooth="yes"/>
      <point x="567" y="147"/>
      <point x="534" y="91" type="qcurve" smooth="yes"/>
      <point x="525" y="79"/>
      <point x="516" y="68" type="qcurve" smooth="yes"/>
      <point x="451" y="-10"/>
      <point x="327" y="-10" type="qcurve" smooth="yes"/>
      <point x="151" y="-10"/>
      <point x="103" y="117" type="qcurve" smooth="yes"/>
      <point x="83" y="172"/>
      <point x="83" y="258" type="qcurve" smooth="yes"/>
      <point x="83" y="702" type="line"/>
      <point x="171" y="702" type="line"/>
      <point x="171" y="258" type="line" smooth="yes"/>
      <point x="171" y="139"/>
      <point x="218" y="99" type="qcurve" smooth="yes"/>
      <point x="256" y="68"/>
      <point x="334" y="68" type="qcurve" smooth="yes"/>
      <point x="459" y="68"/>
      <point x="485" y="174" type="qcurve" smooth="yes"/>
      <point x="494" y="209"/>
      <point x="494" y="258" type="qcurve" smooth="yes"/>
      <point x="494" y="702" type="line"/>
      <point x="567" y="702" type="line"/>
    </contour>
  </outline>
</glyph>
<glyph name="atilde" format="2">
  <advance width="552"/>
  <unicode hex="00E3"/>
  <outline>
    <contour>
      <point x="480" y="675" type="line"/>
      <point x="433" y="628"/>
      <point x="374" y="628" type="qcurve" smooth="yes"/>
      <point x="346" y="628"/>
      <point x="292" y="654" type="qcurve" smooth="yes"/>
      <point x="253" y="670" type="line" smooth="yes"/>
      <point x="238" y="675"/>
      <point x="222" y="675" type="qcurve" smooth="yes"/>
      <point x="187" y="675"/>
      <point x="158" y="643" type="qcurve"/>
      <point x="114" y="675" type="line"/>
      <point x="161" y="730"/>
      <point x="228" y="733" type="qcurve" smooth="yes"/>
      <point x="259" y="733"/>
      <point x="322" y="706" type="qcurve" smooth="yes"/>
      <point x="360" y="688"/>
      <point x="381" y="688" type="qcurve" smooth="yes"/>
      <point x="401" y="688"/>
      <point x="443" y="714" type="qcurve"/>
    </contour>
    <contour>
      <point x="509" y="0" type="qcurve"/>
      <point x="429" y="0" type="line"/>
      <point x="420" y="97" type="line"/>
      <point x="367" y="-10"/>
      <point x="238" y="-10" type="qcurve" smooth="yes"/>
      <point x="137" y="-10"/>
      <point x="87" y="53" type="qcurve" smooth="yes"/>
      <point x="56" y="92"/>
      <point x="56" y="147" type="qcurve" smooth="yes"/>
      <point x="56" y="224"/>
      <point x="122" y="273" type="qcurve" smooth="yes"/>
      <point x="136" y="285"/>
      <point x="153" y="292" type="qcurve" smooth="yes"/>
      <point x="220" y="324"/>
      <point x="375" y="323" type="qcurve" smooth="yes"/>
      <point x="420" y="323" type="line"/>
      <point x="420" y="345" type="line" smooth="yes"/>
      <point x="420" y="441"/>
      <point x="352" y="463" type="qcurve"/>
      <point x="316" y="470" type="line" smooth="yes"/>
      <point x="303" y="471"/>
      <point x="288" y="471" type="qcurve" smooth="yes"/>
      <point x="164" y="471"/>
      <point x="145" y="379" type="qcurve"/>
      <point x="71" y="391" type="line"/>
      <point x="84" y="492"/>
      <point x="205" y="522" type="qcurve" smooth="yes"/>
      <point x="247" y="534"/>
      <point x="295" y="534" type="qcurve" smooth="yes"/>
      <point x="428" y="534"/>
      <point x="469" y="463" type="qcurve" smooth="yes"/>
      <point x="498" y="415"/>
      <point x="498" y="311" type="qcurve" smooth="yes"/>
      <point x="498" y="110" type="line" smooth="yes"/>
      <point x="498" y="39"/>
    </contour>
    <contour>
      <point x="420" y="228" type="qcurve" smooth="yes"/>
      <point x="420" y="262" type="line"/>
      <point x="353" y="262" type="line" smooth="yes"/>
      <point x="142" y="262"/>
      <point x="142" y="143" type="qcurve" smooth="yes"/>
      <point x="142" y="78"/>
      <point x="211" y="58" type="qcurve" smooth="yes"/>
      <point x="231" y="52"/>
      <point x="255" y="52" type="qcurve" smooth="yes"/>
      <point x="340" y="52"/>
      <point x="388" y="123" type="qcurve" smooth="yes"/>
      <point x="420" y="170"/>
    </contour>
  </outline>
</glyph>
<glyph name="adieresis" format="2">
  <advance width="552"/>
  <unicode hex="00E4"/>
  <outline>
    <contour>
      <point x="450" y="682" type="line" smooth="yes"/>
      <point x="450" y="647"/>
      <point x="418" y="634" type="qcurve" smooth="yes"/>
      <point x="407" y="629"/>
      <point x="395" y="629" type="qcurve" smooth="yes"/>
      <point x="361" y="629"/>
      <point x="347" y="660" type="qcurve" smooth="yes"/>
      <point x="343" y="671"/>
      <point x="343" y="682" type="qcurve" smooth="yes"/>
      <point x="343" y="717"/>
      <point x="376" y="729" type="qcurve" smooth="yes"/>
      <point x="386" y="733"/>
      <point x="396" y="733" type="qcurve" smooth="yes"/>
      <point x="428" y="733"/>
      <point x="443" y="705" type="qcurve"/>
      <point x="450" y="686" type="line"/>
    </contour>
    <contour>
      <point x="291" y="682" type="line" smooth="yes"/>
      <point x="291" y="647"/>
      <point x="259" y="634" type="qcurve" smooth="yes"/>
      <point x="248" y="629"/>
      <point x="237" y="629" type="qcurve" smooth="yes"/>
      <point x="203" y="629"/>
      <point x="188" y="660" type="qcurve" smooth="yes"/>
      <point x="184" y="671"/>
      <point x="184" y="682" type="qcurve" smooth="yes"/>
      <point x="184" y="717"/>
      <point x="217" y="729" type="qcurve" smooth="yes"/>
      <point x="227" y="733"/>
      <point x="238" y="733" type="qcurve" smooth="yes"/>
      <point x="269" y="733"/>
      <point x="285" y="705" type="qcurve"/>
      <point x="291" y="686" type="line"/>
    </contour>
    <contour>
      <point x="509" y="0" type="qcurve"/>
      <point x="429" y="0" type="line"/>
      <point x="420" y="97" type="line"/>
      <point x="367" y="-10"/>
      <point x="238" y="-10" type="qcurve" smooth="yes"/>
      <point x="137" y="-10"/>
      <point x="87" y="53" type="qcurve" smooth="yes"/>
      <point x="56" y="92"/>
      <point x="56" y="147" type="qcurve" smooth="yes"/>
      <point x="56" y="224"/>
      <point x="122" y="273" type="qcurve" smooth="yes"/>
      <point x="136" y="285"/>
      <point x="153" y="292" type="qcurve" smooth="yes"/>
      <point x="220" y="324"/>
      <point x="375" y="323" type="qcurve" smooth="yes"/>
      <point x="420" y="323" type="line"/>
      <point x="420" y="345" type="line" smooth="yes"/>
      <point x="420" y="441"/>
      <point x="352" y="463" type="qcurve"/>
      <point x="316" y="470" type="line" smooth="yes"/>
      <point x="303" y="471"/>
      <point x="288" y="471" type="qcurve" smooth="yes"/>
      <point x="164" y="471"/>
      <point x="145" y="379" type="qcurve"/>
      <point x="71" y="391" type="line"/>
      <point x="84" y="492"/>
      <point x="205" y="522" type="qcurve" smooth="yes"/>
      <point x="247" y="534"/>
      <point x="295" y="534" type="qcurve" smooth="yes"/>
      <point x="428" y="534"/>
      <point x="469" y="463" type="qcurve" smooth="yes"/>
      <point x="498" y="415"/>
      <point x="498" y="311" type="qcurve" smooth="yes"/>
      <point x="498" y="110" type="line" smooth="yes"/>
      <point x="498" y="39"/>
    </contour>
    <contour>
      <point x="420" y="228" type="qcurve" smooth="yes"/>
      <point x="420" y="262" type="line"/>
      <point x="353" y="262" type="line" smooth="yes"/>
      <point x="142" y="262"/>
      <point x="142" y="143" type="qcurve" smooth="yes"/>
      <point x="142" y="78"/>
      <point x="211" y="58" type="qcurve" smooth="yes"/>
      <point x="231" y="52"/>
      <point x="255" y="52" type="qcurve" smooth="yes"/>
      <point x="340" y="52"/>
      <point x="388" y="123" type="qcurve" smooth="yes"/>
      <point x="420" y="170"/>
    </contour>
  </outline>
</glyph>
<glyph name="aring" format="2">
  <advance width="552"/>
  <unicode hex="00E5"/>
  <outline>
    <contour>
      <point x="389" y="671" type="qcurve" smooth="yes"/>
      <point x="389" y="618"/>
      <point x="343" y="592" type="qcurve" smooth="yes"/>
      <point x="322" y="580"/>
      <point x="296" y="580" type="qcurve" smooth="yes"/>
      <point x="247" y="580"/>
      <point x="219" y="623" type="qcurve" smooth="yes"/>
      <point x="205" y="645"/>
      <point x="205" y="671" type="qcurve" smooth="yes"/>
      <point x="205" y="722"/>
      <point x="248" y="750" type="qcurve" smooth="yes"/>
      <point x="269" y="764"/>
      <point x="296" y="764" type="qcurve" smooth="yes"/>
      <point x="349" y="764"/>
      <point x="376" y="719" type="qcurve" smooth="yes"/>
      <point x="389" y="697"/>
    </contour>
    <contour>
      <point x="345" y="670" type="qcurve" smooth="yes"/>
      <point x="345" y="700"/>
      <point x="316" y="713" type="qcurve" smooth="yes"/>
      <point x="308" y="717"/>
      <point x="298" y="717" type="qcurve" smooth="yes"/>
      <point x="265" y="717"/>
      <point x="254" y="687" type="qcurve" smooth="yes"/>
      <point x="251" y="679"/>
      <point x="251" y="670" type="qcurve" smooth="yes"/>
      <point x="251" y="638"/>
      <point x="281" y="627" type="qcurve" smooth="yes"/>
      <point x="289" y="624"/>
      <point x="298" y="624" type="qcurve" smooth="yes"/>
      <point x="327" y="624"/>
      <point x="340" y="650" type="qcurve" smooth="yes"/>
      <point x="345" y="659"/>
    </contour>
    <contour>
      <point x="509" y="0" type="qcurve"/>
      <point x="429" y="0" type="line"/>
      <point x="420" y="97" type="line"/>
      <point x="367" y="-10"/>
      <point x="238" y="-10" type="qcurve" smooth="yes"/>
      <point x="137" y="-10"/>
      <point x="87" y="53" type="qcurve" smooth="yes"/>
      <point x="56" y="92"/>
      <point x="56" y="147" type="qcurve" smooth="yes"/>
      <point x="56" y="224"/>
      <point x="122" y="273" type="qcurve" smooth="yes"/>
      <point x="136" y="285"/>
      <point x="153" y="292" type="qcurve" smooth="yes"/>
      <point x="220" y="324"/>
      <point x="375" y="323" type="qcurve" smooth="yes"/>
      <point x="420" y="323" type="line"/>
      <point x="420" y="345" type="line" smooth="yes"/>
      <point x="420" y="441"/>
      <point x="352" y="463" type="qcurve"/>
      <point x="316" y="470" type="line" smooth="yes"/>
      <point x="303" y="471"/>
      <point x="288" y="471" type="qcurve" smooth="yes"/>
      <point x="164" y="471"/>
      <point x="145" y="379" type="qcurve"/>
      <point x="71" y="391" type="line"/>
      <point x="84" y="492"/>
      <point x="205" y="522" type="qcurve" smooth="yes"/>
      <point x="247" y="534"/>
      <point x="295" y="534" type="qcurve" smooth="yes"/>
      <point x="428" y="534"/>
      <point x="469" y="463" type="qcurve" smooth="yes"/>
      <point x="498" y="415"/>
      <point x="498" y="311" type="qcurve" smooth="yes"/>
      <point x="498" y="110" type="line" smooth="yes"/>
      <point x="498" y="39"/>
    </contour>
    <contour>
      <point x="420" y="228" type="qcurve" smooth="yes"/>
      <point x="420" y="262" type="line"/>
      <point x="353" y="262" type="line" smooth="yes"/>
      <point x="142" y="262"/>
      <point x="142" y="143" type="qcurve" smooth="yes"/>
      <point x="142" y="78"/>
      <point x="211" y="58" type="qcurve" smooth="yes"/>
      <point x="231" y="52"/>
      <point x="255" y="52" type="qcurve" smooth="yes"/>
      <point x="340" y="52"/>
      <point x="388" y="123" type="qcurve" smooth="yes"/>
      <point x="420" y="170"/>
    </contour>
  </outline>
</glyph>
<glyph name="ecircumflex" format="2">
  <advance width="552"/>
  <unicode hex="00EA"/>
  <outline>
    <contour>
      <point x="468" y="607" type="line"/>
      <point x="397" y="597" type="line"/>
      <point x="302" y="660" type="line"/>
      <point x="202" y="597" type="line"/>
      <point x="127" y="607" type="line"/>
      <point x="302" y="733" type="line"/>
    </contour>
    <contour>
      <point x="506" y="254" type="line"/>
      <point x="128" y="254" type="line"/>
      <point x="127" y="154"/>
      <point x="174" y="101" type="qcurve" smooth="yes"/>
      <point x="213" y="57"/>
      <point x="283" y="57" type="qcurve" smooth="yes"/>
      <point x="370" y="57"/>
      <point x="411" y="133" type="qcurve" smooth="yes"/>
      <point x="417" y="144"/>
      <point x="422" y="158" type="qcurve"/>
      <point x="498" y="142" type="line"/>
      <point x="469" y="52"/>
      <point x="378" y="11" type="qcurve" smooth="yes"/>
      <point x="330" y="-10"/>
      <point x="276" y="-10" type="qcurve" smooth="yes"/>
      <point x="142" y="-10"/>
      <point x="78" y="100" type="qcurve" smooth="yes"/>
      <point x="38" y="168"/>
      <point x="38" y="260" type="qcurve" smooth="yes"/>
      <point x="38" y="389"/>
      <point x="116" y="468" type="qcurve" smooth="yes"/>
      <point x="180" y="534"/>
      <point x="279" y="534" type="qcurve" smooth="yes"/>
      <point x="414" y="534"/>
      <point x="473" y="417" type="qcurve" smooth="yes"/>
      <point x="506" y="352"/>
      <point x="506" y="266" type="qcurve" smooth="yes"/>
    </contour>
    <contour>
      <point x="418" y="313" type="line"/>
      <point x="419" y="398"/>
      <point x="366" y="442" type="qcurve" smooth="yes"/>
      <point x="330" y="472"/>
      <point x="279" y="472" type="qcurve" smooth="yes"/>
      <point x="200" y="472"/>
      <point x="158" y="400" type="qcurve" smooth="yes"/>
      <point x="134" y="361"/>
      <point x="132" y="313" type="qcurve"/>
    </contour>
  </outline>
</glyph>
<glyph name="igrave" format="2">
  <advance width="245"/>
  <unicode hex="00EC"/>
  <outline>
    <contour>
      <point x="219" y="611" type="line"/>
      <point x="199" y="570" type="line"/>
      <point x="-22" y="667" type="line"/>
      <point x="13" y="733" type="line"/>
    </contour>
    <contour>
      <point x="163" y="0" type="line"/>
      <point x="83" y="0" type="line"/>
      <point x="83" y="520" type="line"/>
      <point x="163" y="520" type="line"/>
    </contour>
  </outline>
</glyph>
<glyph name="idieresis" format="2">
  <advance width="245"/>
  <unicode hex="00EF"/>
  <outline>
    <contour>
      <point x="255" y="682" type="line" smooth="yes"/>
      <point x="255" y="647"/>
      <point x="223" y="634" type="qcurve" smooth="yes"/>
      <point x="212" y="629"/>
      <point x="201" y="629" type="qcurve" smooth="yes"/>
      <point x="167" y="629"/>
      <point x="153" y="660" type="qcurve" smooth="yes"/>
      <point x="148" y="671"/>
      <point x="148" y="682" type="qcurve" smooth="yes"/>
      <point x="148" y="717"/>
      <point x="181" y="729" type="qcurve" smooth="yes"/>
      <point x="191" y="733"/>
      <point x="202" y="733" type="qcurve" smooth="yes"/>
      <point x="233" y="733"/>
      <point x="249" y="705" type="qcurve"/>
      <point x="255" y="686" type="line"/>
    </contour>
    <contour>
      <point x="96" y="682" type="line" smooth="yes"/>
      <point x="96" y="647"/>
      <point x="65" y="634" type="qcurve" smooth="yes"/>
      <point x="53" y="629"/>
      <point x="42" y="629" type="qcurve" smooth="yes"/>
      <point x="8" y="629"/>
      <point x="-6" y="660" type="qcurve" smooth="yes"/>
      <point x="-10" y="671"/>
      <point x="-10" y="682" type="qcurve" smooth="yes"/>
      <point x="-10" y="717"/>
      <point x="23" y="729" type="qcurve" smooth="yes"/>
      <point x="33" y="733"/>
      <point x="43" y="733" type="qcurve" smooth="yes"/>
      <point x="75" y="733"/>
      <point x="90" y="705" type="qcurve"/>
      <point x="96" y="686" type="line"/>
    </contour>
    <contour>
      <point x="163" y="0" type="line"/>
      <point x="83" y="0" type="line"/>
      <point x="83" y="520" type="line"/>
      <point x="163" y="520" type="line"/>
    </contour>
  </outline>
</glyph>
<glyph name="eth" format="2">
  <advance width="552"/>
  <unicode hex="00F0"/>
  <outline>
    <contour>
      <point x="506" y="296" type="qcurve" smooth="yes"/>
      <point x="506" y="134"/>
      <point x="423" y="51" type="qcurve"/>
      <point x="395" y="28" type="line"/>
      <point x="340" y="-10"/>
      <point x="264" y="-10" type="qcurve" smooth="yes"/>
      <point x="135" y="-10"/>
      <point x="75" y="105" type="qcurve" smooth="yes"/>
      <point x="39" y="174"/>
      <point x="39" y="264" type="qcurve" smooth="yes"/>
      <point x="39" y="392"/>
      <point x="116" y="469" type="qcurve" smooth="yes"/>
      <point x="179" y="534"/>
      <point x="276" y="534" type="qcurve" smooth="yes"/>
      <point x="332" y="534"/>
      <point x="371" y="502" type="qcurve"/>
      <point x="348" y="549"/>
      <point x="300" y="599" type="qcurve"/>
      <point x="231" y="558" type="line"/>
      <point x="185" y="598" type="line"/>
      <point x="255" y="639" type="line"/>
      <point x="236" y="656"/>
      <point x="203" y="678" type="qcurve"/>
      <point x="262" y="713" type="line"/>
      <point x="285" y="700"/>
      <point x="316" y="675" type="qcurve"/>
      <point x="381" y="713" type="line"/>
      <point x="427" y="673" type="line"/>
      <point x="361" y="635" type="line"/>
      <point x="480" y="516"/>
      <point x="502" y="355" type="qcurve" smooth="yes"/>
      <point x="506" y="326"/>
    </contour>
    <contour>
      <point x="417" y="264" type="qcurve" smooth="yes"/>
      <point x="417" y="397"/>
      <point x="347" y="446" type="qcurve" smooth="yes"/>
      <point x="315" y="468"/>
      <point x="271" y="468" type="qcurve" smooth="yes"/>
      <point x="169" y="468"/>
      <point x="138" y="350" type="qcurve" smooth="yes"/>
      <point x="128" y="310"/>
      <point x="128" y="264" type="qcurve" smooth="yes"/>
      <point x="128" y="120"/>
      <point x="204" y="74" type="qcurve" smooth="yes"/>
      <point x="232" y="56"/>
      <point x="271" y="56" type="qcurve" smooth="yes"/>
      <point x="382" y="56"/>
      <point x="410" y="187" type="qcurve" smooth="yes"/>
      <point x="417" y="223"/>
    </contour>
  </outline>
</glyph>
<glyph name="oslash" format="2">
  <advance width="552"/>
  <unicode hex="00F8"/>
  <outline>
    <contour>
      <point x="551" y="589" type="line"/>
      <point x="447" y="454" type="line"/>
      <point x="505" y="382"/>
      <point x="508" y="263" type="qcurve" smooth="yes"/>
      <point x="508" y="144"/>
      <point x="437" y="65" type="qcurve" smooth="yes"/>
      <point x="372" y="-10"/>
      <point x="273" y="-10" type="qcurve" smooth="yes"/>
      <point x="190" y="-10"/>
      <point x="133" y="39" type="qcurve"/>
      <point x="60" y="-57" type="line"/>
      <point x="-7" y="-57" type="line"/>
      <point x="95" y="80" type="line"/>
      <point x="41" y="145"/>
      <point x="41" y="258" type="qcurve" smooth="yes"/>
      <point x="41" y="384"/>
      <point x="116" y="464" type="qcurve" smooth="yes"/>
      <point x="180" y="534"/>
      <point x="280" y="534" type="qcurve" smooth="yes"/>
      <point x="352" y="534"/>
      <point x="408" y="490" type="qcurve"/>
      <point x="482" y="589" type="line"/>
    </contour>
    <contour>
      <point x="366" y="435" type="line"/>
      <point x="331" y="467"/>
      <point x="280" y="467" type="qcurve" smooth="yes"/>
      <point x="174" y="467"/>
      <point x="140" y="345" type="qcurve" smooth="yes"/>
      <point x="129" y="302"/>
      <point x="129" y="252" type="qcurve" smooth="yes"/>
      <point x="129" y="197"/>
      <point x="145" y="147" type="qcurve"/>
    </contour>
    <contour>
      <point x="420" y="273" type="qcurve" smooth="yes"/>
      <point x="420" y="340"/>
      <point x="399" y="388" type="qcurve"/>
      <point x="176" y="96" type="line"/>
      <point x="210" y="55"/>
      <point x="266" y="55" type="qcurve" smooth="yes"/>
      <point x="388" y="55"/>
      <point x="414" y="200" type="qcurve" smooth="yes"/>
      <point x="420" y="233"/>
    </contour>
  </outline>
</glyph>
<glyph name="ucircumflex" format="2">
  <advance width="552"/>
  <unicode hex="00FB"/>
  <outline>
    <contour>
      <point x="447" y="607" type="line"/>
      <point x="377" y="597" type="line"/>
      <point x="282" y="660" type="line"/>
      <point x="181" y="597" type="line"/>
      <point x="106" y="607" type="line"/>
      <point x="282" y="733" type="line"/>
    </contour>
    <contour>
      <point x="479" y="0" type="line"/>
      <point x="407" y="0" type="line"/>
      <point x="407" y="103" type="line"/>
      <point x="404" y="103" type="line"/>
      <point x="377" y="35"/>
      <point x="310" y="4" type="qcurve" smooth="yes"/>
      <point x="279" y="-10"/>
      <point x="245" y="-10" type="qcurve" smooth="yes"/>
      <point x="93" y="-10"/>
      <point x="74" y="156" type="qcurve" smooth="yes"/>
      <point x="71" y="178"/>
      <point x="71" y="204" type="qcurve" smooth="yes"/>
      <point x="71" y="520" type="line"/>
      <point x="151" y="520" type="line"/>
      <point x="151" y="204" type="line" smooth="yes"/>
      <point x="151" y="68"/>
      <point x="242" y="59" type="qcurve"/>
      <point x="242" y="59"/>
      <point x="252" y="59" type="qcurve" smooth="yes"/>
      <point x="341" y="59"/>
      <point x="380" y="148" type="qcurve" smooth="yes"/>
      <point x="399" y="191"/>
      <point x="399" y="244" type="qcurve" smooth="yes"/>
      <point x="399" y="520" type="line"/>
      <point x="479" y="520" type="line"/>
    </contour>
  </outline>
</glyph>
<glyph name="yacute" format="2">
  <advance width="430"/>
  <unicode hex="00FD"/>
  <outline>
    <contour>
      <point x="352" y="667" type="line"/>
      <point x="132" y="570" type="line"/>
      <point x="112" y="611" type="line"/>
      <point x="317" y="733" type="line"/>
    </contour>
    <contour>
      <point x="435" y="520" type="line"/>
      <point x="231" y="-49" type="line" smooth="yes"/>
      <point x="200" y="-138"/>
      <point x="155" y="-165" type="qcurve" smooth="yes"/>
      <point x="122" y="-185"/>
      <point x="73" y="-185" type="qcurve" smooth="yes"/>
      <point x="48" y="-185"/>
      <point x="13" y="-176" type="qcurve"/>
      <point x="13" y="-112" type="line"/>
      <point x="44" y="-119"/>
      <point x="67" y="-119" type="qcurve" smooth="yes"/>
      <point x="130" y="-119"/>
      <point x="160" y="-55" type="qcurve" smooth="yes"/>
      <point x="166" y="-43"/>
      <point x="183" y="9" type="qcurve"/>
      <point x="3" y="520" type="line"/>
      <point x="86" y="520" type="line"/>
      <point x="225" y="129" type="line"/>
      <point x="368" y="520" type="line"/>
    </contour>
  </outline>
</glyph>
<glyph name="ydieresis" format="2">
  <advance width="430"/>
  <unicode hex="00FF"/>
  <outline>
    <contour>
      <point x="327" y="682" type="line" smooth="yes"/>
      <point x="327" y="647"/>
      <point x="295" y="634" type="qcurve" smooth="yes"/>
      <point x="284" y="629"/>
      <point x="272" y="629" type="qcurve" smooth="yes"/>
      <point x="239" y="629"/>
      <point x="224" y="660" type="qcurve" smooth="yes"/>
      <point x="220" y="671"/>
      <point x="220" y="682" type="qcurve" smooth="yes"/>
      <point x="220" y="717"/>
      <point x="253" y="729" type="qcurve" smooth="yes"/>
      <point x="263" y="733"/>
      <point x="273" y="733" type="qcurve" smooth="yes"/>
      <point x="305" y="733"/>
      <point x="321" y="705" type="qcurve"/>
      <point x="327" y="686" type="line"/>
    </contour>
    <contour>
      <point x="168" y="682" type="line" smooth="yes"/>
      <point x="168" y="647"/>
      <point x="136" y="634" type="qcurve" smooth="yes"/>
      <point x="125" y="629"/>
      <point x="114" y="629" type="qcurve" smooth="yes"/>
      <point x="80" y="629"/>
      <point x="66" y="660" type="qcurve" smooth="yes"/>
      <point x="61" y="671"/>
      <point x="61" y="682" type="qcurve" smooth="yes"/>
      <point x="61" y="717"/>
      <point x="94" y="729" type="qcurve" smooth="yes"/>
      <point x="104" y="733"/>
      <point x="115" y="733" type="qcurve" smooth="yes"/>
      <point x="146" y="733"/>
      <point x="162" y="705" type="qcurve"/>
      <point x="168" y="686" type="line"/>
    </contour>
    <contour>
      <point x="435" y="520" type="line"/>
      <point x="231" y="-49" type="line" smooth="yes"/>
      <point x="200" y="-138"/>
      <point x="155" y="-165" type="qcurve" smooth="yes"/>
      <point x="122" y="-185"/>
      <point x="73" y="-185" type="qcurve" smooth="yes"/>
      <point x="48" y="-185"/>
      <point x="13" y="-176" type="qcurve"/>
      <point x="13" y="-112" type="line"/>
      <point x="44" y="-119"/>
      <point x="67" y="-119" type="qcurve" smooth="yes"/>
      <point x="130" y="-119"/>
      <point x="160" y="-55" type="qcurve" smooth="yes"/>
      <point x="166" y="-43"/>
      <point x="183" y="9" type="qcurve"/>
      <point x="3" y="520" type="line"/>
      <point x="86" y="520" type="line"/>
      <point x="225" y="129" type="line"/>
      <point x="368" y="520" type="line"/>
    </contour>
  </outline>
</glyph>
<glyph name="dcroat" format="2">
  <advance width="620"/>
  <unicode hex="0111"/>
  <outline>
    <contour>
      <point x="643" y="585" type="line"/>
      <point x="538" y="585" type="line"/>
      <point x="538" y="102" type="line" smooth="yes"/>
      <point x="538" y="51"/>
      <point x="544" y="0" type="qcurve"/>
      <point x="447" y="0" type="line"/>
      <point x="443" y="76" type="line"/>
      <point x="384" y="-2"/>
      <point x="303" y="-10" type="qcurve" smooth="yes"/>
      <point x="292" y="-11"/>
      <point x="279" y="-11" type="qcurve" smooth="yes"/>
      <point x="133" y="-11"/>
      <point x="77" y="113" type="qcurve" smooth="yes"/>
      <point x="50" y="173"/>
      <point x="50" y="253" type="qcurve" smooth="yes"/>
      <point x="50" y="411"/>
      <point x="140" y="480" type="qcurve" smooth="yes"/>
      <point x="195" y="522"/>
      <point x="275" y="522" type="qcurve" smooth="yes"/>
      <point x="382" y="522"/>
      <point x="443" y="436" type="qcurve"/>
      <point x="443" y="585" type="line"/>
      <point x="279" y="585" type="line"/>
      <point x="279" y="640" type="line"/>
      <point x="443" y="640" type="line"/>
      <point x="443" y="737" type="line"/>
      <point x="538" y="737" type="line"/>
      <point x="538" y="640" type="line"/>
      <point x="643" y="640" type="line"/>
    </contour>
    <contour>
      <point x="443" y="247" type="qcurve" smooth="yes"/>
      <point x="443" y="366"/>
      <point x="386" y="424" type="qcurve" smooth="yes"/>
      <point x="351" y="460"/>
      <point x="297" y="460" type="qcurve" smooth="yes"/>
      <point x="199" y="460"/>
      <point x="163" y="357" type="qcurve" smooth="yes"/>
      <point x="148" y="314"/>
      <point x="148" y="263" type="qcurve" smooth="yes"/>
      <point x="148" y="148"/>
      <point x="203" y="89" type="qcurve" smooth="yes"/>
      <point x="240" y="50"/>
      <point x="295" y="50" type="qcurve" smooth="yes"/>
      <point x="393" y="50"/>
      <point x="429" y="153" type="qcurve" smooth="yes"/>
      <point x="443" y="196"/>
    </contour>
  </outline>
</glyph>
<glyph name="Hbar" format="2">
  <advance width="731"/>
  <unicode hex="0126"/>
  <outline>
    <contour>
      <point x="714" y="515" type="line"/>
      <point x="646" y="515" type="line"/>
      <point x="646" y="0" type="line"/>
      <point x="548" y="0" type="line"/>
      <point x="548" y="335" type="line"/>
      <point x="185" y="335" type="line"/>
      <point x="185" y="0" type="line"/>
      <point x="85" y="0" type="line"/>
      <point x="85" y="515" type="line"/>
      <point x="18" y="515" type="line"/>
      <point x="18" y="593" type="line"/>
      <point x="85" y="593" type="line"/>
      <point x="85" y="737" type="line"/>
      <point x="185" y="737" type="line"/>
      <point x="185" y="593" type="line"/>
      <point x="548" y="593" type="line"/>
      <point x="548" y="737" type="line"/>
      <point x="646" y="737" type="line"/>
      <point x="646" y="593" type="line"/>
      <point x="714" y="593" type="line"/>
    </contour>
    <contour>
      <point x="548" y="423" type="line"/>
      <point x="548" y="515" type="line"/>
      <point x="185" y="515" type="line"/>
      <point x="185" y="423" type="line"/>
    </contour>
  </outline>
</glyph>
<glyph name="dotlessi" format="2">
  <advance width="256"/>
  <unicode hex="0131"/>
  <outline>
    <contour>
      <point x="176" y="0" type="line"/>
      <point x="81" y="0" type="line"/>
      <point x="81" y="514" type="line"/>
      <point x="176" y="514" type="line"/>
    </contour>
  </outline>
</glyph>
<glyph name="ldot" format="2">
  <advance width="539"/>
  <unicode hex="0140"/>
  <outline>
    <contour>
      <point x="468" y="357" type="qcurve" smooth="yes"/>
      <point x="468" y="316"/>
      <point x="431" y="296" type="qcurve"/>
      <point x="411" y="288" type="line" smooth="yes"/>
      <point x="403" y="287"/>
      <point x="397" y="287" type="qcurve" smooth="yes"/>
      <point x="353" y="287"/>
      <point x="335" y="326" type="qcurve" smooth="yes"/>
      <point x="328" y="340"/>
      <point x="328" y="357" type="qcurve" smooth="yes"/>
      <point x="328" y="400"/>
      <point x="366" y="420" type="qcurve" smooth="yes"/>
      <point x="381" y="427"/>
      <point x="397" y="427" type="qcurve" smooth="yes"/>
      <point x="440" y="427"/>
      <point x="460" y="390" type="qcurve" smooth="yes"/>
      <point x="468" y="375"/>
    </contour>
    <contour>
      <point x="176" y="0" type="line"/>
      <point x="81" y="0" type="line"/>
      <point x="81" y="737" type="line"/>
      <point x="176" y="737" type="line"/>
    </contour>
  </outline>
</glyph>
<glyph name="napostrophe" format="2">
  <advance width="697"/>
  <unicode hex="0149"/>
  <outline>
    <contour>
      <point x="223" y="737" type="line"/>
      <point x="109" y="485" type="line"/>
      <point x="38" y="485" type="line"/>
      <point x="105" y="737" type="line"/>
    </contour>
    <contour>
      <point x="630" y="0" type="line"/>
      <point x="550" y="0" type="line"/>
      <point x="550" y="322" type="line" smooth="yes"/>
      <point x="550" y="388"/>
      <point x="539" y="412" type="qcurve" smooth="yes"/>
      <point x="538" y="415"/>
      <point x="536" y="418" type="qcurve" smooth="yes"/>
      <point x="513" y="457"/>
      <point x="461" y="464" type="qcurve" smooth="yes"/>
      <point x="454" y="465"/>
      <point x="446" y="465" type="qcurve" smooth="yes"/>
      <point x="350" y="465"/>
      <point x="313" y="367" type="qcurve" smooth="yes"/>
      <point x="298" y="324"/>
      <point x="298" y="272" type="qcurve" smooth="yes"/>
      <point x="298" y="0" type="line"/>
      <point x="218" y="0" type="line"/>
      <point x="218" y="520" type="line"/>
      <point x="294" y="520" type="line"/>
      <point x="294" y="424" type="line"/>
      <point x="296" y="424" type="line"/>
      <point x="333" y="504"/>
      <point x="411" y="526" type="qcurve" smooth="yes"/>
      <point x="433" y="534"/>
      <point x="458" y="534" type="qcurve" smooth="yes"/>
      <point x="554" y="534"/>
      <point x="602" y="457" type="qcurve"/>
      <point x="605" y="453" type="line"/>
      <point x="630" y="411"/>
      <point x="630" y="309" type="qcurve" smooth="yes"/>
    </contour>
  </outline>
</glyph>
<glyph name="eng" format="2">
  <advance width="602"/>
  <unicode hex="014B"/>
  <outline>
    <contour>
      <point x="523" y="31" type="line" smooth="yes"/>
      <point x="523" y="-178"/>
      <point x="383" y="-197" type="qcurve" smooth="yes"/>
      <point x="370" y="-199"/>
      <point x="355" y="-199" type="qcurve" smooth="yes"/>
      <point x="310" y="-199"/>
      <point x="275" y="-181" type="qcurve"/>
      <point x="275" y="-98" type="line"/>
      <point x="310" y="-117"/>
      <point x="340" y="-117" type="qcurve" smooth="yes"/>
      <point x="429" y="-117"/>
      <point x="429" y="26" type="qcurve" smooth="yes"/>
      <point x="429" y="325" type="line" smooth="yes"/>
      <point x="429" y="438"/>
      <point x="338" y="450" type="qcurve" smooth="yes"/>
      <point x="327" y="451"/>
      <point x="314" y="451" type="qcurve" smooth="yes"/>
      <point x="239" y="451"/>
      <point x="201" y="400" type="qcurve" smooth="yes"/>
      <point x="178" y="373"/>
      <point x="178" y="334" type="qcurve" smooth="yes"/>
      <point x="178" y="0" type="line"/>
      <point x="83" y="0" type="line"/>
      <point x="83" y="409" type="line" smooth="yes"/>
      <point x="83" y="468"/>
      <point x="79" y="514" type="qcurve"/>
      <point x="175" y="514" type="line"/>
      <point x="178" y="430" type="line"/>
      <point x="211" y="505"/>
      <point x="306" y="518" type="qcurve" smooth="yes"/>
      <point x="323" y="520"/>
      <point x="339" y="520" type="qcurve" smooth="yes"/>
      <point x="431" y="520"/>
      <point x="483" y="468" type="qcurve" smooth="yes"/>
      <point x="509" y="442"/>
      <point x="517" y="407" type="qcurve" smooth="yes"/>
      <point x="523" y="379"/>
      <point x="523" y="319" type="qcurve" smooth="yes"/>
    </contour>
  </outline>
</glyph>
<glyph name="OE" format="2">
  <advance width="1018"/>
  <unicode hex="0152"/>
  <outline>
    <contour>
      <point x="968" y="0" type="line"/>
      <point x="584" y="0" type="line"/>
      <point x="409" y="-5" type="line"/>
      <point x="408" y="-5" type="line" smooth="yes"/>
      <point x="58" y="-5"/>
      <point x="57" y="373" type="qcurve" smooth="yes"/>
      <point x="57" y="708"/>
      <point x="350" y="741" type="qcurve" smooth="yes"/>
      <point x="382" y="744"/>
      <point x="416" y="744" type="qcurve" smooth="yes"/>
      <point x="570" y="738" type="line"/>
      <point x="571" y="738" type="line"/>
      <point x="968" y="738" type="line"/>
      <point x="968" y="651" type="line"/>
      <point x="622" y="651" type="line"/>
      <point x="622" y="425" type="line"/>
      <point x="948" y="425" type="line"/>
      <point x="948" y="337" type="line"/>
      <point x="622" y="337" type="line"/>
      <point x="622" y="87" type="line"/>
      <point x="968" y="87" type="line"/>
    </contour>
    <contour>
      <point x="519" y="87" type="qcurve"/>
      <point x="519" y="650" type="line"/>
      <point x="462" y="657"/>
      <point x="419" y="657" type="qcurve" smooth="yes"/>
      <point x="168" y="657"/>
      <point x="159" y="391" type="qcurve"/>
      <point x="159" y="391"/>
      <point x="159" y="371" type="qcurve" smooth="yes"/>
      <point x="159" y="142"/>
      <point x="323" y="93" type="qcurve" smooth="yes"/>
      <point x="365" y="81"/>
      <point x="416" y="81" type="qcurve" smooth="yes"/>
      <point x="450" y="81"/>
    </contour>
  </outline>
</glyph>
<glyph name="Tbar" format="2">
  <advance width="617"/>
  <unicode hex="0166"/>
  <outline>
    <contour>
      <point x="603" y="649" type="line"/>
      <point x="357" y="649" type="line"/>
      <point x="357" y="392" type="line"/>
      <point x="529" y="392" type="line"/>
      <point x="529" y="313" type="line"/>
      <point x="357" y="313" type="line"/>
      <point x="357" y="0" type="line"/>
      <point x="259" y="0" type="line"/>
      <point x="259" y="313" type="line"/>
      <point x="86" y="313" type="line"/>
      <point x="86" y="392" type="line"/>
      <point x="259" y="392" type="line"/>
      <point x="259" y="649" type="line"/>
      <point x="14" y="649" type="line"/>
      <point x="14" y="737" type="line"/>
      <point x="603" y="737" type="line"/>
    </contour>
  </outline>
</glyph>
<glyph name="Wcircumflex" format="2">
  <advance width="839"/>
  <unicode hex="0174"/>
  <outline>
    <contour>
      <point x="588" y="788" type="line"/>
      <point x="518" y="778" type="line"/>
      <point x="422" y="841" type="line"/>
      <point x="322" y="778" type="line"/>
      <point x="247" y="788" type="line"/>
      <point x="422" y="914" type="line"/>
    </contour>
    <contour>
      <point x="831" y="702" type="line"/>
      <point x="663" y="0" type="line"/>
      <point x="574" y="0" type="line"/>
      <point x="422" y="545" type="line"/>
      <point x="279" y="0" type="line"/>
      <point x="189" y="0" type="line"/>
      <point x="11" y="702" type="line"/>
      <point x="101" y="702" type="line"/>
      <point x="242" y="133" type="line"/>
      <point x="244" y="133" type="line"/>
      <point x="392" y="702" type="line"/>
      <point x="463" y="702" type="line"/>
      <point x="623" y="133" type="line"/>
      <point x="625" y="133" type="line"/>
      <point x="755" y="702" type="line"/>
    </contour>
    <contour>
      <point x="831" y="702" type="line"/>
      <point x="663" y="0" type="line"/>
      <point x="574" y="0" type="line"/>
      <point x="422" y="545" type="line"/>
      <point x="279" y="0" type="line"/>
      <point x="189" y="0" type="line"/>
      <point x="11" y="702" type="line"/>
      <point x="101" y="702" type="line"/>
      <point x="242" y="133" type="line"/>
      <point x="244" y="133" type="line"/>
      <point x="392" y="702" type="line"/>
      <point x="463" y="702" type="line"/>
      <point x="623" y="133" type="line"/>
      <point x="625" y="133" type="line"/>
      <point x="755" y="702" type="line"/>
    </contour>
  </outline>
</glyph>
<glyph name="uni01D0" format="2">
  <advance width="245"/>
  <unicode hex="01D0"/>
  <outline>
    <contour>
      <point x="-45" y="753" type="line"/>
      <point x="26" y="763" type="line"/>
      <point x="121" y="699" type="line"/>
      <point x="221" y="763" type="line"/>
      <point x="296" y="753" type="line"/>
      <point x="121" y="627" type="line"/>
    </contour>
    <contour>
      <point x="163" y="0" type="line"/>
      <point x="83" y="0" type="line"/>
      <point x="83" y="520" type="line"/>
      <point x="163" y="520" type="line"/>
    </contour>
  </outline>
</glyph>
<glyph name="uni0250" format="2">
  <advance width="565"/>
  <unicode hex="0250"/>
  <outline>
    <contour>
      <point x="456" y="98" type="qcurve"/>
      <point x="470" y="38" type="line"/>
      <point x="385" y="-10"/>
      <point x="276" y="-10" type="qcurve" smooth="yes"/>
      <point x="164" y="-10"/>
      <point x="69" y="82"/>
      <point x="69" y="187" type="qcurve" smooth="yes"/>
      <point x="69" y="389" type="line" smooth="yes"/>
      <point x="69" y="462"/>
      <point x="53" y="532" type="qcurve"/>
      <point x="125" y="532" type="line"/>
      <point x="132" y="496"/>
      <point x="136" y="438" type="qcurve"/>
      <point x="137" y="438" type="line"/>
      <point x="166" y="487"/>
      <point x="269" y="543"/>
      <point x="335" y="543" type="qcurve" smooth="yes"/>
      <point x="409" y="543"/>
      <point x="497" y="460"/>
      <point x="497" y="389" type="qcurve" smooth="yes"/>
      <point x="497" y="300"/>
      <point x="342" y="195"/>
      <point x="199" y="195" type="qcurve" smooth="yes"/>
      <point x="143" y="195" type="line"/>
      <point x="143" y="189" type="line" smooth="yes"/>
      <point x="143" y="111"/>
      <point x="202" y="51"/>
      <point x="276" y="51" type="qcurve" smooth="yes"/>
      <point x="375" y="51"/>
    </contour>
    <contour>
      <point x="423" y="386" type="qcurve" smooth="yes"/>
      <point x="423" y="432"/>
      <point x="367" y="484"/>
      <point x="317" y="484" type="qcurve" smooth="yes"/>
      <point x="246" y="484"/>
      <point x="143" y="383"/>
      <point x="143" y="309" type="qcurve" smooth="yes"/>
      <point x="143" y="252" type="line"/>
      <point x="199" y="252" type="line" smooth="yes"/>
      <point x="307" y="252"/>
      <point x="423" y="325"/>
    </contour>
  </outline>
</glyph>
<glyph name="uni0256" format="2">
  <advance width="595"/>
  <unicode hex="0256"/>
  <outline>
    <contour>
      <point x="437" y="748" type="line"/>
      <point x="512" y="748" type="line"/>
      <point x="512" y="79" type="line" smooth="yes"/>
      <point x="512" y="16"/>
      <point x="558" y="-38"/>
      <point x="613" y="-38" type="qcurve" smooth="yes"/>
      <point x="652" y="-38"/>
      <point x="686" y="-23" type="qcurve"/>
      <point x="702" y="-84" type="line"/>
      <point x="653" y="-99"/>
      <point x="606" y="-99" type="qcurve" smooth="yes"/>
      <point x="519" y="-99"/>
      <point x="439" y="-15"/>
      <point x="439" y="79" type="qcurve" smooth="yes"/>
      <point x="439" y="90" type="line"/>
      <point x="437" y="90" type="line"/>
      <point x="381" y="-10"/>
      <point x="263" y="-10" type="qcurve" smooth="yes"/>
      <point x="165" y="-10"/>
      <point x="48" y="134"/>
      <point x="48" y="266" type="qcurve" smooth="yes"/>
      <point x="48" y="400"/>
      <point x="163" y="543"/>
      <point x="263" y="543" type="qcurve" smooth="yes"/>
      <point x="380" y="543"/>
      <point x="435" y="445" type="qcurve"/>
      <point x="437" y="445" type="line"/>
    </contour>
    <contour>
      <point x="122" y="163"/>
      <point x="208" y="51"/>
      <point x="281" y="51" type="qcurve" smooth="yes"/>
      <point x="351" y="51"/>
      <point x="437" y="161"/>
      <point x="437" y="259" type="qcurve" smooth="yes"/>
      <point x="437" y="273" type="line" smooth="yes"/>
      <point x="437" y="370"/>
      <point x="350" y="481"/>
      <point x="281" y="481" type="qcurve" smooth="yes"/>
      <point x="206" y="481"/>
      <point x="122" y="370"/>
    </contour>
  </outline>
</glyph>
<glyph name="uni0258" format="2">
  <advance width="568"/>
  <unicode hex="0258"/>
  <outline>
    <contour>
      <point x="281" y="482" type="qcurve" smooth="yes"/>
      <point x="207" y="482"/>
      <point x="123" y="386"/>
      <point x="122" y="297" type="qcurve"/>
      <point x="450" y="297" type="line"/>
      <point x="447" y="385"/>
      <point x="358" y="482"/>
    </contour>
    <contour>
      <point x="450" y="238" type="qcurve"/>
      <point x="49" y="238" type="line"/>
      <point x="48" y="248"/>
      <point x="48" y="271" type="qcurve" smooth="yes"/>
      <point x="48" y="402"/>
      <point x="170" y="543"/>
      <point x="281" y="543" type="qcurve" smooth="yes"/>
      <point x="394" y="543"/>
      <point x="526" y="395"/>
      <point x="526" y="266" type="qcurve" smooth="yes"/>
      <point x="526" y="139"/>
      <point x="385" y="-10"/>
      <point x="270" y="-10" type="qcurve" smooth="yes"/>
      <point x="172" y="-10"/>
      <point x="86" y="33" type="qcurve"/>
      <point x="106" y="91" type="line"/>
      <point x="181" y="50"/>
      <point x="345" y="50"/>
      <point x="448" y="151"/>
    </contour>
  </outline>
</glyph>
<glyph name="uni025A" format="2">
  <advance width="780"/>
  <unicode hex="025A"/>
  <outline>
    <contour>
      <point x="70" y="500" type="line"/>
      <point x="156" y="543"/>
      <point x="254" y="543" type="qcurve" smooth="yes"/>
      <point x="328" y="543"/>
      <point x="441" y="478"/>
      <point x="474" y="419" type="qcurve"/>
      <point x="566" y="474" type="line"/>
      <point x="631" y="474" type="line"/>
      <point x="631" y="338" type="line" smooth="yes"/>
      <point x="631" y="285"/>
      <point x="657" y="248"/>
      <point x="689" y="248" type="qcurve" smooth="yes"/>
      <point x="715" y="248"/>
      <point x="741" y="257" type="qcurve"/>
      <point x="753" y="199" type="line"/>
      <point x="717" y="187"/>
      <point x="677" y="186" type="qcurve" smooth="yes"/>
      <point x="619" y="186"/>
      <point x="566" y="252"/>
      <point x="566" y="331" type="qcurve" smooth="yes"/>
      <point x="566" y="407" type="line"/>
      <point x="497" y="365" type="line"/>
      <point x="510" y="317"/>
      <point x="510" y="266" type="qcurve" smooth="yes"/>
      <point x="510" y="137"/>
      <point x="378" y="-10"/>
      <point x="264" y="-10" type="qcurve" smooth="yes"/>
      <point x="178" y="-10"/>
      <point x="65" y="77"/>
      <point x="43" y="160" type="qcurve"/>
      <point x="412" y="382" type="line"/>
      <point x="367" y="482"/>
      <point x="247" y="482" type="qcurve" smooth="yes"/>
      <point x="165" y="482"/>
      <point x="90" y="441" type="qcurve"/>
    </contour>
    <contour>
      <point x="429" y="323" type="qcurve"/>
      <point x="124" y="138" type="line"/>
      <point x="162" y="50"/>
      <point x="264" y="50" type="qcurve" smooth="yes"/>
      <point x="344" y="50"/>
      <point x="433" y="160"/>
      <point x="433" y="266" type="qcurve" smooth="yes"/>
      <point x="433" y="299"/>
    </contour>
  </outline>
</glyph>
<glyph name="uni025E" format="2">
  <advance width="633"/>
  <unicode hex="025E"/>
  <outline>
    <contour>
      <point x="120" y="266" type="qcurve" smooth="yes"/>
      <point x="120" y="163"/>
      <point x="237" y="51"/>
      <point x="340" y="51" type="qcurve" smooth="yes"/>
      <point x="507" y="51"/>
      <point x="507" y="152" type="qcurve" smooth="yes"/>
      <point x="507" y="203"/>
      <point x="401" y="254"/>
      <point x="282" y="254" type="qcurve" smooth="yes"/>
      <point x="238" y="254" type="line"/>
      <point x="238" y="314" type="line"/>
      <point x="282" y="314" type="line" smooth="yes"/>
      <point x="499" y="314"/>
      <point x="499" y="401" type="qcurve" smooth="yes"/>
      <point x="499" y="439"/>
      <point x="417" y="483"/>
      <point x="337" y="483" type="qcurve" smooth="yes"/>
      <point x="235" y="483"/>
      <point x="120" y="370"/>
    </contour>
    <contour>
      <point x="43" y="398"/>
      <point x="198" y="543"/>
      <point x="343" y="543" type="qcurve" smooth="yes"/>
      <point x="453" y="543"/>
      <point x="578" y="469"/>
      <point x="578" y="412" type="qcurve" smooth="yes"/>
      <point x="578" y="370"/>
      <point x="509" y="300"/>
      <point x="444" y="286" type="qcurve"/>
      <point x="444" y="284" type="line"/>
      <point x="515" y="272"/>
      <point x="586" y="193"/>
      <point x="586" y="143" type="qcurve" smooth="yes"/>
      <point x="586" y="71"/>
      <point x="461" y="-10"/>
      <point x="343" y="-10" type="qcurve" smooth="yes"/>
      <point x="199" y="-10"/>
      <point x="43" y="134"/>
    </contour>
  </outline>
</glyph>
<glyph name="uni0265" format="2">
  <advance width="590"/>
  <unicode hex="0265"/>
  <outline>
    <contour>
      <point x="432" y="91" type="line"/>
      <point x="430" y="91" type="line"/>
      <point x="361" y="-10"/>
      <point x="251" y="-10" type="qcurve" smooth="yes"/>
      <point x="162" y="-10"/>
      <point x="74" y="101"/>
      <point x="74" y="222" type="qcurve" smooth="yes"/>
      <point x="74" y="532" type="line"/>
      <point x="147" y="532" type="line"/>
      <point x="147" y="228" type="line" smooth="yes"/>
      <point x="147" y="129"/>
      <point x="205" y="52"/>
      <point x="275" y="52" type="qcurve" smooth="yes"/>
      <point x="336" y="52"/>
      <point x="432" y="172"/>
      <point x="432" y="248" type="qcurve" smooth="yes"/>
      <point x="432" y="532" type="line"/>
      <point x="507" y="532" type="line"/>
      <point x="507" y="-215" type="line"/>
      <point x="432" y="-215" type="line"/>
    </contour>
  </outline>
</glyph>
<glyph name="uni0267" format="2">
  <advance width="585"/>
  <unicode hex="0267"/>
  <outline>
    <contour>
      <point x="311" y="480" type="qcurve" smooth="yes"/>
      <point x="249" y="480"/>
      <point x="154" y="360"/>
      <point x="154" y="285" type="qcurve" smooth="yes"/>
      <point x="154" y="0" type="line"/>
      <point x="79" y="0" type="line"/>
      <point x="79" y="581" type="line" smooth="yes"/>
      <point x="79" y="758"/>
      <point x="248" y="758" type="qcurve" smooth="yes"/>
      <point x="295" y="758"/>
      <point x="344" y="742" type="qcurve"/>
      <point x="328" y="681" type="line"/>
      <point x="294" y="696"/>
      <point x="255" y="696" type="qcurve" smooth="yes"/>
      <point x="200" y="696"/>
      <point x="154" y="644"/>
      <point x="154" y="581" type="qcurve" smooth="yes"/>
      <point x="154" y="441" type="line"/>
      <point x="156" y="441" type="line"/>
      <point x="225" y="542"/>
      <point x="335" y="543" type="qcurve" smooth="yes"/>
      <point x="425" y="543"/>
      <point x="512" y="431"/>
      <point x="512" y="310" type="qcurve" smooth="yes"/>
      <point x="512" y="-58" type="line" smooth="yes"/>
      <point x="512" y="-151"/>
      <point x="432" y="-236"/>
      <point x="344" y="-236" type="qcurve" smooth="yes"/>
      <point x="298" y="-236"/>
      <point x="249" y="-220" type="qcurve"/>
      <point x="265" y="-159" type="line"/>
      <point x="299" y="-174"/>
      <point x="338" y="-174" type="qcurve" smooth="yes"/>
      <point x="392" y="-174"/>
      <point x="438" y="-122"/>
      <point x="438" y="-58" type="qcurve" smooth="yes"/>
      <point x="438" y="304" type="line" smooth="yes"/>
      <point x="438" y="403"/>
      <point x="381" y="480"/>
    </contour>
  </outline>
</glyph>
<glyph name="uni0269" format="2">
  <advance width="445"/>
  <unicode hex="0269"/>
  <outline>
    <contour>
      <point x="374" y="-10" type="line"/>
      <point x="222" y="-10"/>
      <point x="115" y="92"/>
      <point x="115" y="236" type="qcurve" smooth="yes"/>
      <point x="115" y="532" type="line"/>
      <point x="194" y="532" type="line"/>
      <point x="194" y="231" type="line" smooth="yes"/>
      <point x="194" y="120"/>
      <point x="265" y="52"/>
      <point x="378" y="52" type="qcurve"/>
    </contour>
  </outline>
</glyph>
<glyph name="uni026A" format="2">
  <advance width="474"/>
  <unicode hex="026A"/>
  <outline>
    <contour>
      <point x="407" y="0" type="line"/>
      <point x="69" y="0" type="line"/>
      <point x="69" y="61" type="line"/>
      <point x="195" y="61" type="line"/>
      <point x="195" y="471" type="line"/>
      <point x="69" y="471" type="line"/>
      <point x="69" y="532" type="line"/>
      <point x="407" y="532" type="line"/>
      <point x="407" y="471" type="line"/>
      <point x="281" y="471" type="line"/>
      <point x="281" y="61" type="line"/>
      <point x="407" y="61" type="line"/>
    </contour>
  </outline>
</glyph>
<glyph name="uni026B" format="2">
  <advance width="546"/>
  <unicode hex="026B"/>
  <outline>
    <contour>
      <point x="313" y="325" type="qcurve"/>
      <point x="313" y="0" type="line"/>
      <point x="233" y="0" type="line"/>
      <point x="233" y="365" type="line"/>
      <point x="185" y="390"/>
      <point x="163" y="389" type="qcurve" smooth="yes"/>
      <point x="120" y="389"/>
      <point x="120" y="305" type="qcurve"/>
      <point x="58" y="305" type="line"/>
      <point x="58" y="448"/>
      <point x="154" y="449" type="qcurve" smooth="yes"/>
      <point x="190" y="449"/>
      <point x="233" y="430" type="qcurve"/>
      <point x="233" y="768" type="line"/>
      <point x="313" y="768" type="line"/>
      <point x="313" y="390" type="line"/>
      <point x="361" y="365"/>
      <point x="384" y="366" type="qcurve" smooth="yes"/>
      <point x="427" y="366"/>
      <point x="427" y="438" type="qcurve"/>
      <point x="488" y="438" type="line"/>
      <point x="488" y="305"/>
      <point x="393" y="305" type="qcurve" smooth="yes"/>
      <point x="359" y="306"/>
    </contour>
  </outline>
</glyph>
<glyph name="uni026D" format="2">
  <advance width="318"/>
  <unicode hex="026D"/>
  <outline>
    <contour>
      <point x="199" y="-58" type="line" smooth="yes"/>
      <point x="199" y="-121"/>
      <point x="245" y="-174"/>
      <point x="300" y="-174" type="qcurve" smooth="yes"/>
      <point x="339" y="-174"/>
      <point x="373" y="-159" type="qcurve"/>
      <point x="389" y="-220" type="line"/>
      <point x="340" y="-235"/>
      <point x="293" y="-236" type="qcurve" smooth="yes"/>
      <point x="203" y="-236"/>
      <point x="120" y="-152"/>
      <point x="120" y="-58" type="qcurve" smooth="yes"/>
      <point x="120" y="768" type="line"/>
      <point x="199" y="768" type="line"/>
    </contour>
  </outline>
</glyph>
<glyph name="uni026E" format="2">
  <advance width="702"/>
  <unicode hex="026E"/>
  <outline>
    <contour>
      <point x="521" y="469" type="line"/>
      <point x="521" y="471" type="line"/>
      <point x="168" y="471" type="line"/>
      <point x="168" y="0" type="line"/>
      <point x="89" y="0" type="line"/>
      <point x="89" y="768" type="line"/>
      <point x="168" y="768" type="line"/>
      <point x="168" y="532" type="line"/>
      <point x="613" y="532" type="line"/>
      <point x="613" y="471" type="line"/>
      <point x="376" y="210" type="line"/>
      <point x="376" y="208" type="line"/>
      <point x="416" y="208" type="line" smooth="yes"/>
      <point x="517" y="208"/>
      <point x="624" y="105"/>
      <point x="624" y="7" type="qcurve" smooth="yes"/>
      <point x="624" y="-111"/>
      <point x="494" y="-236"/>
      <point x="375" y="-236" type="qcurve" smooth="yes"/>
      <point x="273" y="-236"/>
      <point x="194" y="-182" type="qcurve"/>
      <point x="215" y="-121" type="line"/>
      <point x="295" y="-172"/>
      <point x="375" y="-172" type="qcurve" smooth="yes"/>
      <point x="458" y="-172"/>
      <point x="549" y="-79"/>
      <point x="549" y="7" type="qcurve" smooth="yes"/>
      <point x="549" y="80"/>
      <point x="456" y="151"/>
      <point x="357" y="151" type="qcurve" smooth="yes"/>
      <point x="288" y="151" type="line"/>
      <point x="288" y="211" type="line"/>
    </contour>
  </outline>
</glyph>
<glyph name="uni026F" format="2">
  <advance width="828"/>
  <unicode hex="026F"/>
  <outline>
    <contour>
      <point x="750" y="0" type="line"/>
      <point x="678" y="0" type="line"/>
      <point x="677" y="88" type="line"/>
      <point x="675" y="88" type="line"/>
      <point x="619" y="-10"/>
      <point x="535" y="-10" type="qcurve" smooth="yes"/>
      <point x="433" y="-10"/>
      <point x="391" y="92" type="qcurve"/>
      <point x="389" y="92" type="line"/>
      <point x="336" y="-10"/>
      <point x="234" y="-10" type="qcurve" smooth="yes"/>
      <point x="151" y="-10"/>
      <point x="74" y="87"/>
      <point x="74" y="195" type="qcurve" smooth="yes"/>
      <point x="74" y="532" type="line"/>
      <point x="147" y="532" type="line"/>
      <point x="147" y="215" type="line" smooth="yes"/>
      <point x="147" y="122"/>
      <point x="195" y="51"/>
      <point x="251" y="51" type="qcurve" smooth="yes"/>
      <point x="300" y="51"/>
      <point x="374" y="150"/>
      <point x="374" y="220" type="qcurve" smooth="yes"/>
      <point x="374" y="532" type="line"/>
      <point x="447" y="532" type="line"/>
      <point x="447" y="215" type="line" smooth="yes"/>
      <point x="447" y="122"/>
      <point x="495" y="51"/>
      <point x="552" y="51" type="qcurve" smooth="yes"/>
      <point x="598" y="51"/>
      <point x="675" y="159"/>
      <point x="675" y="233" type="qcurve" smooth="yes"/>
      <point x="675" y="532" type="line"/>
      <point x="750" y="532" type="line"/>
    </contour>
  </outline>
</glyph>
<glyph name="uni0272" format="2">
  <advance width="585"/>
  <unicode hex="0272"/>
  <outline>
    <contour>
      <point x="79" y="532" type="line"/>
      <point x="151" y="532" type="line"/>
      <point x="153" y="437" type="line"/>
      <point x="155" y="437" type="line"/>
      <point x="186" y="486"/>
      <point x="281" y="543"/>
      <point x="335" y="543" type="qcurve" smooth="yes"/>
      <point x="425" y="543"/>
      <point x="513" y="431"/>
      <point x="513" y="310" type="qcurve" smooth="yes"/>
      <point x="513" y="0" type="line"/>
      <point x="439" y="0" type="line"/>
      <point x="439" y="304" type="line" smooth="yes"/>
      <point x="439" y="403"/>
      <point x="382" y="480"/>
      <point x="311" y="480" type="qcurve" smooth="yes"/>
      <point x="252" y="480"/>
      <point x="155" y="362"/>
      <point x="155" y="285" type="qcurve" smooth="yes"/>
      <point x="155" y="-58" type="line" smooth="yes"/>
      <point x="155" y="-151"/>
      <point x="73" y="-236"/>
      <point x="-15" y="-236" type="qcurve" smooth="yes"/>
      <point x="-61" y="-236"/>
      <point x="-111" y="-220" type="qcurve"/>
      <point x="-94" y="-159" type="line"/>
      <point x="-60" y="-174"/>
      <point x="-22" y="-174" type="qcurve" smooth="yes"/>
      <point x="32" y="-174"/>
      <point x="79" y="-122"/>
      <point x="79" y="-58" type="qcurve" smooth="yes"/>
    </contour>
  </outline>
</glyph>
<glyph name="uni0274" format="2">
  <advance width="604"/>
  <unicode hex="0274"/>
  <outline>
    <contour>
      <point x="451" y="532" type="line"/>
      <point x="526" y="532" type="line"/>
      <point x="526" y="0" type="line"/>
      <point x="446" y="0" type="line"/>
      <point x="156" y="410" type="line"/>
      <point x="154" y="410" type="line"/>
      <point x="154" y="0" type="line"/>
      <point x="79" y="0" type="line"/>
      <point x="79" y="532" type="line"/>
      <point x="158" y="532" type="line"/>
      <point x="449" y="123" type="line"/>
      <point x="451" y="123" type="line"/>
    </contour>
  </outline>
</glyph>
<glyph name="uni0275" format="2">
  <advance width="587"/>
  <unicode hex="0275"/>
  <outline>
    <contour>
      <point x="43" y="393"/>
      <point x="180" y="543"/>
      <point x="408" y="543"/>
      <point x="545" y="393"/>
      <point x="545" y="139"/>
      <point x="408" y="-10"/>
      <point x="180" y="-10"/>
      <point x="43" y="139"/>
    </contour>
    <contour>
      <point x="121" y="236" type="line"/>
      <point x="128" y="149"/>
      <point x="220" y="51"/>
      <point x="368" y="51"/>
      <point x="460" y="148"/>
      <point x="467" y="236" type="qcurve"/>
    </contour>
    <contour>
      <point x="121" y="297" type="qcurve"/>
      <point x="467" y="297" type="line"/>
      <point x="460" y="384"/>
      <point x="368" y="481"/>
      <point x="220" y="481"/>
      <point x="128" y="384"/>
    </contour>
  </outline>
</glyph>
<glyph name="uni027A" format="2">
  <advance width="473"/>
  <unicode hex="027A"/>
  <outline>
    <contour>
      <point x="316" y="0" type="line"/>
      <point x="315" y="114" type="line"/>
      <point x="313" y="114" type="line"/>
      <point x="223" y="-10"/>
      <point x="58" y="-10" type="qcurve"/>
      <point x="58" y="54" type="line"/>
      <point x="172" y="54"/>
      <point x="313" y="179"/>
      <point x="313" y="279" type="qcurve" smooth="yes"/>
      <point x="313" y="748" type="line"/>
      <point x="389" y="748" type="line"/>
      <point x="389" y="0" type="line"/>
    </contour>
  </outline>
</glyph>
<glyph name="uni0280" format="2">
  <advance width="575"/>
  <unicode hex="0280"/>
  <outline>
    <contour>
      <point x="280" y="463" type="qcurve" smooth="yes"/>
      <point x="163" y="463" type="line"/>
      <point x="163" y="289" type="line"/>
      <point x="269" y="289" type="line" smooth="yes"/>
      <point x="432" y="290"/>
      <point x="432" y="378" type="qcurve" smooth="yes"/>
      <point x="432" y="394"/>
      <point x="423" y="420"/>
      <point x="394" y="447"/>
      <point x="329" y="463"/>
    </contour>
    <contour>
      <point x="163" y="227" type="line"/>
      <point x="163" y="0" type="line"/>
      <point x="84" y="0" type="line"/>
      <point x="84" y="532" type="line"/>
      <point x="280" y="532" type="line" smooth="yes"/>
      <point x="403" y="532"/>
      <point x="511" y="463"/>
      <point x="511" y="392" type="qcurve" smooth="yes"/>
      <point x="511" y="339"/>
      <point x="440" y="269"/>
      <point x="374" y="256" type="qcurve"/>
      <point x="374" y="255" type="line"/>
      <point x="398" y="246"/>
      <point x="433" y="203"/>
      <point x="457" y="152" type="qcurve" smooth="yes"/>
      <point x="527" y="0" type="line"/>
      <point x="444" y="0" type="line"/>
      <point x="382" y="145" type="line" smooth="yes"/>
      <point x="355" y="202"/>
      <point x="321" y="227"/>
      <point x="267" y="227" type="qcurve" smooth="yes"/>
    </contour>
  </outline>
</glyph>
<glyph name="uni0281" format="2">
  <advance width="575"/>
  <unicode hex="0281"/>
  <outline>
    <contour>
      <point x="280" y="70" type="line" smooth="yes"/>
      <point x="329" y="70"/>
      <point x="394" y="85"/>
      <point x="423" y="113"/>
      <point x="432" y="138"/>
      <point x="432" y="155" type="qcurve" smooth="yes"/>
      <point x="432" y="243"/>
      <point x="269" y="244" type="qcurve" smooth="yes"/>
      <point x="163" y="244" type="line"/>
      <point x="163" y="70" type="line"/>
    </contour>
    <contour>
      <point x="163" y="305" type="line"/>
      <point x="267" y="305" type="line" smooth="yes"/>
      <point x="320" y="305"/>
      <point x="355" y="330"/>
      <point x="382" y="387" type="qcurve" smooth="yes"/>
      <point x="444" y="532" type="line"/>
      <point x="527" y="532" type="line"/>
      <point x="457" y="381" type="line" smooth="yes"/>
      <point x="433" y="330"/>
      <point x="397" y="287"/>
      <point x="374" y="278" type="qcurve"/>
      <point x="374" y="276" type="line"/>
      <point x="441" y="263"/>
      <point x="511" y="194"/>
      <point x="511" y="140" type="qcurve" smooth="yes"/>
      <point x="511" y="69"/>
      <point x="402" y="0"/>
      <point x="280" y="0" type="qcurve" smooth="yes"/>
      <point x="84" y="0" type="line"/>
      <point x="84" y="532" type="line"/>
      <point x="163" y="532" type="line"/>
    </contour>
  </outline>
</glyph>
<glyph name="uni0282" format="2">
  <advance width="517"/>
  <unicode hex="0282"/>
  <outline>
    <contour>
      <point x="260" y="-10" type="qcurve" smooth="yes"/>
      <point x="194" y="-10"/>
      <point x="137" y="12" type="qcurve"/>
      <point x="137" y="-58" type="line" smooth="yes"/>
      <point x="137" y="-121"/>
      <point x="183" y="-174"/>
      <point x="239" y="-174" type="qcurve" smooth="yes"/>
      <point x="277" y="-174"/>
      <point x="311" y="-159" type="qcurve"/>
      <point x="327" y="-220" type="line"/>
      <point x="280" y="-235"/>
      <point x="231" y="-236" type="qcurve" smooth="yes"/>
      <point x="143" y="-236"/>
      <point x="63" y="-152"/>
      <point x="63" y="-58" type="qcurve" smooth="yes"/>
      <point x="63" y="101" type="line"/>
      <point x="135" y="101" type="line"/>
      <point x="164" y="51"/>
      <point x="260" y="51" type="qcurve" smooth="yes"/>
      <point x="319" y="51"/>
      <point x="383" y="98"/>
      <point x="383" y="140" type="qcurve" smooth="yes"/>
      <point x="383" y="181"/>
      <point x="326" y="226"/>
      <point x="256" y="239" type="qcurve" smooth="yes"/>
      <point x="154" y="257"/>
      <point x="63" y="334"/>
      <point x="63" y="465"/>
      <point x="167" y="543"/>
      <point x="260" y="543" type="qcurve" smooth="yes"/>
      <point x="357" y="543"/>
      <point x="440" y="502" type="qcurve"/>
      <point x="424" y="441" type="line"/>
      <point x="345" y="481"/>
      <point x="260" y="481" type="qcurve" smooth="yes"/>
      <point x="201" y="481"/>
      <point x="138" y="438"/>
      <point x="138" y="399" type="qcurve" smooth="yes"/>
      <point x="138" y="362"/>
      <point x="193" y="318"/>
      <point x="264" y="307" type="qcurve" smooth="yes"/>
      <point x="368" y="290"/>
      <point x="460" y="210"/>
      <point x="460" y="140" type="qcurve" smooth="yes"/>
      <point x="460" y="69"/>
      <point x="354" y="-10"/>
    </contour>
  </outline>
</glyph>
<glyph name="uni0286" format="2">
  <advance width="522"/>
  <unicode hex="0286"/>
  <outline>
    <contour>
      <point x="151" y="-236" type="qcurve" smooth="yes"/>
      <point x="82" y="-236"/>
      <point x="7" y="-174"/>
      <point x="7" y="-120" type="qcurve" smooth="yes"/>
      <point x="7" y="-61"/>
      <point x="95" y="5"/>
      <point x="178" y="5" type="qcurve" smooth="yes"/>
      <point x="239" y="5" type="line"/>
      <point x="239" y="581" type="line" smooth="yes"/>
      <point x="239" y="758"/>
      <point x="410" y="758" type="qcurve" smooth="yes"/>
      <point x="456" y="758"/>
      <point x="505" y="742" type="qcurve"/>
      <point x="488" y="681" type="line"/>
      <point x="454" y="696"/>
      <point x="416" y="696" type="qcurve" smooth="yes"/>
      <point x="362" y="696"/>
      <point x="315" y="644"/>
      <point x="315" y="581" type="qcurve" smooth="yes"/>
      <point x="315" y="5" type="line"/>
      <point x="486" y="5" type="line"/>
      <point x="486" y="-56" type="line"/>
      <point x="315" y="-56" type="line"/>
      <point x="315" y="-58" type="line" smooth="yes"/>
      <point x="315" y="-150"/>
      <point x="235" y="-236"/>
    </contour>
    <contour>
      <point x="239" y="-56" type="line"/>
      <point x="178" y="-56" type="line" smooth="yes"/>
      <point x="79" y="-56"/>
      <point x="79" y="-120" type="qcurve" smooth="yes"/>
      <point x="79" y="-145"/>
      <point x="115" y="-173"/>
      <point x="146" y="-173" type="qcurve" smooth="yes"/>
      <point x="195" y="-173"/>
      <point x="239" y="-121"/>
      <point x="239" y="-58" type="qcurve" smooth="yes"/>
    </contour>
  </outline>
</glyph>
<glyph name="uni0288" format="2">
  <advance width="527"/>
  <unicode hex="0288"/>
  <outline>
    <contour>
      <point x="248" y="707" type="line"/>
      <point x="248" y="512" type="line"/>
      <point x="450" y="512" type="line"/>
      <point x="450" y="451" type="line"/>
      <point x="248" y="451" type="line"/>
      <point x="248" y="-54" type="line" smooth="yes"/>
      <point x="248" y="-126"/>
      <point x="287" y="-174"/>
      <point x="340" y="-174" type="qcurve" smooth="yes"/>
      <point x="391" y="-174"/>
      <point x="430" y="-157" type="qcurve"/>
      <point x="442" y="-217" type="line"/>
      <point x="390" y="-235"/>
      <point x="330" y="-236" type="qcurve" smooth="yes"/>
      <point x="243" y="-236"/>
      <point x="171" y="-161"/>
      <point x="171" y="-69" type="qcurve" smooth="yes"/>
      <point x="171" y="451" type="line"/>
      <point x="53" y="451" type="line"/>
      <point x="53" y="512" type="line"/>
      <point x="171" y="512" type="line"/>
      <point x="171" y="707" type="line"/>
    </contour>
  </outline>
</glyph>
<glyph name="uni028A" format="2">
  <advance width="631"/>
  <unicode hex="028A"/>
  <outline>
    <contour>
      <point x="201" y="-10"/>
      <point x="66" y="124"/>
      <point x="66" y="239" type="qcurve" smooth="yes"/>
      <point x="66" y="379"/>
      <point x="176" y="471" type="qcurve"/>
      <point x="176" y="473" type="line"/>
      <point x="53" y="473" type="line"/>
      <point x="53" y="532" type="line"/>
      <point x="271" y="532" type="line"/>
      <point x="271" y="473" type="line"/>
      <point x="141" y="390"/>
      <point x="141" y="253" type="qcurve" smooth="yes"/>
      <point x="141" y="157"/>
      <point x="236" y="51"/>
      <point x="396" y="51"/>
      <point x="490" y="157"/>
      <point x="490" y="253" type="qcurve" smooth="yes"/>
      <point x="490" y="390"/>
      <point x="360" y="473" type="qcurve"/>
      <point x="360" y="532" type="line"/>
      <point x="579" y="532" type="line"/>
      <point x="579" y="473" type="line"/>
      <point x="456" y="473" type="line"/>
      <point x="456" y="471" type="line"/>
      <point x="568" y="378"/>
      <point x="567" y="239" type="qcurve" smooth="yes"/>
      <point x="567" y="124"/>
      <point x="432" y="-10"/>
    </contour>
  </outline>
</glyph>
<glyph name="uni028B" format="2">
  <advance width="588"/>
  <unicode hex="028B"/>
  <outline>
    <contour>
      <point x="399" y="537" type="qcurve"/>
      <point x="472" y="552" type="line"/>
      <point x="531" y="415"/>
      <point x="531" y="284" type="qcurve" smooth="yes"/>
      <point x="531" y="-10"/>
      <point x="296" y="-10" type="qcurve" smooth="yes"/>
      <point x="179" y="-10"/>
      <point x="74" y="91"/>
      <point x="74" y="202" type="qcurve" smooth="yes"/>
      <point x="74" y="532" type="line"/>
      <point x="147" y="532" type="line"/>
      <point x="147" y="208" type="line" smooth="yes"/>
      <point x="147" y="126"/>
      <point x="217" y="54"/>
      <point x="295" y="54" type="qcurve" smooth="yes"/>
      <point x="376" y="54"/>
      <point x="457" y="168"/>
      <point x="457" y="292" type="qcurve" smooth="yes"/>
      <point x="456" y="410"/>
    </contour>
  </outline>
</glyph>
<glyph name="uni028E" format="2">
  <advance width="573"/>
  <unicode hex="028E"/>
  <outline>
    <contour>
      <point x="453" y="0" type="line"/>
      <point x="282" y="441" type="line"/>
      <point x="280" y="441" type="line"/>
      <point x="119" y="0" type="line"/>
      <point x="38" y="0" type="line"/>
      <point x="244" y="532" type="line" smooth="yes"/>
      <point x="298" y="669"/>
      <point x="420" y="768"/>
      <point x="529" y="768" type="qcurve"/>
      <point x="532" y="706" type="line"/>
      <point x="449" y="706"/>
      <point x="359" y="635"/>
      <point x="319" y="532" type="qcurve"/>
      <point x="537" y="0" type="line"/>
    </contour>
  </outline>
</glyph>
<glyph name="uni0291" format="2">
  <advance width="652"/>
  <unicode hex="0291"/>
  <outline>
    <contour>
      <point x="79" y="532" type="line"/>
      <point x="485" y="532" type="line"/>
      <point x="485" y="471" type="line"/>
      <point x="173" y="63" type="line"/>
      <point x="173" y="61" type="line"/>
      <point x="304" y="61" type="line"/>
      <point x="376" y="164"/>
      <point x="457" y="227"/>
      <point x="504" y="227" type="qcurve" smooth="yes"/>
      <point x="554" y="227"/>
      <point x="614" y="169"/>
      <point x="614" y="121" type="qcurve" smooth="yes"/>
      <point x="614" y="0"/>
      <point x="437" y="0" type="qcurve" smooth="yes"/>
      <point x="337" y="0" type="line"/>
      <point x="274" y="-95" type="line"/>
      <point x="219" y="-65" type="line"/>
      <point x="262" y="0" type="line"/>
      <point x="79" y="0" type="line"/>
      <point x="79" y="61" type="line"/>
      <point x="391" y="469" type="line"/>
      <point x="391" y="471" type="line"/>
      <point x="79" y="471" type="line"/>
    </contour>
    <contour>
      <point x="379" y="61" type="qcurve"/>
      <point x="444" y="61" type="line" smooth="yes"/>
      <point x="546" y="61"/>
      <point x="547" y="120" type="qcurve" smooth="yes"/>
      <point x="547" y="142"/>
      <point x="519" y="167"/>
      <point x="497" y="167" type="qcurve" smooth="yes"/>
      <point x="473" y="167"/>
      <point x="427" y="129"/>
    </contour>
  </outline>
</glyph>
<glyph name="uni0292" format="2">
  <advance width="587"/>
  <unicode hex="0292"/>
  <outline>
    <contour>
      <point x="81" y="471" type="line"/>
      <point x="81" y="532" type="line"/>
      <point x="499" y="532" type="line"/>
      <point x="499" y="471" type="line"/>
      <point x="261" y="210" type="line"/>
      <point x="261" y="208" type="line"/>
      <point x="301" y="208" type="line" smooth="yes"/>
      <point x="402" y="208"/>
      <point x="509" y="105"/>
      <point x="509" y="7" type="qcurve" smooth="yes"/>
      <point x="509" y="-111"/>
      <point x="379" y="-236"/>
      <point x="260" y="-236" type="qcurve" smooth="yes"/>
      <point x="158" y="-236"/>
      <point x="79" y="-182" type="qcurve"/>
      <point x="100" y="-121" type="line"/>
      <point x="180" y="-172"/>
      <point x="260" y="-172" type="qcurve" smooth="yes"/>
      <point x="343" y="-172"/>
      <point x="434" y="-79"/>
      <point x="434" y="7" type="qcurve" smooth="yes"/>
      <point x="434" y="80"/>
      <point x="341" y="151"/>
      <point x="243" y="151" type="qcurve" smooth="yes"/>
      <point x="173" y="151" type="line"/>
      <point x="173" y="211" type="line"/>
      <point x="407" y="469" type="line"/>
      <point x="407" y="471" type="line"/>
    </contour>
  </outline>
</glyph>
<glyph name="uni0293" format="2">
  <advance width="603"/>
  <unicode hex="0293"/>
  <outline>
    <contour>
      <point x="96" y="471" type="line"/>
      <point x="96" y="532" type="line"/>
      <point x="514" y="532" type="line"/>
      <point x="514" y="471" type="line"/>
      <point x="278" y="210" type="line"/>
      <point x="278" y="208" type="line"/>
      <point x="316" y="208" type="line" smooth="yes"/>
      <point x="417" y="208"/>
      <point x="524" y="105"/>
      <point x="524" y="7" type="qcurve" smooth="yes"/>
      <point x="524" y="-141"/>
      <point x="422" y="-201" type="qcurve"/>
      <point x="469" y="-273" type="line"/>
      <point x="414" y="-304" type="line"/>
      <point x="362" y="-225" type="line"/>
      <point x="324" y="-235"/>
      <point x="273" y="-236" type="qcurve" smooth="yes"/>
      <point x="173" y="-236"/>
      <point x="71" y="-163"/>
      <point x="71" y="-95" type="qcurve" smooth="yes"/>
      <point x="71" y="-44"/>
      <point x="134" y="18"/>
      <point x="185" y="18" type="qcurve" smooth="yes"/>
      <point x="232" y="18"/>
      <point x="312" y="-43"/>
      <point x="383" y="-144" type="qcurve"/>
      <point x="450" y="-101"/>
      <point x="450" y="7" type="qcurve" smooth="yes"/>
      <point x="450" y="80"/>
      <point x="357" y="151"/>
      <point x="258" y="151" type="qcurve" smooth="yes"/>
      <point x="188" y="151" type="line"/>
      <point x="188" y="211" type="line"/>
      <point x="423" y="469" type="line"/>
      <point x="423" y="471" type="line"/>
    </contour>
    <contour>
      <point x="325" y="-168" type="qcurve"/>
      <point x="269" y="-87"/>
      <point x="218" y="-42"/>
      <point x="168" y="-42"/>
      <point x="141" y="-69"/>
      <point x="141" y="-91" type="qcurve" smooth="yes"/>
      <point x="141" y="-172"/>
      <point x="273" y="-172" type="qcurve" smooth="yes"/>
      <point x="305" y="-172"/>
    </contour>
  </outline>
</glyph>
<glyph name="uni0297" format="2">
  <advance width="542"/>
  <unicode hex="0297"/>
  <outline>
    <contour>
      <point x="328" y="695" type="qcurve" smooth="yes"/>
      <point x="293" y="695"/>
      <point x="241" y="678"/>
      <point x="189" y="623"/>
      <point x="158" y="529"/>
      <point x="137" y="371"/>
      <point x="137" y="152"/>
      <point x="158" y="-8"/>
      <point x="189" y="-101"/>
      <point x="241" y="-157"/>
      <point x="293" y="-174"/>
      <point x="328" y="-174" type="qcurve" smooth="yes"/>
      <point x="400" y="-174"/>
      <point x="465" y="-139" type="qcurve"/>
      <point x="485" y="-200" type="line"/>
      <point x="408" y="-236"/>
      <point x="325" y="-236" type="qcurve" smooth="yes"/>
      <point x="185" y="-236"/>
      <point x="58" y="-5"/>
      <point x="58" y="527"/>
      <point x="184" y="758"/>
      <point x="325" y="758" type="qcurve" smooth="yes"/>
      <point x="409" y="758"/>
      <point x="485" y="722" type="qcurve"/>
      <point x="465" y="659" type="line"/>
      <point x="400" y="695"/>
    </contour>
  </outline>
</glyph>
<glyph name="uni029B" format="2">
  <advance width="635"/>
  <unicode hex="029B"/>
  <outline>
    <contour>
      <point x="630" y="758" type="qcurve" smooth="yes"/>
      <point x="678" y="758"/>
      <point x="725" y="742" type="qcurve"/>
      <point x="710" y="681" type="line"/>
      <point x="674" y="696"/>
      <point x="637" y="696" type="qcurve" smooth="yes"/>
      <point x="582" y="696"/>
      <point x="536" y="644"/>
      <point x="536" y="581" type="qcurve" smooth="yes"/>
      <point x="536" y="449" type="line"/>
      <point x="464" y="449" type="line"/>
      <point x="413" y="484"/>
      <point x="342" y="483" type="qcurve" smooth="yes"/>
      <point x="240" y="483"/>
      <point x="120" y="366"/>
      <point x="120" y="266" type="qcurve" smooth="yes"/>
      <point x="120" y="168"/>
      <point x="248" y="51"/>
      <point x="355" y="51" type="qcurve" smooth="yes"/>
      <point x="431" y="51"/>
      <point x="488" y="76" type="qcurve"/>
      <point x="488" y="255" type="line"/>
      <point x="292" y="255" type="line"/>
      <point x="292" y="315" type="line"/>
      <point x="562" y="315" type="line"/>
      <point x="562" y="29" type="line"/>
      <point x="466" y="-10"/>
      <point x="350" y="-10" type="qcurve" smooth="yes"/>
      <point x="210" y="-10"/>
      <point x="43" y="140"/>
      <point x="43" y="266" type="qcurve" smooth="yes"/>
      <point x="43" y="393"/>
      <point x="208" y="543"/>
      <point x="350" y="543" type="qcurve" smooth="yes"/>
      <point x="409" y="543"/>
      <point x="462" y="525" type="qcurve"/>
      <point x="462" y="581" type="line" smooth="yes"/>
      <point x="462" y="674"/>
      <point x="542" y="758"/>
    </contour>
  </outline>
</glyph>
<glyph name="uni029F" format="2">
  <advance width="530"/>
  <unicode hex="029F"/>
  <outline>
    <contour>
      <point x="158" y="532" type="line"/>
      <point x="158" y="65" type="line"/>
      <point x="478" y="65" type="line"/>
      <point x="478" y="0" type="line"/>
      <point x="79" y="0" type="line"/>
      <point x="79" y="532" type="line"/>
    </contour>
  </outline>
</glyph>
<glyph name="uni02A0" format="2">
  <advance width="590"/>
  <unicode hex="02A0"/>
  <outline>
    <contour>
      <point x="263" y="543" type="qcurve" smooth="yes"/>
      <point x="323" y="543"/>
      <point x="407" y="497"/>
      <point x="437" y="445" type="qcurve"/>
      <point x="439" y="445" type="line"/>
      <point x="439" y="471" type="line" smooth="yes"/>
      <point x="439" y="550"/>
      <point x="524" y="632"/>
      <point x="606" y="632" type="qcurve" smooth="yes"/>
      <point x="653" y="632"/>
      <point x="702" y="616" type="qcurve"/>
      <point x="686" y="555" type="line"/>
      <point x="652" y="570"/>
      <point x="613" y="570" type="qcurve" smooth="yes"/>
      <point x="558" y="570"/>
      <point x="512" y="517"/>
      <point x="512" y="454" type="qcurve" smooth="yes"/>
      <point x="512" y="-225" type="line"/>
      <point x="437" y="-225" type="line"/>
      <point x="437" y="83" type="line"/>
      <point x="435" y="83" type="line"/>
      <point x="379" y="-10"/>
      <point x="263" y="-10" type="qcurve" smooth="yes"/>
      <point x="166" y="-10"/>
      <point x="48" y="135"/>
      <point x="48" y="266" type="qcurve" smooth="yes"/>
      <point x="48" y="400"/>
      <point x="163" y="543"/>
    </contour>
    <contour>
      <point x="122" y="163"/>
      <point x="208" y="51"/>
      <point x="281" y="51" type="qcurve" smooth="yes"/>
      <point x="351" y="51"/>
      <point x="437" y="161"/>
      <point x="437" y="259" type="qcurve" smooth="yes"/>
      <point x="437" y="273" type="line" smooth="yes"/>
      <point x="437" y="369"/>
      <point x="350" y="481"/>
      <point x="281" y="481" type="qcurve" smooth="yes"/>
      <point x="206" y="481"/>
      <point x="122" y="370"/>
    </contour>
  </outline>
</glyph>
<glyph name="uni02A1" format="2">
  <advance width="599"/>
  <unicode hex="02A1"/>
  <outline>
    <contour>
      <point x="58" y="202" type="line"/>
      <point x="58" y="263" type="line"/>
      <point x="241" y="263" type="line"/>
      <point x="241" y="387" type="line"/>
      <point x="349" y="387"/>
      <point x="458" y="470"/>
      <point x="458" y="548" type="qcurve" smooth="yes"/>
      <point x="458" y="616"/>
      <point x="361" y="689"/>
      <point x="270" y="689" type="qcurve" smooth="yes"/>
      <point x="173" y="689"/>
      <point x="74" y="631" type="qcurve"/>
      <point x="53" y="695" type="line"/>
      <point x="165" y="757"/>
      <point x="281" y="758" type="qcurve" smooth="yes"/>
      <point x="400" y="758"/>
      <point x="537" y="645"/>
      <point x="537" y="550" type="qcurve" smooth="yes"/>
      <point x="537" y="363"/>
      <point x="321" y="333" type="qcurve"/>
      <point x="321" y="263" type="line"/>
      <point x="503" y="263" type="line"/>
      <point x="503" y="202" type="line"/>
      <point x="321" y="202" type="line"/>
      <point x="321" y="0" type="line"/>
      <point x="241" y="0" type="line"/>
      <point x="241" y="202" type="line"/>
    </contour>
  </outline>
</glyph>
<glyph name="uni02A3" format="2">
  <advance width="986"/>
  <unicode hex="02A3"/>
  <outline>
    <contour>
      <point x="814" y="469" type="line"/>
      <point x="814" y="471" type="line"/>
      <point x="512" y="471" type="line"/>
      <point x="512" y="75" type="line"/>
    </contour>
    <contour>
      <point x="502" y="0" type="line"/>
      <point x="440" y="0" type="line"/>
      <point x="439" y="90" type="line"/>
      <point x="437" y="90" type="line"/>
      <point x="381" y="-10"/>
      <point x="263" y="-10" type="qcurve" smooth="yes"/>
      <point x="165" y="-10"/>
      <point x="48" y="134"/>
      <point x="48" y="266" type="qcurve" smooth="yes"/>
      <point x="48" y="400"/>
      <point x="163" y="543"/>
      <point x="263" y="543" type="qcurve" smooth="yes"/>
      <point x="380" y="543"/>
      <point x="435" y="445" type="qcurve"/>
      <point x="437" y="445" type="line"/>
      <point x="437" y="748" type="line"/>
      <point x="512" y="748" type="line"/>
      <point x="512" y="532" type="line"/>
      <point x="908" y="532" type="line"/>
      <point x="908" y="471" type="line"/>
      <point x="596" y="63" type="line"/>
      <point x="596" y="61" type="line"/>
      <point x="908" y="61" type="line"/>
      <point x="908" y="0" type="line"/>
      <point x="512" y="0" type="line"/>
    </contour>
    <contour>
      <point x="122" y="163"/>
      <point x="208" y="51"/>
      <point x="281" y="51" type="qcurve" smooth="yes"/>
      <point x="351" y="51"/>
      <point x="437" y="161"/>
      <point x="437" y="259" type="qcurve" smooth="yes"/>
      <point x="437" y="273" type="line" smooth="yes"/>
      <point x="437" y="370"/>
      <point x="350" y="481"/>
      <point x="281" y="481" type="qcurve" smooth="yes"/>
      <point x="206" y="481"/>
      <point x="122" y="370"/>
    </contour>
  </outline>
</glyph>
